<svg xmlns="http://www.w3.org/2000/svg" xmlns:xlink="http://www.w3.org/1999/xlink" version="1.1" viewBox="0 0 2565 1101" style="background: #ffffff"><defs><style>@import url(https://fonts.googleapis.com/css?family=Open+Sans:400,700);</style></defs><defs joint-selector="defs"></defs><g joint-selector="layers"  transform="matrix(1,0,0,1,0,0)"><g ></g><g ><!--z-index:1--><!--z-index:2--><!--z-index:3--><!--z-index:4--><!--z-index:5--><!--z-index:6--><!--z-index:7--><!--z-index:8--><!--z-index:9--><!--z-index:10--><!--z-index:11--><!--z-index:12--><!--z-index:13--><!--z-index:14--><!--z-index:15--><!--z-index:16--><!--z-index:17--><g   id="j_154"  transform="translate(20,1064.6)"><g id="v-1792"><text  id="v-1793" font-size="22px" xml:space="preserve" y="0.8em" font-weight="normal" text-anchor="start" fill="#aaaaaa" pointer-events="none" display="block" font-family="Open Sans"><tspan dy="0" >Monday, April 14, 2025 at 2:09 PM Moscow Standard Time</tspan></text></g></g><!--z-index:18--><g   id="j_153"  transform="translate(20,1021.3999999999999)"><g id="v-1790"><text  id="v-1791" font-size="36px" xml:space="preserve" y="0.8em" font-weight="normal" text-anchor="start" fill="#000000" pointer-events="none" display="block" font-family="Open Sans"><tspan dy="0" >[Container] Web Novel Rating</tspan></text></g></g><!--z-index:19--><g   id="j_156"  transform="translate(639,15)" style=""><g id="v-1807"><rect  id="v-1808" width="1875" height="1001" rx="0" ry="0" fill="#ffffff" stroke="#0f5eaa" stroke-width="1" stroke-dasharray="20,20" pointer-events="none"></rect><text  id="v-1809" font-size="24px" xml:space="preserve" y="962" font-weight="normal" fill="#0f5eaa" text-anchor="start" pointer-events="visible" font-family="Open Sans" transform="matrix(1,0,0,1,15,0)"><tspan dy="0" >Web Novel Rating</tspan></text><text  id="v-1810" font-size="17px" xml:space="preserve" y="986" font-weight="normal" fill="#0f5eaa" text-anchor="start" pointer-events="visible" font-family="Open Sans" transform="matrix(1,0,0,1,15,0)"><tspan dy="0" >[Software System]</tspan></text><image  id="v-1811" pointer-events="visible"></image></g></g><!--z-index:20--><g   id="j_155"  transform="translate(2044,40)" style=""><g  id="v-1800" style="opacity: 1;"><rect  id="v-1801" rx="20" ry="20" stroke="#3c7fc0" stroke-width="2" pointer-events="visiblePainted" fill="#438dd5" width="450" height="300" style="fill: rgb(67, 141, 213); stroke: rgb(60, 127, 192);"></rect><text  id="v-1802" font-size="34" xml:space="preserve" y="0.8em" font-weight="bold" text-anchor="middle" pointer-events="visible" font-family="Open Sans" fill="#ffffff" transform="matrix(1,0,0,1,225,102.5)" style="fill: rgb(255, 255, 255);"><tspan dy="0" >rating-api</tspan></text><text  id="v-1803" font-size="17" xml:space="preserve" y="0.8em" text-anchor="middle" font-family="Open Sans" fill="#ffffff" transform="matrix(1,0,0,1,225,143.3)" style="fill: rgb(255, 255, 255);"><tspan dy="0" >[Container: Spring Boot, REST, API, Stateless]</tspan></text><text  id="v-1804" font-size="24" xml:space="preserve" y="0.8em" text-anchor="middle" font-family="Open Sans" fill="#ffffff" transform="matrix(1,0,0,1,225,173.7)" style="fill: rgb(255, 255, 255);"><tspan dy="0" >Allows users to rate works</tspan></text><g  id="v-1805" color="#ffffff" transform="matrix(1,0,0,1,222.5,268)" display="none" style="fill: rgb(255, 255, 255);"><g ></g><g ></g><g ></g><g ></g></g><image  id="v-1806"></image></g></g><!--z-index:21--><g   id="j_157"  transform="translate(1274,40)" style=""><g  id="v-1815" style="opacity: 1;"><path  d="M 30,0 a 30,150 0,0,1 0 300 a 30,150 0,0,1 0 -300 l 390,0 a 30,150 0,0,1 0 300 l -390,0" id="v-1816" stroke="#3c7fc0" stroke-width="2" pointer-events="visiblePainted" fill="#438dd5" style="fill: rgb(67, 141, 213); stroke: rgb(60, 127, 192);"></path><rect  id="v-1817" stroke-width="0" pointer-events="visiblePainted" fill="none" stroke="none" width="420" height="300" x="30" y="0"></rect><text  id="v-1818" font-size="34" xml:space="preserve" y="0.8em" font-weight="bold" text-anchor="middle" pointer-events="visible" font-family="Open Sans" fill="#ffffff" transform="matrix(1,0,0,1,240,102.5)" style="fill: rgb(255, 255, 255);"><tspan dy="0" >rating-command</tspan></text><text  id="v-1819" font-size="17" xml:space="preserve" y="0.8em" text-anchor="middle" font-family="Open Sans" fill="#ffffff" transform="matrix(1,0,0,1,240,143.3)" style="fill: rgb(255, 255, 255);"><tspan dy="0" >[Container: Kafka]</tspan></text><text  id="v-1820" font-size="24" xml:space="preserve" y="0.8em" text-anchor="middle" font-family="Open Sans" fill="#ffffff" transform="matrix(1,0,0,1,240,173.7)" style="fill: rgb(255, 255, 255);"><tspan dy="0" >Commands for adding a work rating</tspan></text><g  id="v-1821" font-weight="normal" text-anchor="middle" color="#ffffff" transform="matrix(1,0,0,1,237.5,268)" display="none" style="fill: rgb(255, 255, 255);"><g ></g><g ></g><g ></g><g ></g></g><image  id="v-1822"></image></g></g><!--z-index:22--><g   id="j_158"  transform="translate(1014,625)" style=""><g  id="v-1826" style="opacity: 1;"><rect  id="v-1827" rx="20" ry="20" stroke="#3c7fc0" stroke-width="2" pointer-events="visiblePainted" fill="#438dd5" width="450" height="300" style="fill: rgb(67, 141, 213); stroke: rgb(60, 127, 192);"></rect><text  id="v-1828" font-size="34" xml:space="preserve" y="0.8em" font-weight="bold" text-anchor="middle" pointer-events="visible" font-family="Open Sans" fill="#ffffff" transform="matrix(1,0,0,1,225,73.7)" style="fill: rgb(255, 255, 255);"><tspan dy="0" >rating-consumer</tspan></text><text  id="v-1829" font-size="17" xml:space="preserve" y="0.8em" text-anchor="middle" font-family="Open Sans" fill="#ffffff" transform="matrix(1,0,0,1,225,114.5)" style="fill: rgb(255, 255, 255);"><tspan dy="0" >[Container: Spring Boot]</tspan></text><text  id="v-1830" font-size="24" xml:space="preserve" y="0.8em" text-anchor="middle" font-family="Open Sans" fill="#ffffff" transform="matrix(1,0,0,1,225,144.9)" style="fill: rgb(255, 255, 255);"><tspan dy="0" >Transactionally and idempotently</tspan><tspan dy="1.2em" x="0" >updates the current average rating</tspan><tspan dy="1.2em" x="0" >of a web novel</tspan></text><g  id="v-1831" color="#ffffff" transform="matrix(1,0,0,1,222.5,268)" display="none" style="fill: rgb(255, 255, 255);"><g ></g><g ></g><g ></g><g ></g></g><image  id="v-1832"></image></g></g><!--z-index:23--><g   id="j_159"  transform="translate(659,35)" style=""><g  id="v-1836" style="opacity: 1;"><path  d="M 30,0 a 30,150 0,0,1 0 300 a 30,150 0,0,1 0 -300 l 390,0 a 30,150 0,0,1 0 300 l -390,0" id="v-1837" stroke="#3c7fc0" stroke-width="2" pointer-events="visiblePainted" fill="#438dd5" style="fill: rgb(67, 141, 213); stroke: rgb(60, 127, 192);"></path><rect  id="v-1838" stroke-width="0" pointer-events="visiblePainted" fill="none" stroke="none" width="420" height="300" x="30" y="0"></rect><text  id="v-1839" font-size="34" xml:space="preserve" y="0.8em" font-weight="bold" text-anchor="middle" pointer-events="visible" font-family="Open Sans" fill="#ffffff" transform="matrix(1,0,0,1,240,88.1)" style="fill: rgb(255, 255, 255);"><tspan dy="0" >rating-event</tspan></text><text  id="v-1840" font-size="17" xml:space="preserve" y="0.8em" text-anchor="middle" font-family="Open Sans" fill="#ffffff" transform="matrix(1,0,0,1,240,128.9)" style="fill: rgb(255, 255, 255);"><tspan dy="0" >[Container: Kafka]</tspan></text><text  id="v-1841" font-size="24" xml:space="preserve" y="0.8em" text-anchor="middle" font-family="Open Sans" fill="#ffffff" transform="matrix(1,0,0,1,240,159.3)" style="fill: rgb(255, 255, 255);"><tspan dy="0" >Events about changes in the</tspan><tspan dy="1.2em" x="0" >average rating of a work</tspan></text><g  id="v-1842" font-weight="normal" text-anchor="middle" color="#ffffff" transform="matrix(1,0,0,1,237.5,268)" display="none" style="fill: rgb(255, 255, 255);"><g ></g><g ></g><g ></g><g ></g></g><image  id="v-1843"></image></g></g><!--z-index:24--><g   id="j_160"  transform="translate(1839,625)" style=""><g  id="v-1847" style="opacity: 1;"><path  d="M 0,30 a 225,30 0,0,0 450 0 a 225,30 0,0,0 -450 0 l 0,240 a 225,30 0,0,0 450 0 l 0,-240" id="v-1848" stroke="#3c7fc0" stroke-width="2" pointer-events="visiblePainted" fill="#438dd5" style="fill: rgb(67, 141, 213); stroke: rgb(60, 127, 192);"></path><rect  id="v-1849" stroke-width="0" pointer-events="visiblePainted" fill="none" stroke="none" width="450" height="270" x="0" y="30"></rect><text  id="v-1850" font-size="34" xml:space="preserve" y="0.8em" font-weight="bold" text-anchor="middle" pointer-events="visible" font-family="Open Sans" fill="#ffffff" transform="matrix(1,0,0,1,225,110.6)" style="fill: rgb(255, 255, 255);"><tspan dy="0" >rating-redis</tspan></text><text  id="v-1851" font-size="17" xml:space="preserve" y="0.8em" text-anchor="middle" font-family="Open Sans" fill="#ffffff" transform="matrix(1,0,0,1,225,151.4)" style="fill: rgb(255, 255, 255);"><tspan dy="0" >[Container: Redis]</tspan></text><text  id="v-1852" font-size="24" xml:space="preserve" y="0.8em" text-anchor="middle" font-family="Open Sans" fill="#ffffff" transform="matrix(1,0,0,1,225,181.8)" style="fill: rgb(255, 255, 255);"><tspan dy="0" >• Stores rating counter and sum</tspan><tspan dy="1.2em" x="0" >• Stores idempotency keys</tspan></text><g  id="v-1853" font-weight="normal" text-anchor="middle" color="#ffffff" transform="matrix(1,0,0,1,222.5,268)" display="none" style="fill: rgb(255, 255, 255);"><g ></g><g ></g><g ></g><g ></g></g><image  id="v-1854"></image></g></g><!--z-index:25--><g   id="j_161"  transform="translate(49,630)" style=""><g  id="v-1861" style="opacity: 1;"><rect  id="v-1862" rx="20" ry="20" stroke="#0f5eaa" stroke-width="2" pointer-events="visiblePainted" fill="#1168bd" width="450" height="300" style="fill: rgb(17, 104, 189); stroke: rgb(15, 94, 170);"></rect><text  id="v-1863" font-size="34" xml:space="preserve" y="0.8em" font-weight="bold" text-anchor="middle" pointer-events="visible" font-family="Open Sans" fill="#ffffff" transform="matrix(1,0,0,1,225,88.1)" style="fill: rgb(255, 255, 255);"><tspan dy="0" >Web Novel Search</tspan></text><text  id="v-1864" font-size="17" xml:space="preserve" y="0.8em" text-anchor="middle" font-family="Open Sans" fill="#ffffff" transform="matrix(1,0,0,1,225,128.9)" style="fill: rgb(255, 255, 255);"><tspan dy="0" >[Software System]</tspan></text><text  id="v-1865" font-size="24" xml:space="preserve" y="0.8em" text-anchor="middle" font-family="Open Sans" fill="#ffffff" transform="matrix(1,0,0,1,225,159.3)" style="fill: rgb(255, 255, 255);"><tspan dy="0" >Search for web novels using various</tspan><tspan dy="1.2em" x="0" >filters: author, rating, title, etc.</tspan></text><g  id="v-1866" color="#ffffff" transform="matrix(1,0,0,1,222.5,268)" display="none" style="fill: rgb(255, 255, 255);"><g ></g><g ></g><g ></g><g ></g></g><image  id="v-1867"></image></g></g><!--z-index:26--><g   id="j_162" ><path  stroke="#707070" d="M 2044 190 L 1724 190" id="v-1880" stroke-width="2" stroke-dasharray="30 30" fill="none" style="opacity: 1;"></path><path  fill="black" stroke="black" d="M 0 0 0 0" transform="matrix(-1,1.2246467991473532e-16,-1.2246467991473532e-16,-1,2044,190)"></path><path  fill="#707070" stroke="#707070" d="M 20 0 L 0 10 L 20 20 z" id="v-1882" transform="matrix(1,0,0,1,1724,180)" style="opacity: 1;"></path><path  d="M 2044 190 L 1724 190" id="v-1881" fill="none" style="cursor: default;"></path><g ><g id="v-1874"  label-idx="0" cursor="move" transform="matrix(1,0,0,1,1884,190)" style="cursor: default; opacity: 1;"><rect joint-selector="rect" id="v-1877" fill="#ffffff" rx="3" ry="3" pointer-events="none" width="192.4404296875" height="90.05509948730469" transform="matrix(1,0,0,1,-96.2,-45)"></rect><text joint-selector="text" id="v-1876" font-size="24px" xml:space="preserve" y="0.8em" fill="#707070" text-anchor="middle" pointer-events="none" font-family="Open Sans" font-weight="normal" transform="matrix(1,0,0,1,0,-39.1)"><tspan dy="0" >Sends command</tspan><tspan dy="1.2em" x="0" >to add rating to a</tspan><tspan dy="1.2em" x="0" >work</tspan></text></g><g id="v-1875"  label-idx="1" cursor="move" transform="matrix(1,0,0,1,1874,245.1999969482422)" style="cursor: default; opacity: 1;"><rect joint-selector="rect" id="v-1879" fill="#ffffff" rx="3" ry="3"  width="0" height="0" transform="matrix(1,0,0,1,0,0)" display="none"></rect><text joint-selector="text" id="v-1878" fill="#000000" font-size="14" text-anchor="middle" pointer-events="none"></text></g></g><g  display="none"></g><g  id="v-1884" display="none"><g  id="v-1872"><path  end="source" d="M 26 0 L 0 13 L 26 26 z"></path></g><g  id="v-1873"><path  end="target" d="M 26 0 L 0 13 L 26 26 z"></path></g></g><g  id="v-1883" display="none"><g  id="v-1871" transform="translate(2004, 190) "><g  event="remove"><circle r="11"></circle><path transform="scale(.8) translate(-16, -16)" d="M24.778,21.419 19.276,15.917 24.777,10.415 21.949,7.585 16.447,13.087 10.945,7.585 8.117,10.415 13.618,15.917 8.116,21.419 10.946,24.248 16.447,18.746 21.948,24.248z"></path><title>Remove link.</title></g><g  event="link:options"><circle r="11" transform="translate(25)"></circle><path fill="white" transform="scale(.55) translate(29, -16)" d="M31.229,17.736c0.064-0.571,0.104-1.148,0.104-1.736s-0.04-1.166-0.104-1.737l-4.377-1.557c-0.218-0.716-0.504-1.401-0.851-2.05l1.993-4.192c-0.725-0.91-1.549-1.734-2.458-2.459l-4.193,1.994c-0.647-0.347-1.334-0.632-2.049-0.849l-1.558-4.378C17.165,0.708,16.588,0.667,16,0.667s-1.166,0.041-1.737,0.105L12.707,5.15c-0.716,0.217-1.401,0.502-2.05,0.849L6.464,4.005C5.554,4.73,4.73,5.554,4.005,6.464l1.994,4.192c-0.347,0.648-0.632,1.334-0.849,2.05l-4.378,1.557C0.708,14.834,0.667,15.412,0.667,16s0.041,1.165,0.105,1.736l4.378,1.558c0.217,0.715,0.502,1.401,0.849,2.049l-1.994,4.193c0.725,0.909,1.549,1.733,2.459,2.458l4.192-1.993c0.648,0.347,1.334,0.633,2.05,0.851l1.557,4.377c0.571,0.064,1.148,0.104,1.737,0.104c0.588,0,1.165-0.04,1.736-0.104l1.558-4.377c0.715-0.218,1.399-0.504,2.049-0.851l4.193,1.993c0.909-0.725,1.733-1.549,2.458-2.458l-1.993-4.193c0.347-0.647,0.633-1.334,0.851-2.049L31.229,17.736zM16,20.871c-2.69,0-4.872-2.182-4.872-4.871c0-2.69,2.182-4.872,4.872-4.872c2.689,0,4.871,2.182,4.871,4.872C20.871,18.689,18.689,20.871,16,20.871z"></path><title>Link options.</title></g></g></g></g><!--z-index:27--><g   id="j_163" ><path  stroke="#707070" d="M 2216 340 L 2117 625" id="v-1897" stroke-width="2" stroke-dasharray="30 30" fill="none" style="opacity: 1;"></path><path  fill="black" stroke="black" d="M 0 0 0 0" transform="matrix(-0.33073386206798194,0.9437240658590821,-0.9437240658590821,-0.33073386206798194,2216.43994140625,340)"></path><path  fill="#707070" stroke="#707070" d="M 20 0 L 0 10 L 20 20 z" id="v-1899" transform="matrix(0.330733862067982,-0.9437240658590821,0.9437240658590821,0.330733862067982,2107.1228523613545,621.692646178536)" style="opacity: 1;"></path><path  d="M 2216 340 L 2117 625" id="v-1898" fill="none" style="cursor: default;"></path><g ><g id="v-1891"  label-idx="0" cursor="move" transform="matrix(1,0,0,1,2166.5,482.5)" style="cursor: default; opacity: 1;"><rect joint-selector="rect" id="v-1894" fill="#ffffff" rx="3" ry="3" pointer-events="none" width="190.77188110351562" height="90.05509948730469" transform="matrix(1,0,0,1,-95.4,-45)"></rect><text joint-selector="text" id="v-1893" font-size="24px" xml:space="preserve" y="0.8em" fill="#707070" text-anchor="middle" pointer-events="none" font-family="Open Sans" font-weight="normal" transform="matrix(1,0,0,1,0,-39.1)"><tspan dy="0" >Gets average</tspan><tspan dy="1.2em" x="0" >rating using</tspan><tspan dy="1.2em" x="0" >counter and sum</tspan></text></g><g id="v-1892"  label-idx="1" cursor="move" transform="matrix(1,0,0,1,2156.5,537.7000122070312)" style="cursor: default; opacity: 1;"><rect joint-selector="rect" id="v-1896" fill="#ffffff" rx="3" ry="3"  width="0" height="0" transform="matrix(1,0,0,1,0,0)" display="none"></rect><text joint-selector="text" id="v-1895" fill="#000000" font-size="14" text-anchor="middle" pointer-events="none"></text></g></g><g  display="none"></g><g  id="v-1901" display="none"><g  id="v-1889"><path  end="source" d="M 26 0 L 0 13 L 26 26 z"></path></g><g  id="v-1890"><path  end="target" d="M 26 0 L 0 13 L 26 26 z"></path></g></g><g  id="v-1900" display="none"><g  id="v-1888" transform="translate(2202.874602749027, 377.78523451037654) "><g  event="remove"><circle r="11"></circle><path transform="scale(.8) translate(-16, -16)" d="M24.778,21.419 19.276,15.917 24.777,10.415 21.949,7.585 16.447,13.087 10.945,7.585 8.117,10.415 13.618,15.917 8.116,21.419 10.946,24.248 16.447,18.746 21.948,24.248z"></path><title>Remove link.</title></g><g  event="link:options"><circle r="11" transform="translate(25)"></circle><path fill="white" transform="scale(.55) translate(29, -16)" d="M31.229,17.736c0.064-0.571,0.104-1.148,0.104-1.736s-0.04-1.166-0.104-1.737l-4.377-1.557c-0.218-0.716-0.504-1.401-0.851-2.05l1.993-4.192c-0.725-0.91-1.549-1.734-2.458-2.459l-4.193,1.994c-0.647-0.347-1.334-0.632-2.049-0.849l-1.558-4.378C17.165,0.708,16.588,0.667,16,0.667s-1.166,0.041-1.737,0.105L12.707,5.15c-0.716,0.217-1.401,0.502-2.05,0.849L6.464,4.005C5.554,4.73,4.73,5.554,4.005,6.464l1.994,4.192c-0.347,0.648-0.632,1.334-0.849,2.05l-4.378,1.557C0.708,14.834,0.667,15.412,0.667,16s0.041,1.165,0.105,1.736l4.378,1.558c0.217,0.715,0.502,1.401,0.849,2.049l-1.994,4.193c0.725,0.909,1.549,1.733,2.459,2.458l4.192-1.993c0.648,0.347,1.334,0.633,2.05,0.851l1.557,4.377c0.571,0.064,1.148,0.104,1.737,0.104c0.588,0,1.165-0.04,1.736-0.104l1.558-4.377c0.715-0.218,1.399-0.504,2.049-0.851l4.193,1.993c0.909-0.725,1.733-1.549,2.458-2.458l-1.993-4.193c0.347-0.647,0.633-1.334,0.851-2.049L31.229,17.736zM16,20.871c-2.69,0-4.872-2.182-4.872-4.871c0-2.69,2.182-4.872,4.872-4.872c2.689,0,4.871,2.182,4.871,4.872C20.871,18.689,18.689,20.871,16,20.871z"></path><title>Link options.</title></g></g></g></g><!--z-index:28--><g   id="j_164" ><path  stroke="#707070" d="M 1306 625 L 1432 340" id="v-1914" stroke-width="2" stroke-dasharray="30 30" fill="none" style="opacity: 1;"></path><path  fill="black" stroke="black" d="M 0 0 0 0" transform="matrix(0.40612053563238415,-0.9138195174856277,0.9138195174856277,0.40612053563238415,1305.6700439453125,625)"></path><path  fill="#707070" stroke="#707070" d="M 20 0 L 0 10 L 20 20 z" id="v-1916" transform="matrix(-0.40612065731481006,0.913819463407399,-0.913819463407399,-0.40612065731481006,1441.468200035347,344.061195532824)" style="opacity: 1;"></path><path  d="M 1306 625 L 1432 340" id="v-1915" fill="none" style="cursor: default;"></path><g ><g id="v-1908"  label-idx="0" cursor="move" transform="matrix(1,0,0,1,1369,482.5)" style="cursor: default; opacity: 1;"><rect joint-selector="rect" id="v-1911" fill="#ffffff" rx="3" ry="3" pointer-events="none" width="192.4404296875" height="90.05509948730469" transform="matrix(1,0,0,1,-96.2,-45)"></rect><text joint-selector="text" id="v-1910" font-size="24px" xml:space="preserve" y="0.8em" fill="#707070" text-anchor="middle" pointer-events="none" font-family="Open Sans" font-weight="normal" transform="matrix(1,0,0,1,0,-39.1)"><tspan dy="0" >Reads command</tspan><tspan dy="1.2em" x="0" >to add rating to a</tspan><tspan dy="1.2em" x="0" >work</tspan></text></g><g id="v-1909"  label-idx="1" cursor="move" transform="matrix(1,0,0,1,1359,537.7000122070312)" style="cursor: default; opacity: 1;"><rect joint-selector="rect" id="v-1913" fill="#ffffff" rx="3" ry="3"  width="0" height="0" transform="matrix(1,0,0,1,0,0)" display="none"></rect><text joint-selector="text" id="v-1912" fill="#000000" font-size="14" text-anchor="middle" pointer-events="none"></text></g></g><g  display="none"></g><g  id="v-1918" display="none"><g  id="v-1906"><path  end="source" d="M 26 0 L 0 13 L 26 26 z"></path></g><g  id="v-1907"><path  end="target" d="M 26 0 L 0 13 L 26 26 z"></path></g></g><g  id="v-1917" display="none"><g  id="v-1905" transform="translate(1322.1740464186055, 588.4158473864873) "><g  event="remove"><circle r="11"></circle><path transform="scale(.8) translate(-16, -16)" d="M24.778,21.419 19.276,15.917 24.777,10.415 21.949,7.585 16.447,13.087 10.945,7.585 8.117,10.415 13.618,15.917 8.116,21.419 10.946,24.248 16.447,18.746 21.948,24.248z"></path><title>Remove link.</title></g><g  event="link:options"><circle r="11" transform="translate(25)"></circle><path fill="white" transform="scale(.55) translate(29, -16)" d="M31.229,17.736c0.064-0.571,0.104-1.148,0.104-1.736s-0.04-1.166-0.104-1.737l-4.377-1.557c-0.218-0.716-0.504-1.401-0.851-2.05l1.993-4.192c-0.725-0.91-1.549-1.734-2.458-2.459l-4.193,1.994c-0.647-0.347-1.334-0.632-2.049-0.849l-1.558-4.378C17.165,0.708,16.588,0.667,16,0.667s-1.166,0.041-1.737,0.105L12.707,5.15c-0.716,0.217-1.401,0.502-2.05,0.849L6.464,4.005C5.554,4.73,4.73,5.554,4.005,6.464l1.994,4.192c-0.347,0.648-0.632,1.334-0.849,2.05l-4.378,1.557C0.708,14.834,0.667,15.412,0.667,16s0.041,1.165,0.105,1.736l4.378,1.558c0.217,0.715,0.502,1.401,0.849,2.049l-1.994,4.193c0.725,0.909,1.549,1.733,2.459,2.458l4.192-1.993c0.648,0.347,1.334,0.633,2.05,0.851l1.557,4.377c0.571,0.064,1.148,0.104,1.737,0.104c0.588,0,1.165-0.04,1.736-0.104l1.558-4.377c0.715-0.218,1.399-0.504,2.049-0.851l4.193,1.993c0.909-0.725,1.733-1.549,2.458-2.458l-1.993-4.193c0.347-0.647,0.633-1.334,0.851-2.049L31.229,17.736zM16,20.871c-2.69,0-4.872-2.182-4.872-4.871c0-2.69,2.182-4.872,4.872-4.872c2.689,0,4.871,2.182,4.871,4.872C20.871,18.689,18.689,20.871,16,20.871z"></path><title>Link options.</title></g></g></g></g><!--z-index:29--><g   id="j_165" ><path  stroke="#707070" d="M 1464 775 L 1839 775" id="v-1931" stroke-width="2" stroke-dasharray="30 30" fill="none" style="opacity: 1;"></path><path  fill="black" stroke="black" d="M 0 0 0 0" transform="matrix(1,0,0,1,1464,775)"></path><path  fill="#707070" stroke="#707070" d="M 20 0 L 0 10 L 20 20 z" id="v-1933" transform="matrix(-1,1.2246467991473532e-16,-1.2246467991473532e-16,-1,1839.0000000000002,785)" style="opacity: 1;"></path><path  d="M 1464 775 L 1839 775" id="v-1932" fill="none" style="cursor: default;"></path><g ><g id="v-1925"  label-idx="0" cursor="move" transform="matrix(1,0,0,1,1651.5,775)" style="cursor: default; opacity: 1;"><rect joint-selector="rect" id="v-1928" fill="#ffffff" rx="3" ry="3" pointer-events="none" width="197.88778686523438" height="118.85509490966797" transform="matrix(1,0,0,1,-98.9,-59.4)"></rect><text joint-selector="text" id="v-1927" font-size="24px" xml:space="preserve" y="0.8em" fill="#707070" text-anchor="middle" pointer-events="none" font-family="Open Sans" font-weight="normal" transform="matrix(1,0,0,1,0,-53.5)"><tspan dy="0" >Transactionally</tspan><tspan dy="1.2em" x="0" >and idempotently</tspan><tspan dy="1.2em" x="0" >increases rating</tspan><tspan dy="1.2em" x="0" >counter and sum</tspan></text></g><g id="v-1926"  label-idx="1" cursor="move" transform="matrix(1,0,0,1,1641.5,844.5999755859375)" style="cursor: default; opacity: 1;"><rect joint-selector="rect" id="v-1930" fill="#ffffff" rx="3" ry="3"  width="0" height="0" transform="matrix(1,0,0,1,0,0)" display="none"></rect><text joint-selector="text" id="v-1929" fill="#000000" font-size="14" text-anchor="middle" pointer-events="none"></text></g></g><g  display="none"></g><g  id="v-1935" display="none"><g  id="v-1923"><path  end="source" d="M 26 0 L 0 13 L 26 26 z"></path></g><g  id="v-1924"><path  end="target" d="M 26 0 L 0 13 L 26 26 z"></path></g></g><g  id="v-1934" display="none"><g  id="v-1922" transform="translate(1504, 775) "><g  event="remove"><circle r="11"></circle><path transform="scale(.8) translate(-16, -16)" d="M24.778,21.419 19.276,15.917 24.777,10.415 21.949,7.585 16.447,13.087 10.945,7.585 8.117,10.415 13.618,15.917 8.116,21.419 10.946,24.248 16.447,18.746 21.948,24.248z"></path><title>Remove link.</title></g><g  event="link:options"><circle r="11" transform="translate(25)"></circle><path fill="white" transform="scale(.55) translate(29, -16)" d="M31.229,17.736c0.064-0.571,0.104-1.148,0.104-1.736s-0.04-1.166-0.104-1.737l-4.377-1.557c-0.218-0.716-0.504-1.401-0.851-2.05l1.993-4.192c-0.725-0.91-1.549-1.734-2.458-2.459l-4.193,1.994c-0.647-0.347-1.334-0.632-2.049-0.849l-1.558-4.378C17.165,0.708,16.588,0.667,16,0.667s-1.166,0.041-1.737,0.105L12.707,5.15c-0.716,0.217-1.401,0.502-2.05,0.849L6.464,4.005C5.554,4.73,4.73,5.554,4.005,6.464l1.994,4.192c-0.347,0.648-0.632,1.334-0.849,2.05l-4.378,1.557C0.708,14.834,0.667,15.412,0.667,16s0.041,1.165,0.105,1.736l4.378,1.558c0.217,0.715,0.502,1.401,0.849,2.049l-1.994,4.193c0.725,0.909,1.549,1.733,2.459,2.458l4.192-1.993c0.648,0.347,1.334,0.633,2.05,0.851l1.557,4.377c0.571,0.064,1.148,0.104,1.737,0.104c0.588,0,1.165-0.04,1.736-0.104l1.558-4.377c0.715-0.218,1.399-0.504,2.049-0.851l4.193,1.993c0.909-0.725,1.733-1.549,2.458-2.458l-1.993-4.193c0.347-0.647,0.633-1.334,0.851-2.049L31.229,17.736zM16,20.871c-2.69,0-4.872-2.182-4.872-4.871c0-2.69,2.182-4.872,4.872-4.872c2.689,0,4.871,2.182,4.871,4.872C20.871,18.689,18.689,20.871,16,20.871z"></path><title>Link options.</title></g></g></g></g><!--z-index:30--><g   id="j_166" ><path  stroke="#707070" d="M 1149 625 L 974 335" id="v-1948" stroke-width="2" stroke-dasharray="30 30" fill="none" style="opacity: 1;"></path><path  fill="black" stroke="black" d="M 0 0 0 0" transform="matrix(-0.5155814999630495,-0.8568405434477596,0.8568405434477596,-0.5155814999630495,1148.75,625)"></path><path  fill="#707070" stroke="#707070" d="M 20 0 L 0 10 L 20 20 z" id="v-1950" transform="matrix(0.5155816140582649,0.8568404747939224,-0.8568404747939224,0.5155816140582649,982.8184113612627,329.84416900405614)" style="opacity: 1;"></path><path  d="M 1149 625 L 974 335" id="v-1949" fill="none" style="cursor: default;"></path><g ><g id="v-1942"  label-idx="0" cursor="move" transform="matrix(1,0,0,1,1061.5,480)" style="cursor: default; opacity: 1;"><rect joint-selector="rect" id="v-1945" fill="#ffffff" rx="3" ry="3" pointer-events="none" width="179.72994995117188" height="90.05509948730469" transform="matrix(1,0,0,1,-89.9,-45)"></rect><text joint-selector="text" id="v-1944" font-size="24px" xml:space="preserve" y="0.8em" fill="#707070" text-anchor="middle" pointer-events="none" font-family="Open Sans" font-weight="normal" transform="matrix(1,0,0,1,0,-39.1)"><tspan dy="0" >Publishes event</tspan><tspan dy="1.2em" x="0" >about change in</tspan><tspan dy="1.2em" x="0" >average rating</tspan></text></g><g id="v-1943"  label-idx="1" cursor="move" transform="matrix(1,0,0,1,1051.5,535.2000122070312)" style="cursor: default; opacity: 1;"><rect joint-selector="rect" id="v-1947" fill="#ffffff" rx="3" ry="3"  width="0" height="0" transform="matrix(1,0,0,1,0,0)" display="none"></rect><text joint-selector="text" id="v-1946" fill="#000000" font-size="14" text-anchor="middle" pointer-events="none"></text></g></g><g  display="none"></g><g  id="v-1952" display="none"><g  id="v-1940"><path  end="source" d="M 26 0 L 0 13 L 26 26 z"></path></g><g  id="v-1941"><path  end="target" d="M 26 0 L 0 13 L 26 26 z"></path></g></g><g  id="v-1951" display="none"><g  id="v-1939" transform="translate(1128.3334012846233, 590.7524935573758) "><g  event="remove"><circle r="11"></circle><path transform="scale(.8) translate(-16, -16)" d="M24.778,21.419 19.276,15.917 24.777,10.415 21.949,7.585 16.447,13.087 10.945,7.585 8.117,10.415 13.618,15.917 8.116,21.419 10.946,24.248 16.447,18.746 21.948,24.248z"></path><title>Remove link.</title></g><g  event="link:options"><circle r="11" transform="translate(25)"></circle><path fill="white" transform="scale(.55) translate(29, -16)" d="M31.229,17.736c0.064-0.571,0.104-1.148,0.104-1.736s-0.04-1.166-0.104-1.737l-4.377-1.557c-0.218-0.716-0.504-1.401-0.851-2.05l1.993-4.192c-0.725-0.91-1.549-1.734-2.458-2.459l-4.193,1.994c-0.647-0.347-1.334-0.632-2.049-0.849l-1.558-4.378C17.165,0.708,16.588,0.667,16,0.667s-1.166,0.041-1.737,0.105L12.707,5.15c-0.716,0.217-1.401,0.502-2.05,0.849L6.464,4.005C5.554,4.73,4.73,5.554,4.005,6.464l1.994,4.192c-0.347,0.648-0.632,1.334-0.849,2.05l-4.378,1.557C0.708,14.834,0.667,15.412,0.667,16s0.041,1.165,0.105,1.736l4.378,1.558c0.217,0.715,0.502,1.401,0.849,2.049l-1.994,4.193c0.725,0.909,1.549,1.733,2.459,2.458l4.192-1.993c0.648,0.347,1.334,0.633,2.05,0.851l1.557,4.377c0.571,0.064,1.148,0.104,1.737,0.104c0.588,0,1.165-0.04,1.736-0.104l1.558-4.377c0.715-0.218,1.399-0.504,2.049-0.851l4.193,1.993c0.909-0.725,1.733-1.549,2.458-2.458l-1.993-4.193c0.347-0.647,0.633-1.334,0.851-2.049L31.229,17.736zM16,20.871c-2.69,0-4.872-2.182-4.872-4.871c0-2.69,2.182-4.872,4.872-4.872c2.689,0,4.871,2.182,4.871,4.872C20.871,18.689,18.689,20.871,16,20.871z"></path><title>Link options.</title></g></g></g></g><!--z-index:31--><g   id="j_167" ><path  stroke="#707070" d="M 428 630 L 730 335" id="v-1965" stroke-width="2" stroke-dasharray="30 30" fill="none" style="opacity: 1;"></path><path  fill="black" stroke="black" d="M 0 0 0 0" transform="matrix(0.715856914052894,-0.6982470040055078,0.6982470040055078,0.715856914052894,427.7799987792969,630)"></path><path  fill="#707070" stroke="#707070" d="M 20 0 L 0 10 L 20 20 z" id="v-1967" transform="matrix(-0.7158569140528944,0.6982470040055073,-0.6982470040055073,-0.7158569140528944,737.2024405477716,342.15858201063)" style="opacity: 1;"></path><path  d="M 428 630 L 730 335" id="v-1966" fill="none" style="cursor: default;"></path><g ><g id="v-1959"  label-idx="0" cursor="move" transform="matrix(1,0,0,1,579,482.5)" style="cursor: default; opacity: 1;"><rect joint-selector="rect" id="v-1962" fill="#ffffff" rx="3" ry="3" pointer-events="none" width="185.6189727783203" height="90.05509948730469" transform="matrix(1,0,0,1,-92.8,-45)"></rect><text joint-selector="text" id="v-1961" font-size="24px" xml:space="preserve" y="0.8em" fill="#707070" text-anchor="middle" pointer-events="none" font-family="Open Sans" font-weight="normal" transform="matrix(1,0,0,1,0,-39.1)"><tspan dy="0" >Reads events</tspan><tspan dy="1.2em" x="0" >about web novel</tspan><tspan dy="1.2em" x="0" >rating changes</tspan></text></g><g id="v-1960"  label-idx="1" cursor="move" transform="matrix(1,0,0,1,569,537.7000122070312)" style="cursor: default; opacity: 1;"><rect joint-selector="rect" id="v-1964" fill="#ffffff" rx="3" ry="3"  width="0" height="0" transform="matrix(1,0,0,1,0,0)" display="none"></rect><text joint-selector="text" id="v-1963" fill="#000000" font-size="14" text-anchor="middle" pointer-events="none"></text></g></g><g  display="none"></g><g  id="v-1969" display="none"><g  id="v-1957"><path  end="source" d="M 26 0 L 0 13 L 26 26 z"></path></g><g  id="v-1958"><path  end="target" d="M 26 0 L 0 13 L 26 26 z"></path></g></g><g  id="v-1968" display="none"><g  id="v-1956" transform="translate(456.6139457280906, 602.0492914245472) "><g  event="remove"><circle r="11"></circle><path transform="scale(.8) translate(-16, -16)" d="M24.778,21.419 19.276,15.917 24.777,10.415 21.949,7.585 16.447,13.087 10.945,7.585 8.117,10.415 13.618,15.917 8.116,21.419 10.946,24.248 16.447,18.746 21.948,24.248z"></path><title>Remove link.</title></g><g  event="link:options"><circle r="11" transform="translate(25)"></circle><path fill="white" transform="scale(.55) translate(29, -16)" d="M31.229,17.736c0.064-0.571,0.104-1.148,0.104-1.736s-0.04-1.166-0.104-1.737l-4.377-1.557c-0.218-0.716-0.504-1.401-0.851-2.05l1.993-4.192c-0.725-0.91-1.549-1.734-2.458-2.459l-4.193,1.994c-0.647-0.347-1.334-0.632-2.049-0.849l-1.558-4.378C17.165,0.708,16.588,0.667,16,0.667s-1.166,0.041-1.737,0.105L12.707,5.15c-0.716,0.217-1.401,0.502-2.05,0.849L6.464,4.005C5.554,4.73,4.73,5.554,4.005,6.464l1.994,4.192c-0.347,0.648-0.632,1.334-0.849,2.05l-4.378,1.557C0.708,14.834,0.667,15.412,0.667,16s0.041,1.165,0.105,1.736l4.378,1.558c0.217,0.715,0.502,1.401,0.849,2.049l-1.994,4.193c0.725,0.909,1.549,1.733,2.459,2.458l4.192-1.993c0.648,0.347,1.334,0.633,2.05,0.851l1.557,4.377c0.571,0.064,1.148,0.104,1.737,0.104c0.588,0,1.165-0.04,1.736-0.104l1.558-4.377c0.715-0.218,1.399-0.504,2.049-0.851l4.193,1.993c0.909-0.725,1.733-1.549,2.458-2.458l-1.993-4.193c0.347-0.647,0.633-1.334,0.851-2.049L31.229,17.736zM16,20.871c-2.69,0-4.872-2.182-4.872-4.871c0-2.69,2.182-4.872,4.872-4.872c2.689,0,4.871,2.182,4.871,4.872C20.871,18.689,18.689,20.871,16,20.871z"></path><title>Link options.</title></g></g></g></g><!--z-index:32--><!--z-index:33--><!--z-index:34--></g><g ></g><g ></g><g ></g></g></svg>