<svg xmlns="http://www.w3.org/2000/svg" xmlns:xlink="http://www.w3.org/1999/xlink" version="1.1" viewBox="0 0 2565 1101" style="background: #ffffff"><defs><style>@import url(https://fonts.googleapis.com/css?family=Open+Sans:400,700);</style></defs><defs joint-selector="defs"></defs><g joint-selector="layers"  transform="matrix(1,0,0,1,0,0)"><g ></g><g ><!--z-index:1--><!--z-index:2--><!--z-index:3--><!--z-index:4--><!--z-index:5--><!--z-index:6--><!--z-index:7--><!--z-index:8--><!--z-index:9--><!--z-index:10--><!--z-index:11--><!--z-index:12--><!--z-index:13--><!--z-index:14--><!--z-index:15--><!--z-index:16--><!--z-index:17--><g   id="j_190"  transform="translate(20,1064.6)"><g id="v-2277"><text  id="v-2278" font-size="22px" xml:space="preserve" y="0.8em" font-weight="normal" text-anchor="start" fill="#aaaaaa" pointer-events="none" display="block" font-family="Open Sans"><tspan dy="0"  display="block">Sunday, March 30, 2025 at 9:57 AM Moscow Standard Time</tspan></text></g></g><!--z-index:18--><g   id="j_189"  transform="translate(20,1021.3999999999999)"><g id="v-2275"><text  id="v-2276" font-size="36px" xml:space="preserve" y="0.8em" font-weight="normal" text-anchor="start" fill="#000000" pointer-events="none" display="block" font-family="Open Sans"><tspan dy="0"  display="block">[Container] Оценка веб-новелл</tspan></text></g></g><!--z-index:19--><g   id="j_192"  transform="translate(639,15)" style=""><g id="v-2292"><rect  id="v-2293" width="1875" height="1001" rx="0" ry="0" fill="#ffffff" stroke="#0f5eaa" stroke-width="1" stroke-dasharray="20,20" pointer-events="none"></rect><text  id="v-2294" font-size="24px" xml:space="preserve" y="962" font-weight="normal" fill="#0f5eaa" text-anchor="start" pointer-events="visible" font-family="Open Sans" transform="matrix(1,0,0,1,15,0)"><tspan dy="0" >Оценка веб-новелл</tspan></text><text  id="v-2295" font-size="17px" xml:space="preserve" y="986" font-weight="normal" fill="#0f5eaa" text-anchor="start" pointer-events="visible" font-family="Open Sans" transform="matrix(1,0,0,1,15,0)"><tspan dy="0" >[Software System]</tspan></text><image  id="v-2296" pointer-events="visible"></image></g></g><!--z-index:20--><g   id="j_191"  transform="translate(2044,40)" style=""><g  id="v-2285" style="opacity: 1;"><rect  id="v-2286" rx="20" ry="20" stroke="#3c7fc0" stroke-width="2" pointer-events="visiblePainted" fill="#438dd5" width="450" height="300" style="fill: rgb(67, 141, 213); stroke: rgb(60, 127, 192);"></rect><text  id="v-2287" font-size="34" xml:space="preserve" y="0.8em" font-weight="bold" text-anchor="middle" pointer-events="visible" font-family="Open Sans" fill="#ffffff" transform="matrix(1,0,0,1,225,88.1)" style="fill: rgb(255, 255, 255);"><tspan dy="0" >rating-api</tspan></text><text  id="v-2288" font-size="17" xml:space="preserve" y="0.8em" text-anchor="middle" font-family="Open Sans" fill="#ffffff" transform="matrix(1,0,0,1,225,128.9)" style="fill: rgb(255, 255, 255);"><tspan dy="0" >[Container: Spring Boot, REST, API, Stateless]</tspan></text><text  id="v-2289" font-size="24" xml:space="preserve" y="0.8em" text-anchor="middle" font-family="Open Sans" fill="#ffffff" transform="matrix(1,0,0,1,225,159.3)" style="fill: rgb(255, 255, 255);"><tspan dy="0" >Позволяет ставить оценки к</tspan><tspan dy="1.2em" x="0" >произведениям</tspan></text><g  id="v-2290" color="#ffffff" transform="matrix(1,0,0,1,222.5,268)" display="none" style="fill: rgb(255, 255, 255);"><g ></g><g ></g><g ></g><g ></g></g><image  id="v-2291"></image></g></g><!--z-index:21--><g   id="j_193"  transform="translate(1274,40)" style=""><g  id="v-2300" style="opacity: 1;"><path  d="M 30,0 a 30,150 0,0,1 0 300 a 30,150 0,0,1 0 -300 l 390,0 a 30,150 0,0,1 0 300 l -390,0" id="v-2301" stroke="#3c7fc0" stroke-width="2" pointer-events="visiblePainted" fill="#438dd5" style="fill: rgb(67, 141, 213); stroke: rgb(60, 127, 192);"></path><rect  id="v-2302" stroke-width="0" pointer-events="visiblePainted" fill="none" stroke="none" width="420" height="300" x="30" y="0"></rect><text  id="v-2303" font-size="34" xml:space="preserve" y="0.8em" font-weight="bold" text-anchor="middle" pointer-events="visible" font-family="Open Sans" fill="#ffffff" transform="matrix(1,0,0,1,240,88.1)" style="fill: rgb(255, 255, 255);"><tspan dy="0" >rating-command</tspan></text><text  id="v-2304" font-size="17" xml:space="preserve" y="0.8em" text-anchor="middle" font-family="Open Sans" fill="#ffffff" transform="matrix(1,0,0,1,240,128.9)" style="fill: rgb(255, 255, 255);"><tspan dy="0" >[Container: Kafka]</tspan></text><text  id="v-2305" font-size="24" xml:space="preserve" y="0.8em" text-anchor="middle" font-family="Open Sans" fill="#ffffff" transform="matrix(1,0,0,1,240,159.3)" style="fill: rgb(255, 255, 255);"><tspan dy="0" >Команды на добавление оценки</tspan><tspan dy="1.2em" x="0" >произведения</tspan></text><g  id="v-2306" font-weight="normal" text-anchor="middle" color="#ffffff" transform="matrix(1,0,0,1,237.5,268)" display="none" style="fill: rgb(255, 255, 255);"><g ></g><g ></g><g ></g><g ></g></g><image  id="v-2307"></image></g></g><!--z-index:22--><g   id="j_194"  transform="translate(1014,625)" style=""><g  id="v-2311" style="opacity: 1;"><rect  id="v-2312" rx="20" ry="20" stroke="#3c7fc0" stroke-width="2" pointer-events="visiblePainted" fill="#438dd5" width="450" height="300" style="fill: rgb(67, 141, 213); stroke: rgb(60, 127, 192);"></rect><text  id="v-2313" font-size="34" xml:space="preserve" y="0.8em" font-weight="bold" text-anchor="middle" pointer-events="visible" font-family="Open Sans" fill="#ffffff" transform="matrix(1,0,0,1,225,73.7)" style="fill: rgb(255, 255, 255);"><tspan dy="0" >rating-consumer</tspan></text><text  id="v-2314" font-size="17" xml:space="preserve" y="0.8em" text-anchor="middle" font-family="Open Sans" fill="#ffffff" transform="matrix(1,0,0,1,225,114.5)" style="fill: rgb(255, 255, 255);"><tspan dy="0" >[Container: Spring Boot]</tspan></text><text  id="v-2315" font-size="24" xml:space="preserve" y="0.8em" text-anchor="middle" font-family="Open Sans" fill="#ffffff" transform="matrix(1,0,0,1,225,144.9)" style="fill: rgb(255, 255, 255);"><tspan dy="0" >Транзакционно и идемпотентно</tspan><tspan dy="1.2em" x="0" >меняет текущую среднюю оценку</tspan><tspan dy="1.2em" x="0" >веб-новеллы</tspan></text><g  id="v-2316" color="#ffffff" transform="matrix(1,0,0,1,222.5,268)" display="none" style="fill: rgb(255, 255, 255);"><g ></g><g ></g><g ></g><g ></g></g><image  id="v-2317"></image></g></g><!--z-index:23--><g   id="j_195"  transform="translate(659,35)" style=""><g  id="v-2321" style="opacity: 1;"><path  d="M 30,0 a 30,150 0,0,1 0 300 a 30,150 0,0,1 0 -300 l 390,0 a 30,150 0,0,1 0 300 l -390,0" id="v-2322" stroke="#3c7fc0" stroke-width="2" pointer-events="visiblePainted" fill="#438dd5" style="fill: rgb(67, 141, 213); stroke: rgb(60, 127, 192);"></path><rect  id="v-2323" stroke-width="0" pointer-events="visiblePainted" fill="none" stroke="none" width="420" height="300" x="30" y="0"></rect><text  id="v-2324" font-size="34" xml:space="preserve" y="0.8em" font-weight="bold" text-anchor="middle" pointer-events="visible" font-family="Open Sans" fill="#ffffff" transform="matrix(1,0,0,1,240,88.1)" style="fill: rgb(255, 255, 255);"><tspan dy="0" >rating-event</tspan></text><text  id="v-2325" font-size="17" xml:space="preserve" y="0.8em" text-anchor="middle" font-family="Open Sans" fill="#ffffff" transform="matrix(1,0,0,1,240,128.9)" style="fill: rgb(255, 255, 255);"><tspan dy="0" >[Container: Kafka]</tspan></text><text  id="v-2326" font-size="24" xml:space="preserve" y="0.8em" text-anchor="middle" font-family="Open Sans" fill="#ffffff" transform="matrix(1,0,0,1,240,159.3)" style="fill: rgb(255, 255, 255);"><tspan dy="0" >События об изменении средней</tspan><tspan dy="1.2em" x="0" >оценки произведения</tspan></text><g  id="v-2327" font-weight="normal" text-anchor="middle" color="#ffffff" transform="matrix(1,0,0,1,237.5,268)" display="none" style="fill: rgb(255, 255, 255);"><g ></g><g ></g><g ></g><g ></g></g><image  id="v-2328"></image></g></g><!--z-index:24--><g   id="j_196"  transform="translate(1839,625)" style=""><g  id="v-2332" style="opacity: 1;"><path  d="M 0,30 a 225,30 0,0,0 450 0 a 225,30 0,0,0 -450 0 l 0,240 a 225,30 0,0,0 450 0 l 0,-240" id="v-2333" stroke="#3c7fc0" stroke-width="2" pointer-events="visiblePainted" fill="#438dd5" style="fill: rgb(67, 141, 213); stroke: rgb(60, 127, 192);"></path><rect  id="v-2334" stroke-width="0" pointer-events="visiblePainted" fill="none" stroke="none" width="450" height="270" x="0" y="30"></rect><text  id="v-2335" font-size="34" xml:space="preserve" y="0.8em" font-weight="bold" text-anchor="middle" pointer-events="visible" font-family="Open Sans" fill="#ffffff" transform="matrix(1,0,0,1,225,96.2)" style="fill: rgb(255, 255, 255);"><tspan dy="0" >rating-redis</tspan></text><text  id="v-2336" font-size="17" xml:space="preserve" y="0.8em" text-anchor="middle" font-family="Open Sans" fill="#ffffff" transform="matrix(1,0,0,1,225,137)" style="fill: rgb(255, 255, 255);"><tspan dy="0" >[Container: Redis]</tspan></text><text  id="v-2337" font-size="24" xml:space="preserve" y="0.8em" text-anchor="middle" font-family="Open Sans" fill="#ffffff" transform="matrix(1,0,0,1,225,167.4)" style="fill: rgb(255, 255, 255);"><tspan dy="0" >• Хранит счетчик и сумму</tspan><tspan dy="1.2em" x="0" >рейтинга</tspan><tspan dy="1.2em" x="0" >• Хранит ключи идемпотентности</tspan></text><g  id="v-2338" font-weight="normal" text-anchor="middle" color="#ffffff" transform="matrix(1,0,0,1,222.5,268)" display="none" style="fill: rgb(255, 255, 255);"><g ></g><g ></g><g ></g><g ></g></g><image  id="v-2339"></image></g></g><!--z-index:25--><g   id="j_197"  transform="translate(49,630)" style=""><g  id="v-2346" style="opacity: 1;"><rect  id="v-2347" rx="20" ry="20" stroke="#0f5eaa" stroke-width="2" pointer-events="visiblePainted" fill="#1168bd" width="450" height="300" style="fill: rgb(17, 104, 189); stroke: rgb(15, 94, 170);"></rect><text  id="v-2348" font-size="34" xml:space="preserve" y="0.8em" font-weight="bold" text-anchor="middle" pointer-events="visible" font-family="Open Sans" fill="#ffffff" transform="matrix(1,0,0,1,225,73.7)" style="fill: rgb(255, 255, 255);"><tspan dy="0" >Поиск веб-новелл</tspan></text><text  id="v-2349" font-size="17" xml:space="preserve" y="0.8em" text-anchor="middle" font-family="Open Sans" fill="#ffffff" transform="matrix(1,0,0,1,225,114.5)" style="fill: rgb(255, 255, 255);"><tspan dy="0" >[Software System]</tspan></text><text  id="v-2350" font-size="24" xml:space="preserve" y="0.8em" text-anchor="middle" font-family="Open Sans" fill="#ffffff" transform="matrix(1,0,0,1,225,144.9)" style="fill: rgb(255, 255, 255);"><tspan dy="0" >Поиск веб-новелл по различным</tspan><tspan dy="1.2em" x="0" >фильтрам: автор, рейтинг,</tspan><tspan dy="1.2em" x="0" >название и т.д.</tspan></text><g  id="v-2351" color="#ffffff" transform="matrix(1,0,0,1,222.5,268)" display="none" style="fill: rgb(255, 255, 255);"><g ></g><g ></g><g ></g><g ></g></g><image  id="v-2352"></image></g></g><!--z-index:26--><g   id="j_198" ><path  stroke="#707070" d="M 2044 190 L 1724 190" id="v-2365" stroke-width="2" stroke-dasharray="30 30" fill="none" style="opacity: 1;"></path><path  fill="black" stroke="black" d="M 0 0 0 0" transform="matrix(-0.9999999999999999,1.224646799147353e-16,-1.224646799147353e-16,-0.9999999999999999,2044,190)"></path><path  fill="#707070" stroke="#707070" d="M 20 0 L 0 10 L 20 20 z" id="v-2367" transform="matrix(0.9999999999999999,0,0,0.9999999999999999,1724,180)" style="opacity: 1;"></path><path  d="M 2044 190 L 1724 190" id="v-2366" fill="none" style="cursor: default;"></path><g ><g id="v-2359"  label-idx="0" cursor="move" transform="matrix(1,0,0,1,1884,190)" style="cursor: default; opacity: 1;"><rect joint-selector="rect" id="v-2362" fill="#ffffff" rx="3" ry="3" pointer-events="none" width="176.6304168701172" height="148.33637237548828" transform="matrix(1,0,0,1,-87.8,-74.2)"></rect><text joint-selector="text" id="v-2361" font-size="24px" xml:space="preserve" y="0.8em" fill="#707070" text-anchor="middle" pointer-events="none" font-family="Open Sans" font-weight="normal" transform="matrix(1,0,0,1,0,-67.6)"><tspan dy="0" >Отправляет</tspan><tspan dy="1.2em" x="0" >команду на</tspan><tspan dy="1.2em" x="0" >добавление</tspan><tspan dy="1.2em" x="0" >оценки</tspan><tspan dy="1.2em" x="0" >произведению</tspan></text></g><g id="v-2360"  label-idx="1" cursor="move" transform="matrix(1,0,0,1,1874,274)" style="cursor: default; opacity: 1;"><rect joint-selector="rect" id="v-2364" fill="#ffffff" rx="3" ry="3"  width="0" height="0" transform="matrix(1,0,0,1,0,0)" display="none"></rect><text joint-selector="text" id="v-2363" fill="#000000" font-size="14" text-anchor="middle" pointer-events="none"></text></g></g><g  display="none"></g><g  id="v-2369" display="none"><g  id="v-2357"><path  end="source" d="M 26 0 L 0 13 L 26 26 z"></path></g><g  id="v-2358"><path  end="target" d="M 26 0 L 0 13 L 26 26 z"></path></g></g><g  id="v-2368" display="none"><g  id="v-2356" transform="translate(2004, 190) "><g  event="remove"><circle r="11"></circle><path transform="scale(.8) translate(-16, -16)" d="M24.778,21.419 19.276,15.917 24.777,10.415 21.949,7.585 16.447,13.087 10.945,7.585 8.117,10.415 13.618,15.917 8.116,21.419 10.946,24.248 16.447,18.746 21.948,24.248z"></path><title>Remove link.</title></g><g  event="link:options"><circle r="11" transform="translate(25)"></circle><path fill="white" transform="scale(.55) translate(29, -16)" d="M31.229,17.736c0.064-0.571,0.104-1.148,0.104-1.736s-0.04-1.166-0.104-1.737l-4.377-1.557c-0.218-0.716-0.504-1.401-0.851-2.05l1.993-4.192c-0.725-0.91-1.549-1.734-2.458-2.459l-4.193,1.994c-0.647-0.347-1.334-0.632-2.049-0.849l-1.558-4.378C17.165,0.708,16.588,0.667,16,0.667s-1.166,0.041-1.737,0.105L12.707,5.15c-0.716,0.217-1.401,0.502-2.05,0.849L6.464,4.005C5.554,4.73,4.73,5.554,4.005,6.464l1.994,4.192c-0.347,0.648-0.632,1.334-0.849,2.05l-4.378,1.557C0.708,14.834,0.667,15.412,0.667,16s0.041,1.165,0.105,1.736l4.378,1.558c0.217,0.715,0.502,1.401,0.849,2.049l-1.994,4.193c0.725,0.909,1.549,1.733,2.459,2.458l4.192-1.993c0.648,0.347,1.334,0.633,2.05,0.851l1.557,4.377c0.571,0.064,1.148,0.104,1.737,0.104c0.588,0,1.165-0.04,1.736-0.104l1.558-4.377c0.715-0.218,1.399-0.504,2.049-0.851l4.193,1.993c0.909-0.725,1.733-1.549,2.458-2.458l-1.993-4.193c0.347-0.647,0.633-1.334,0.851-2.049L31.229,17.736zM16,20.871c-2.69,0-4.872-2.182-4.872-4.871c0-2.69,2.182-4.872,4.872-4.872c2.689,0,4.871,2.182,4.871,4.872C20.871,18.689,18.689,20.871,16,20.871z"></path><title>Link options.</title></g></g></g></g><!--z-index:27--><g   id="j_199" ><path  stroke="#707070" d="M 2216 340 L 2117 625" id="v-2382" stroke-width="2" stroke-dasharray="30 30" fill="none" style="opacity: 1;"></path><path  fill="black" stroke="black" d="M 0 0 0 0" transform="matrix(-0.3307338620679819,0.943724065859082,-0.943724065859082,-0.3307338620679819,2216.43994140625,340)"></path><path  fill="#707070" stroke="#707070" d="M 20 0 L 0 10 L 20 20 z" id="v-2384" transform="matrix(0.33073386206798194,-0.943724065859082,0.943724065859082,0.33073386206798194,2107.1228523613545,621.692646178536)" style="opacity: 1;"></path><path  d="M 2216 340 L 2117 625" id="v-2383" fill="none" style="cursor: default;"></path><g ><g id="v-2376"  label-idx="0" cursor="move" transform="matrix(1,0,0,1,2166.5,482.5)" style="cursor: default; opacity: 1;"><rect joint-selector="rect" id="v-2379" fill="#ffffff" rx="3" ry="3" pointer-events="none" width="198.60923767089844" height="148.33637237548828" transform="matrix(1,0,0,1,-98.6,-74.2)"></rect><text joint-selector="text" id="v-2378" font-size="24px" xml:space="preserve" y="0.8em" fill="#707070" text-anchor="middle" pointer-events="none" font-family="Open Sans" font-weight="normal" transform="matrix(1,0,0,1,0,-67.6)"><tspan dy="0" >Получает</tspan><tspan dy="1.2em" x="0" >среднюю оценку</tspan><tspan dy="1.2em" x="0" >произведения</tspan><tspan dy="1.2em" x="0" >по счетчику и</tspan><tspan dy="1.2em" x="0" >сумме рейтинга</tspan></text></g><g id="v-2377"  label-idx="1" cursor="move" transform="matrix(1,0,0,1,2156.5,566.5)" style="cursor: default; opacity: 1;"><rect joint-selector="rect" id="v-2381" fill="#ffffff" rx="3" ry="3"  width="0" height="0" transform="matrix(1,0,0,1,0,0)" display="none"></rect><text joint-selector="text" id="v-2380" fill="#000000" font-size="14" text-anchor="middle" pointer-events="none"></text></g></g><g  display="none"></g><g  id="v-2386" display="none"><g  id="v-2374"><path  end="source" d="M 26 0 L 0 13 L 26 26 z"></path></g><g  id="v-2375"><path  end="target" d="M 26 0 L 0 13 L 26 26 z"></path></g></g><g  id="v-2385" display="none"><g  id="v-2373" transform="translate(2202.874602749027, 377.78523451037654) "><g  event="remove"><circle r="11"></circle><path transform="scale(.8) translate(-16, -16)" d="M24.778,21.419 19.276,15.917 24.777,10.415 21.949,7.585 16.447,13.087 10.945,7.585 8.117,10.415 13.618,15.917 8.116,21.419 10.946,24.248 16.447,18.746 21.948,24.248z"></path><title>Remove link.</title></g><g  event="link:options"><circle r="11" transform="translate(25)"></circle><path fill="white" transform="scale(.55) translate(29, -16)" d="M31.229,17.736c0.064-0.571,0.104-1.148,0.104-1.736s-0.04-1.166-0.104-1.737l-4.377-1.557c-0.218-0.716-0.504-1.401-0.851-2.05l1.993-4.192c-0.725-0.91-1.549-1.734-2.458-2.459l-4.193,1.994c-0.647-0.347-1.334-0.632-2.049-0.849l-1.558-4.378C17.165,0.708,16.588,0.667,16,0.667s-1.166,0.041-1.737,0.105L12.707,5.15c-0.716,0.217-1.401,0.502-2.05,0.849L6.464,4.005C5.554,4.73,4.73,5.554,4.005,6.464l1.994,4.192c-0.347,0.648-0.632,1.334-0.849,2.05l-4.378,1.557C0.708,14.834,0.667,15.412,0.667,16s0.041,1.165,0.105,1.736l4.378,1.558c0.217,0.715,0.502,1.401,0.849,2.049l-1.994,4.193c0.725,0.909,1.549,1.733,2.459,2.458l4.192-1.993c0.648,0.347,1.334,0.633,2.05,0.851l1.557,4.377c0.571,0.064,1.148,0.104,1.737,0.104c0.588,0,1.165-0.04,1.736-0.104l1.558-4.377c0.715-0.218,1.399-0.504,2.049-0.851l4.193,1.993c0.909-0.725,1.733-1.549,2.458-2.458l-1.993-4.193c0.347-0.647,0.633-1.334,0.851-2.049L31.229,17.736zM16,20.871c-2.69,0-4.872-2.182-4.872-4.871c0-2.69,2.182-4.872,4.872-4.872c2.689,0,4.871,2.182,4.871,4.872C20.871,18.689,18.689,20.871,16,20.871z"></path><title>Link options.</title></g></g></g></g><!--z-index:28--><g   id="j_200" ><path  stroke="#707070" d="M 1306 625 L 1432 340" id="v-2399" stroke-width="2" stroke-dasharray="30 30" fill="none" style="opacity: 1;"></path><path  fill="black" stroke="black" d="M 0 0 0 0" transform="matrix(0.4061205356323841,-0.9138195174856276,0.9138195174856276,0.4061205356323841,1305.6700439453125,625)"></path><path  fill="#707070" stroke="#707070" d="M 20 0 L 0 10 L 20 20 z" id="v-2401" transform="matrix(-0.40612065731481,0.9138194634073988,-0.9138194634073988,-0.40612065731481,1441.468200035347,344.0611955328241)" style="opacity: 1;"></path><path  d="M 1306 625 L 1432 340" id="v-2400" fill="none" style="cursor: default;"></path><g ><g id="v-2393"  label-idx="0" cursor="move" transform="matrix(1,0,0,1,1369,482.5)" style="cursor: default; opacity: 1;"><rect joint-selector="rect" id="v-2396" fill="#ffffff" rx="3" ry="3" pointer-events="none" width="187.71560668945312" height="119.5363655090332" transform="matrix(1,0,0,1,-93.1,-59.8)"></rect><text joint-selector="text" id="v-2395" font-size="24px" xml:space="preserve" y="0.8em" fill="#707070" text-anchor="middle" pointer-events="none" font-family="Open Sans" font-weight="normal" transform="matrix(1,0,0,1,0,-53.2)"><tspan dy="0" >Читает команду</tspan><tspan dy="1.2em" x="0" >на добавление</tspan><tspan dy="1.2em" x="0" >оценки</tspan><tspan dy="1.2em" x="0" >произведению</tspan></text></g><g id="v-2394"  label-idx="1" cursor="move" transform="matrix(1,0,0,1,1359,552.0999755859375)" style="cursor: default; opacity: 1;"><rect joint-selector="rect" id="v-2398" fill="#ffffff" rx="3" ry="3"  width="0" height="0" transform="matrix(1,0,0,1,0,0)" display="none"></rect><text joint-selector="text" id="v-2397" fill="#000000" font-size="14" text-anchor="middle" pointer-events="none"></text></g></g><g  display="none"></g><g  id="v-2403" display="none"><g  id="v-2391"><path  end="source" d="M 26 0 L 0 13 L 26 26 z"></path></g><g  id="v-2392"><path  end="target" d="M 26 0 L 0 13 L 26 26 z"></path></g></g><g  id="v-2402" display="none"><g  id="v-2390" transform="translate(1322.1740464186055, 588.4158473864873) "><g  event="remove"><circle r="11"></circle><path transform="scale(.8) translate(-16, -16)" d="M24.778,21.419 19.276,15.917 24.777,10.415 21.949,7.585 16.447,13.087 10.945,7.585 8.117,10.415 13.618,15.917 8.116,21.419 10.946,24.248 16.447,18.746 21.948,24.248z"></path><title>Remove link.</title></g><g  event="link:options"><circle r="11" transform="translate(25)"></circle><path fill="white" transform="scale(.55) translate(29, -16)" d="M31.229,17.736c0.064-0.571,0.104-1.148,0.104-1.736s-0.04-1.166-0.104-1.737l-4.377-1.557c-0.218-0.716-0.504-1.401-0.851-2.05l1.993-4.192c-0.725-0.91-1.549-1.734-2.458-2.459l-4.193,1.994c-0.647-0.347-1.334-0.632-2.049-0.849l-1.558-4.378C17.165,0.708,16.588,0.667,16,0.667s-1.166,0.041-1.737,0.105L12.707,5.15c-0.716,0.217-1.401,0.502-2.05,0.849L6.464,4.005C5.554,4.73,4.73,5.554,4.005,6.464l1.994,4.192c-0.347,0.648-0.632,1.334-0.849,2.05l-4.378,1.557C0.708,14.834,0.667,15.412,0.667,16s0.041,1.165,0.105,1.736l4.378,1.558c0.217,0.715,0.502,1.401,0.849,2.049l-1.994,4.193c0.725,0.909,1.549,1.733,2.459,2.458l4.192-1.993c0.648,0.347,1.334,0.633,2.05,0.851l1.557,4.377c0.571,0.064,1.148,0.104,1.737,0.104c0.588,0,1.165-0.04,1.736-0.104l1.558-4.377c0.715-0.218,1.399-0.504,2.049-0.851l4.193,1.993c0.909-0.725,1.733-1.549,2.458-2.458l-1.993-4.193c0.347-0.647,0.633-1.334,0.851-2.049L31.229,17.736zM16,20.871c-2.69,0-4.872-2.182-4.872-4.871c0-2.69,2.182-4.872,4.872-4.872c2.689,0,4.871,2.182,4.871,4.872C20.871,18.689,18.689,20.871,16,20.871z"></path><title>Link options.</title></g></g></g></g><!--z-index:29--><g   id="j_201" ><path  stroke="#707070" d="M 1464 775 L 1839 775" id="v-2416" stroke-width="2" stroke-dasharray="30 30" fill="none" style="opacity: 1;"></path><path  fill="black" stroke="black" d="M 0 0 0 0" transform="matrix(0.9999999999999999,0,0,0.9999999999999999,1464,775)"></path><path  fill="#707070" stroke="#707070" d="M 20 0 L 0 10 L 20 20 z" id="v-2418" transform="matrix(-0.9999999999999999,1.224646799147353e-16,-1.224646799147353e-16,-0.9999999999999999,1839,785)" style="opacity: 1;"></path><path  d="M 1464 775 L 1839 775" id="v-2417" fill="none" style="cursor: default;"></path><g ><g id="v-2410"  label-idx="0" cursor="move" transform="matrix(1,0,0,1,1651.5,775)" style="cursor: default; opacity: 1;"><rect joint-selector="rect" id="v-2413" fill="#ffffff" rx="3" ry="3" pointer-events="none" width="193.07200622558594" height="148.33637237548828" transform="matrix(1,0,0,1,-95.9,-74.2)"></rect><text joint-selector="text" id="v-2412" font-size="24px" xml:space="preserve" y="0.8em" fill="#707070" text-anchor="middle" pointer-events="none" font-family="Open Sans" font-weight="normal" transform="matrix(1,0,0,1,0,-67.6)"><tspan dy="0" >Транзакционно</tspan><tspan dy="1.2em" x="0" >и идемпотентно</tspan><tspan dy="1.2em" x="0" >увеличивает</tspan><tspan dy="1.2em" x="0" >счетчик и сумму</tspan><tspan dy="1.2em" x="0" >рейтинга</tspan></text></g><g id="v-2411"  label-idx="1" cursor="move" transform="matrix(1,0,0,1,1641.5,859)" style="cursor: default; opacity: 1;"><rect joint-selector="rect" id="v-2415" fill="#ffffff" rx="3" ry="3"  width="0" height="0" transform="matrix(1,0,0,1,0,0)" display="none"></rect><text joint-selector="text" id="v-2414" fill="#000000" font-size="14" text-anchor="middle" pointer-events="none"></text></g></g><g  display="none"></g><g  id="v-2420" display="none"><g  id="v-2408"><path  end="source" d="M 26 0 L 0 13 L 26 26 z"></path></g><g  id="v-2409"><path  end="target" d="M 26 0 L 0 13 L 26 26 z"></path></g></g><g  id="v-2419" display="none"><g  id="v-2407" transform="translate(1504, 775) "><g  event="remove"><circle r="11"></circle><path transform="scale(.8) translate(-16, -16)" d="M24.778,21.419 19.276,15.917 24.777,10.415 21.949,7.585 16.447,13.087 10.945,7.585 8.117,10.415 13.618,15.917 8.116,21.419 10.946,24.248 16.447,18.746 21.948,24.248z"></path><title>Remove link.</title></g><g  event="link:options"><circle r="11" transform="translate(25)"></circle><path fill="white" transform="scale(.55) translate(29, -16)" d="M31.229,17.736c0.064-0.571,0.104-1.148,0.104-1.736s-0.04-1.166-0.104-1.737l-4.377-1.557c-0.218-0.716-0.504-1.401-0.851-2.05l1.993-4.192c-0.725-0.91-1.549-1.734-2.458-2.459l-4.193,1.994c-0.647-0.347-1.334-0.632-2.049-0.849l-1.558-4.378C17.165,0.708,16.588,0.667,16,0.667s-1.166,0.041-1.737,0.105L12.707,5.15c-0.716,0.217-1.401,0.502-2.05,0.849L6.464,4.005C5.554,4.73,4.73,5.554,4.005,6.464l1.994,4.192c-0.347,0.648-0.632,1.334-0.849,2.05l-4.378,1.557C0.708,14.834,0.667,15.412,0.667,16s0.041,1.165,0.105,1.736l4.378,1.558c0.217,0.715,0.502,1.401,0.849,2.049l-1.994,4.193c0.725,0.909,1.549,1.733,2.459,2.458l4.192-1.993c0.648,0.347,1.334,0.633,2.05,0.851l1.557,4.377c0.571,0.064,1.148,0.104,1.737,0.104c0.588,0,1.165-0.04,1.736-0.104l1.558-4.377c0.715-0.218,1.399-0.504,2.049-0.851l4.193,1.993c0.909-0.725,1.733-1.549,2.458-2.458l-1.993-4.193c0.347-0.647,0.633-1.334,0.851-2.049L31.229,17.736zM16,20.871c-2.69,0-4.872-2.182-4.872-4.871c0-2.69,2.182-4.872,4.872-4.872c2.689,0,4.871,2.182,4.871,4.872C20.871,18.689,18.689,20.871,16,20.871z"></path><title>Link options.</title></g></g></g></g><!--z-index:30--><g   id="j_202" ><path  stroke="#707070" d="M 1149 625 L 974 335" id="v-2433" stroke-width="2" stroke-dasharray="30 30" fill="none" style="opacity: 1;"></path><path  fill="black" stroke="black" d="M 0 0 0 0" transform="matrix(-0.5155814999630494,-0.8568405434477595,0.8568405434477595,-0.5155814999630494,1148.75,625)"></path><path  fill="#707070" stroke="#707070" d="M 20 0 L 0 10 L 20 20 z" id="v-2435" transform="matrix(0.5155816140582647,0.8568404747939223,-0.8568404747939223,0.5155816140582647,982.8184113612629,329.84416900405625)" style="opacity: 1;"></path><path  d="M 1149 625 L 974 335" id="v-2434" fill="none" style="cursor: default;"></path><g ><g id="v-2427"  label-idx="0" cursor="move" transform="matrix(1,0,0,1,1061.5,480)" style="cursor: default; opacity: 1;"><rect joint-selector="rect" id="v-2430" fill="#ffffff" rx="3" ry="3" pointer-events="none" width="189.30682373046875" height="148.33637237548828" transform="matrix(1,0,0,1,-94.7,-74.2)"></rect><text joint-selector="text" id="v-2429" font-size="24px" xml:space="preserve" y="0.8em" fill="#707070" text-anchor="middle" pointer-events="none" font-family="Open Sans" font-weight="normal" transform="matrix(1,0,0,1,0,-67.6)"><tspan dy="0" >Публикует</tspan><tspan dy="1.2em" x="0" >событие об</tspan><tspan dy="1.2em" x="0" >изменении</tspan><tspan dy="1.2em" x="0" >средней оценки</tspan><tspan dy="1.2em" x="0" >произведения</tspan></text></g><g id="v-2428"  label-idx="1" cursor="move" transform="matrix(1,0,0,1,1051.5,564)" style="cursor: default; opacity: 1;"><rect joint-selector="rect" id="v-2432" fill="#ffffff" rx="3" ry="3"  width="0" height="0" transform="matrix(1,0,0,1,0,0)" display="none"></rect><text joint-selector="text" id="v-2431" fill="#000000" font-size="14" text-anchor="middle" pointer-events="none"></text></g></g><g  display="none"></g><g  id="v-2437" display="none"><g  id="v-2425"><path  end="source" d="M 26 0 L 0 13 L 26 26 z"></path></g><g  id="v-2426"><path  end="target" d="M 26 0 L 0 13 L 26 26 z"></path></g></g><g  id="v-2436" display="none"><g  id="v-2424" transform="translate(1128.3334012846233, 590.7524935573758) "><g  event="remove"><circle r="11"></circle><path transform="scale(.8) translate(-16, -16)" d="M24.778,21.419 19.276,15.917 24.777,10.415 21.949,7.585 16.447,13.087 10.945,7.585 8.117,10.415 13.618,15.917 8.116,21.419 10.946,24.248 16.447,18.746 21.948,24.248z"></path><title>Remove link.</title></g><g  event="link:options"><circle r="11" transform="translate(25)"></circle><path fill="white" transform="scale(.55) translate(29, -16)" d="M31.229,17.736c0.064-0.571,0.104-1.148,0.104-1.736s-0.04-1.166-0.104-1.737l-4.377-1.557c-0.218-0.716-0.504-1.401-0.851-2.05l1.993-4.192c-0.725-0.91-1.549-1.734-2.458-2.459l-4.193,1.994c-0.647-0.347-1.334-0.632-2.049-0.849l-1.558-4.378C17.165,0.708,16.588,0.667,16,0.667s-1.166,0.041-1.737,0.105L12.707,5.15c-0.716,0.217-1.401,0.502-2.05,0.849L6.464,4.005C5.554,4.73,4.73,5.554,4.005,6.464l1.994,4.192c-0.347,0.648-0.632,1.334-0.849,2.05l-4.378,1.557C0.708,14.834,0.667,15.412,0.667,16s0.041,1.165,0.105,1.736l4.378,1.558c0.217,0.715,0.502,1.401,0.849,2.049l-1.994,4.193c0.725,0.909,1.549,1.733,2.459,2.458l4.192-1.993c0.648,0.347,1.334,0.633,2.05,0.851l1.557,4.377c0.571,0.064,1.148,0.104,1.737,0.104c0.588,0,1.165-0.04,1.736-0.104l1.558-4.377c0.715-0.218,1.399-0.504,2.049-0.851l4.193,1.993c0.909-0.725,1.733-1.549,2.458-2.458l-1.993-4.193c0.347-0.647,0.633-1.334,0.851-2.049L31.229,17.736zM16,20.871c-2.69,0-4.872-2.182-4.872-4.871c0-2.69,2.182-4.872,4.872-4.872c2.689,0,4.871,2.182,4.871,4.872C20.871,18.689,18.689,20.871,16,20.871z"></path><title>Link options.</title></g></g></g></g><!--z-index:31--><g   id="j_203" ><path  stroke="#707070" d="M 428 630 L 730 335" id="v-2450" stroke-width="2" stroke-dasharray="30 30" fill="none" style="opacity: 1;"></path><path  fill="black" stroke="black" d="M 0 0 0 0" transform="matrix(0.715856914052894,-0.6982470040055075,0.6982470040055075,0.715856914052894,427.7799987792969,630)"></path><path  fill="#707070" stroke="#707070" d="M 20 0 L 0 10 L 20 20 z" id="v-2452" transform="matrix(-0.7158569140528943,0.6982470040055072,-0.6982470040055072,-0.7158569140528943,737.2024405477715,342.15858201063014)" style="opacity: 1;"></path><path  d="M 428 630 L 730 335" id="v-2451" fill="none" style="cursor: default;"></path><g ><g id="v-2444"  label-idx="0" cursor="move" transform="matrix(1,0,0,1,579,482.5)" style="cursor: default; opacity: 1;"><rect joint-selector="rect" id="v-2447" fill="#ffffff" rx="3" ry="3" pointer-events="none" width="186.15771484375" height="119.5363655090332" transform="matrix(1,0,0,1,-93,-59.8)"></rect><text joint-selector="text" id="v-2446" font-size="24px" xml:space="preserve" y="0.8em" fill="#707070" text-anchor="middle" pointer-events="none" font-family="Open Sans" font-weight="normal" transform="matrix(1,0,0,1,0,-53.2)"><tspan dy="0" >Читает события</tspan><tspan dy="1.2em" x="0" >об изменении</tspan><tspan dy="1.2em" x="0" >рейтинга</tspan><tspan dy="1.2em" x="0" >веб-новелл</tspan></text></g><g id="v-2445"  label-idx="1" cursor="move" transform="matrix(1,0,0,1,569,552.0999755859375)" style="cursor: default; opacity: 1;"><rect joint-selector="rect" id="v-2449" fill="#ffffff" rx="3" ry="3"  width="0" height="0" transform="matrix(1,0,0,1,0,0)" display="none"></rect><text joint-selector="text" id="v-2448" fill="#000000" font-size="14" text-anchor="middle" pointer-events="none"></text></g></g><g  display="none"></g><g  id="v-2454" display="none"><g  id="v-2442"><path  end="source" d="M 26 0 L 0 13 L 26 26 z"></path></g><g  id="v-2443"><path  end="target" d="M 26 0 L 0 13 L 26 26 z"></path></g></g><g  id="v-2453" display="none"><g  id="v-2441" transform="translate(456.6139457280906, 602.0492914245472) "><g  event="remove"><circle r="11"></circle><path transform="scale(.8) translate(-16, -16)" d="M24.778,21.419 19.276,15.917 24.777,10.415 21.949,7.585 16.447,13.087 10.945,7.585 8.117,10.415 13.618,15.917 8.116,21.419 10.946,24.248 16.447,18.746 21.948,24.248z"></path><title>Remove link.</title></g><g  event="link:options"><circle r="11" transform="translate(25)"></circle><path fill="white" transform="scale(.55) translate(29, -16)" d="M31.229,17.736c0.064-0.571,0.104-1.148,0.104-1.736s-0.04-1.166-0.104-1.737l-4.377-1.557c-0.218-0.716-0.504-1.401-0.851-2.05l1.993-4.192c-0.725-0.91-1.549-1.734-2.458-2.459l-4.193,1.994c-0.647-0.347-1.334-0.632-2.049-0.849l-1.558-4.378C17.165,0.708,16.588,0.667,16,0.667s-1.166,0.041-1.737,0.105L12.707,5.15c-0.716,0.217-1.401,0.502-2.05,0.849L6.464,4.005C5.554,4.73,4.73,5.554,4.005,6.464l1.994,4.192c-0.347,0.648-0.632,1.334-0.849,2.05l-4.378,1.557C0.708,14.834,0.667,15.412,0.667,16s0.041,1.165,0.105,1.736l4.378,1.558c0.217,0.715,0.502,1.401,0.849,2.049l-1.994,4.193c0.725,0.909,1.549,1.733,2.459,2.458l4.192-1.993c0.648,0.347,1.334,0.633,2.05,0.851l1.557,4.377c0.571,0.064,1.148,0.104,1.737,0.104c0.588,0,1.165-0.04,1.736-0.104l1.558-4.377c0.715-0.218,1.399-0.504,2.049-0.851l4.193,1.993c0.909-0.725,1.733-1.549,2.458-2.458l-1.993-4.193c0.347-0.647,0.633-1.334,0.851-2.049L31.229,17.736zM16,20.871c-2.69,0-4.872-2.182-4.872-4.871c0-2.69,2.182-4.872,4.872-4.872c2.689,0,4.871,2.182,4.871,4.872C20.871,18.689,18.689,20.871,16,20.871z"></path><title>Link options.</title></g></g></g></g><!--z-index:32--><!--z-index:33--><!--z-index:34--></g><g ></g><g ></g><g ></g></g></svg>