<svg xmlns="http://www.w3.org/2000/svg" xmlns:xlink="http://www.w3.org/1999/xlink" version="1.1" viewBox="0 0 2300 1521" style="background: #ffffff"><defs><style>@import url(https://fonts.googleapis.com/css?family=Open+Sans:400,700);</style></defs><defs joint-selector="defs"></defs><g joint-selector="layers"  transform="matrix(1,0,0,1,0,0)"><g ></g><g ><!--z-index:1--><!--z-index:2--><!--z-index:3--><!--z-index:4--><!--z-index:5--><!--z-index:6--><!--z-index:7--><!--z-index:8--><!--z-index:9--><!--z-index:10--><!--z-index:11--><!--z-index:12--><!--z-index:13--><!--z-index:14--><!--z-index:15--><!--z-index:16--><!--z-index:17--><!--z-index:18--><g   id="j_298"  transform="translate(20,1484.6)"><g id="v-3599"><text  id="v-3600" font-size="22px" xml:space="preserve" y="0.8em" font-weight="normal" text-anchor="start" fill="#aaaaaa" pointer-events="none" display="block" font-family="Open Sans"><tspan dy="0" >Sunday, March 30, 2025 at 5:40 AM Moscow Standard Time</tspan></text></g></g><!--z-index:19--><g   id="j_297"  transform="translate(20,1441.3999999999999)"><g id="v-3597"><text  id="v-3598" font-size="36px" xml:space="preserve" y="0.8em" font-weight="normal" text-anchor="start" fill="#000000" pointer-events="none" display="block" font-family="Open Sans"><tspan dy="0" >[Container] Шлюз API</tspan></text></g></g><!--z-index:20--><g   id="j_299"  transform="translate(229,165)" style=""><g  id="v-3604" style="opacity: 1;"><rect  x="0" y="160" width="400" height="240" rx="70" id="v-3606" stroke="#073b6f" stroke-width="2" pointer-events="visiblePainted" fill="#08427b" style="fill: rgb(8, 66, 123); stroke: rgb(7, 59, 111);"></rect><circle  cx="200" cy="88.88888888888889" r="88.88888888888889" id="v-3605" stroke="#073b6f" stroke-width="2" pointer-events="visiblePainted" fill="#08427b" style="fill: rgb(8, 66, 123); stroke: rgb(7, 59, 111);"></circle><line  x1="80" y1="266.6666666666667" x2="80" y2="400" id="v-3612" stroke="#073b6f" stroke-width="2" style="stroke: rgb(7, 59, 111);"></line><line  x1="320" y1="266.6666666666667" x2="320" y2="400" id="v-3613" stroke="#073b6f" stroke-width="2" style="stroke: rgb(7, 59, 111);"></line><text  id="v-3607" font-size="34" xml:space="preserve" y="0.8em" font-weight="bold" text-anchor="middle" pointer-events="visible" font-family="Open Sans" fill="#ffffff" transform="matrix(1,0,0,1,200,218.1)" style="fill: rgb(255, 255, 255);"><tspan dy="0" >Пользователь</tspan></text><text  id="v-3608" font-size="17" xml:space="preserve" y="0.8em" text-anchor="middle" font-family="Open Sans" fill="#ffffff" transform="matrix(1,0,0,1,200,258.9)" style="fill: rgb(255, 255, 255);"><tspan dy="0" >[Person]</tspan></text><text  id="v-3609" font-size="24" xml:space="preserve" y="0.8em" text-anchor="middle" font-family="Open Sans" fill="#ffffff" transform="matrix(1,0,0,1,200,289.3)" style="fill: rgb(255, 255, 255);"><tspan dy="0" >Конечный пользователь</tspan><tspan dy="1.2em" x="0" >системы</tspan></text><g  id="v-3610" font-weight="normal" text-anchor="middle" color="#ffffff" transform="matrix(1,0,0,1,197.5,368)" display="none" style="fill: rgb(255, 255, 255);"><g ></g><g ></g><g ></g><g ></g></g><image  id="v-3611"></image></g></g><!--z-index:21--><g   id="j_301"  transform="translate(199,875)" style=""><g id="v-3627"><rect  id="v-3628" width="1165" height="411" rx="0" ry="0" fill="#ffffff" stroke="#0f5eaa" stroke-width="1" stroke-dasharray="20,20" pointer-events="none"></rect><text  id="v-3629" font-size="24px" xml:space="preserve" y="372" font-weight="normal" fill="#0f5eaa" text-anchor="start" pointer-events="visible" font-family="Open Sans" transform="matrix(1,0,0,1,15,0)"><tspan dy="0" >Шлюз API</tspan></text><text  id="v-3630" font-size="17px" xml:space="preserve" y="396" font-weight="normal" fill="#0f5eaa" text-anchor="start" pointer-events="visible" font-family="Open Sans" transform="matrix(1,0,0,1,15,0)"><tspan dy="0" >[Software System]</tspan></text><image  id="v-3631" pointer-events="visible"></image></g></g><!--z-index:22--><g   id="j_300"  transform="translate(894,895)" style=""><g  id="v-3620" style="opacity: 1;"><rect  id="v-3621" rx="20" ry="20" stroke="#3c7fc0" stroke-width="2" pointer-events="visiblePainted" fill="#438dd5" width="450" height="300" style="fill: rgb(67, 141, 213); stroke: rgb(60, 127, 192);"></rect><text  id="v-3622" font-size="34" xml:space="preserve" y="0.8em" font-weight="bold" text-anchor="middle" pointer-events="visible" font-family="Open Sans" fill="#ffffff" transform="matrix(1,0,0,1,225,34.7)" style="fill: rgb(255, 255, 255);"><tspan dy="0" >gateway-api</tspan></text><text  id="v-3623" font-size="17" xml:space="preserve" y="0.8em" text-anchor="middle" font-family="Open Sans" fill="#ffffff" transform="matrix(1,0,0,1,225,75.5)" style="fill: rgb(255, 255, 255);"><tspan dy="0" >[Container: Spring Cloud API Gateway, REST, API,</tspan><tspan dy="1.2em" x="0" >Stateless, WebFlux]</tspan></text><text  id="v-3624" font-size="24" xml:space="preserve" y="0.8em" text-anchor="middle" font-family="Open Sans" fill="#ffffff" transform="matrix(1,0,0,1,225,126.3)" style="fill: rgb(255, 255, 255);"><tspan dy="0" >• Маршрутизация трафика</tspan><tspan dy="1.2em" x="0" >• Проверка JWT</tspan><tspan dy="1.2em" x="0" >• Resilience (Circuit Breaker, Rate</tspan><tspan dy="1.2em" x="0" >Limiter, e.t.c.)</tspan><tspan dy="1.2em" x="0" >• Трассировка запросов</tspan></text><g  id="v-3625" color="#ffffff" transform="matrix(1,0,0,1,222.5,268)" display="none" style="fill: rgb(255, 255, 255);"><g ></g><g ></g><g ></g><g ></g></g><image  id="v-3626"></image></g></g><!--z-index:23--><g   id="j_302"  transform="translate(219,895)" style=""><g  id="v-3635" style="opacity: 1;"><path  d="M 0,30 a 225,30 0,0,0 450 0 a 225,30 0,0,0 -450 0 l 0,240 a 225,30 0,0,0 450 0 l 0,-240" id="v-3636" stroke="#3c7fc0" stroke-width="2" pointer-events="visiblePainted" fill="#438dd5" style="fill: rgb(67, 141, 213); stroke: rgb(60, 127, 192);"></path><rect  id="v-3637" stroke-width="0" pointer-events="visiblePainted" fill="none" stroke="none" width="450" height="270" x="0" y="30"></rect><text  id="v-3638" font-size="34" xml:space="preserve" y="0.8em" font-weight="bold" text-anchor="middle" pointer-events="visible" font-family="Open Sans" fill="#ffffff" transform="matrix(1,0,0,1,225,125)" style="fill: rgb(255, 255, 255);"><tspan dy="0" >gateway-redis</tspan></text><text  id="v-3639" font-size="17" xml:space="preserve" y="0.8em" text-anchor="middle" font-family="Open Sans" fill="#ffffff" transform="matrix(1,0,0,1,225,165.8)" style="fill: rgb(255, 255, 255);"><tspan dy="0" >[Container: Redis]</tspan></text><text  id="v-3640" font-size="24" xml:space="preserve" y="0.8em" text-anchor="middle" font-family="Open Sans" fill="#ffffff" transform="matrix(1,0,0,1,225,196.2)" style="fill: rgb(255, 255, 255);"><tspan dy="0" >Хранит состояние Rate Limiter</tspan></text><g  id="v-3641" font-weight="normal" text-anchor="middle" color="#ffffff" transform="matrix(1,0,0,1,222.5,268)" display="none" style="fill: rgb(255, 255, 255);"><g ></g><g ></g><g ></g><g ></g></g><image  id="v-3642"></image></g></g><!--z-index:24--><g   id="j_303"  transform="translate(889,260)" style=""><g  id="v-3649" style="opacity: 1;"><rect  id="v-3650" rx="20" ry="20" stroke="#0f5eaa" stroke-width="2" pointer-events="visiblePainted" fill="#1168bd" width="450" height="300" style="fill: rgb(17, 104, 189); stroke: rgb(15, 94, 170);"></rect><text  id="v-3651" font-size="34" xml:space="preserve" y="0.8em" font-weight="bold" text-anchor="middle" pointer-events="visible" font-family="Open Sans" fill="#ffffff" transform="matrix(1,0,0,1,225,53.3)" style="fill: rgb(255, 255, 255);"><tspan dy="0" >Управление</tspan><tspan dy="1.2em" x="0" >пользователями</tspan></text><text  id="v-3652" font-size="17" xml:space="preserve" y="0.8em" text-anchor="middle" font-family="Open Sans" fill="#ffffff" transform="matrix(1,0,0,1,225,134.9)" style="fill: rgb(255, 255, 255);"><tspan dy="0" >[Software System]</tspan></text><text  id="v-3653" font-size="24" xml:space="preserve" y="0.8em" text-anchor="middle" font-family="Open Sans" fill="#ffffff" transform="matrix(1,0,0,1,225,165.3)" style="fill: rgb(255, 255, 255);"><tspan dy="0" >• Регистрация пользователей</tspan><tspan dy="1.2em" x="0" >• Выдача JWT токенов</tspan><tspan dy="1.2em" x="0" >• Управление профилями</tspan></text><g  id="v-3654" color="#ffffff" transform="matrix(1,0,0,1,222.5,268)" display="none" style="fill: rgb(255, 255, 255);"><g ></g><g ></g><g ></g><g ></g></g><image  id="v-3655"></image></g></g><!--z-index:25--><g   id="j_304"  transform="translate(1649,985)" style=""><g  id="v-3662" style="opacity: 1;"><rect  id="v-3663" rx="20" ry="20" stroke="#0f5eaa" stroke-width="2" pointer-events="visiblePainted" fill="#1168bd" width="450" height="300" style="fill: rgb(17, 104, 189); stroke: rgb(15, 94, 170);"></rect><text  id="v-3664" font-size="34" xml:space="preserve" y="0.8em" font-weight="bold" text-anchor="middle" pointer-events="visible" font-family="Open Sans" fill="#ffffff" transform="matrix(1,0,0,1,225,53.3)" style="fill: rgb(255, 255, 255);"><tspan dy="0" >Управление контентом</tspan><tspan dy="1.2em" x="0" >веб-новелл</tspan></text><text  id="v-3665" font-size="17" xml:space="preserve" y="0.8em" text-anchor="middle" font-family="Open Sans" fill="#ffffff" transform="matrix(1,0,0,1,225,134.9)" style="fill: rgb(255, 255, 255);"><tspan dy="0" >[Software System]</tspan></text><text  id="v-3666" font-size="24" xml:space="preserve" y="0.8em" text-anchor="middle" font-family="Open Sans" fill="#ffffff" transform="matrix(1,0,0,1,225,165.3)" style="fill: rgb(255, 255, 255);"><tspan dy="0" >• Загрузка и редактирование</tspan><tspan dy="1.2em" x="0" >произведений</tspan><tspan dy="1.2em" x="0" >• Структурирование по главам</tspan></text><g  id="v-3667" color="#ffffff" transform="matrix(1,0,0,1,222.5,268)" display="none" style="fill: rgb(255, 255, 255);"><g ></g><g ></g><g ></g><g ></g></g><image  id="v-3668"></image></g></g><!--z-index:26--><g   id="j_305"  transform="translate(1649,620)" style=""><g  id="v-3675" style="opacity: 1;"><rect  id="v-3676" rx="20" ry="20" stroke="#0f5eaa" stroke-width="2" pointer-events="visiblePainted" fill="#1168bd" width="450" height="300" style="fill: rgb(17, 104, 189); stroke: rgb(15, 94, 170);"></rect><text  id="v-3677" font-size="34" xml:space="preserve" y="0.8em" font-weight="bold" text-anchor="middle" pointer-events="visible" font-family="Open Sans" fill="#ffffff" transform="matrix(1,0,0,1,225,73.7)" style="fill: rgb(255, 255, 255);"><tspan dy="0" >Поиск веб-новелл</tspan></text><text  id="v-3678" font-size="17" xml:space="preserve" y="0.8em" text-anchor="middle" font-family="Open Sans" fill="#ffffff" transform="matrix(1,0,0,1,225,114.5)" style="fill: rgb(255, 255, 255);"><tspan dy="0" >[Software System]</tspan></text><text  id="v-3679" font-size="24" xml:space="preserve" y="0.8em" text-anchor="middle" font-family="Open Sans" fill="#ffffff" transform="matrix(1,0,0,1,225,144.9)" style="fill: rgb(255, 255, 255);"><tspan dy="0" >Поиск веб-новелл по различным</tspan><tspan dy="1.2em" x="0" >фильтрам: автор, рейтинг,</tspan><tspan dy="1.2em" x="0" >название и т.д.</tspan></text><g  id="v-3680" color="#ffffff" transform="matrix(1,0,0,1,222.5,268)" display="none" style="fill: rgb(255, 255, 255);"><g ></g><g ></g><g ></g><g ></g></g><image  id="v-3681"></image></g></g><!--z-index:27--><g   id="j_306"  transform="translate(1649,260)" style=""><g  id="v-3688" style="opacity: 1;"><rect  id="v-3689" rx="20" ry="20" stroke="#0f5eaa" stroke-width="2" pointer-events="visiblePainted" fill="#1168bd" width="450" height="300" style="fill: rgb(17, 104, 189); stroke: rgb(15, 94, 170);"></rect><text  id="v-3690" font-size="34" xml:space="preserve" y="0.8em" font-weight="bold" text-anchor="middle" pointer-events="visible" font-family="Open Sans" fill="#ffffff" transform="matrix(1,0,0,1,225,88.1)" style="fill: rgb(255, 255, 255);"><tspan dy="0" >Оценка веб-новелл</tspan></text><text  id="v-3691" font-size="17" xml:space="preserve" y="0.8em" text-anchor="middle" font-family="Open Sans" fill="#ffffff" transform="matrix(1,0,0,1,225,128.9)" style="fill: rgb(255, 255, 255);"><tspan dy="0" >[Software System]</tspan></text><text  id="v-3692" font-size="24" xml:space="preserve" y="0.8em" text-anchor="middle" font-family="Open Sans" fill="#ffffff" transform="matrix(1,0,0,1,225,159.3)" style="fill: rgb(255, 255, 255);"><tspan dy="0" >Позволяет ставить оценки к</tspan><tspan dy="1.2em" x="0" >произведениям</tspan></text><g  id="v-3693" color="#ffffff" transform="matrix(1,0,0,1,222.5,268)" display="none" style="fill: rgb(255, 255, 255);"><g ></g><g ></g><g ></g><g ></g></g><image  id="v-3694"></image></g></g><!--z-index:28--><g   id="j_307" ><path  stroke="#707070" d="M 629 562 L 967 895" id="v-3704" stroke-width="2" stroke-dasharray="30 30" fill="none" style="opacity: 1;"></path><path  fill="black" stroke="black" d="M 0 0 0 0" transform="matrix(0.7122433651268862,0.7019326098940902,-0.7019326098940902,0.7122433651268862,629,562.0999755859375)"></path><path  fill="#707070" stroke="#707070" d="M 20 0 L 0 10 L 20 20 z" id="v-3706" transform="matrix(-0.7122434118608751,-0.701932562473618,0.701932562473618,-0.7122434118608751,959.7706499977788,902.1224115988136)" style="opacity: 1;"></path><path  d="M 629 562 L 967 895" id="v-3705" fill="none" style="cursor: default;"></path><g ><g id="v-3698"  label-idx="0" cursor="move" transform="matrix(1,0,0,1,798,728.5)" style="cursor: default; opacity: 1;"><rect joint-selector="rect" id="v-3701" fill="#ffffff" rx="3" ry="3" pointer-events="none" width="0" height="0" transform="matrix(1,0,0,1,0,0)"></rect><text joint-selector="text" id="v-3700" font-size="24px" xml:space="preserve" display="none" y="0.8em" fill="#707070" text-anchor="middle" pointer-events="none" font-family="Open Sans" font-weight="normal"><tspan dy="0" style="fill-opacity: 0; stroke-opacity: 0;" >-</tspan></text></g><g id="v-3699"  label-idx="1" cursor="move" transform="matrix(1,0,0,1,788,740.5)" style="cursor: default; opacity: 1;"><rect joint-selector="rect" id="v-3703" fill="#ffffff" rx="3" ry="3"  width="0" height="0" transform="matrix(1,0,0,1,0,0)" display="none"></rect><text joint-selector="text" id="v-3702" fill="#000000" font-size="14" text-anchor="middle" pointer-events="none"></text></g></g><g  display="none"></g><g  id="v-3708" display="none"><g  id="v-3696"><path  end="source" d="M 26 0 L 0 13 L 26 26 z"></path></g><g  id="v-3697"><path  end="target" d="M 26 0 L 0 13 L 26 26 z"></path></g></g><g  id="v-3707" display="none"><g  id="v-3695" transform="translate(657.4942422562132, 590.0727297968017) "><g  event="remove"><circle r="11"></circle><path transform="scale(.8) translate(-16, -16)" d="M24.778,21.419 19.276,15.917 24.777,10.415 21.949,7.585 16.447,13.087 10.945,7.585 8.117,10.415 13.618,15.917 8.116,21.419 10.946,24.248 16.447,18.746 21.948,24.248z"></path><title>Remove link.</title></g><g  event="link:options"><circle r="11" transform="translate(25)"></circle><path fill="white" transform="scale(.55) translate(29, -16)" d="M31.229,17.736c0.064-0.571,0.104-1.148,0.104-1.736s-0.04-1.166-0.104-1.737l-4.377-1.557c-0.218-0.716-0.504-1.401-0.851-2.05l1.993-4.192c-0.725-0.91-1.549-1.734-2.458-2.459l-4.193,1.994c-0.647-0.347-1.334-0.632-2.049-0.849l-1.558-4.378C17.165,0.708,16.588,0.667,16,0.667s-1.166,0.041-1.737,0.105L12.707,5.15c-0.716,0.217-1.401,0.502-2.05,0.849L6.464,4.005C5.554,4.73,4.73,5.554,4.005,6.464l1.994,4.192c-0.347,0.648-0.632,1.334-0.849,2.05l-4.378,1.557C0.708,14.834,0.667,15.412,0.667,16s0.041,1.165,0.105,1.736l4.378,1.558c0.217,0.715,0.502,1.401,0.849,2.049l-1.994,4.193c0.725,0.909,1.549,1.733,2.459,2.458l4.192-1.993c0.648,0.347,1.334,0.633,2.05,0.851l1.557,4.377c0.571,0.064,1.148,0.104,1.737,0.104c0.588,0,1.165-0.04,1.736-0.104l1.558-4.377c0.715-0.218,1.399-0.504,2.049-0.851l4.193,1.993c0.909-0.725,1.733-1.549,2.458-2.458l-1.993-4.193c0.347-0.647,0.633-1.334,0.851-2.049L31.229,17.736zM16,20.871c-2.69,0-4.872-2.182-4.872-4.871c0-2.69,2.182-4.872,4.872-4.872c2.689,0,4.871,2.182,4.871,4.872C20.871,18.689,18.689,20.871,16,20.871z"></path><title>Link options.</title></g></g></g></g><!--z-index:29--><g   id="j_308" ><path  stroke="#707070" d="M 1118 895 L 1115 560" id="v-3721" stroke-width="2" stroke-dasharray="30 30" fill="none" style="opacity: 1;"></path><path  fill="black" stroke="black" d="M 0 0 0 0" transform="matrix(-0.007880212106034692,-0.9999689506465508,0.9999689506465508,-0.007880212106034692,1117.8199462890625,895)"></path><path  fill="#707070" stroke="#707070" d="M 20 0 L 0 10 L 20 20 z" id="v-3723" transform="matrix(0.00788034525995461,0.9999689495972282,-0.9999689495972282,0.00788034525995461,1125.1796751058728,559.921201875647)" style="opacity: 1;"></path><path  d="M 1118 895 L 1115 560" id="v-3722" fill="none" style="cursor: default;"></path><g ><g id="v-3715"  label-idx="0" cursor="move" transform="matrix(1,0,0,1,1116.5,727.5)" style="cursor: default; opacity: 1;"><rect joint-selector="rect" id="v-3718" fill="#ffffff" rx="3" ry="3" pointer-events="none" width="197.6728057861328" height="176.54171752929688" transform="matrix(1,0,0,1,-98,-88.2)"></rect><text joint-selector="text" id="v-3717" font-size="24px" xml:space="preserve" y="0.8em" fill="#707070" text-anchor="middle" pointer-events="none" font-family="Open Sans" font-weight="normal" transform="matrix(1,0,0,1,0,-81.4)"><tspan dy="0" >Перенаправляет</tspan><tspan dy="1.2em" x="0" >запросы;</tspan><tspan dy="1.2em" x="0" >Получает</tspan><tspan dy="1.2em" x="0" >публичный</tspan><tspan dy="1.2em" x="0" >ключ для</tspan><tspan dy="1.2em" x="0" >проверки JWT</tspan></text></g><g id="v-3716"  label-idx="1" cursor="move" transform="matrix(1,0,0,1,1106.5,825.9000244140625)" style="cursor: default; opacity: 1;"><rect joint-selector="rect" id="v-3720" fill="#ffffff" rx="3" ry="3"  width="0" height="0" transform="matrix(1,0,0,1,0,0)" display="none"></rect><text joint-selector="text" id="v-3719" fill="#000000" font-size="14" text-anchor="middle" pointer-events="none"></text></g></g><g  display="none"></g><g  id="v-3725" display="none"><g  id="v-3713"><path  end="source" d="M 26 0 L 0 13 L 26 26 z"></path></g><g  id="v-3714"><path  end="target" d="M 26 0 L 0 13 L 26 26 z"></path></g></g><g  id="v-3724" display="none"><g  id="v-3712" transform="translate(1117.641805407381, 855.0016038242304) "><g  event="remove"><circle r="11"></circle><path transform="scale(.8) translate(-16, -16)" d="M24.778,21.419 19.276,15.917 24.777,10.415 21.949,7.585 16.447,13.087 10.945,7.585 8.117,10.415 13.618,15.917 8.116,21.419 10.946,24.248 16.447,18.746 21.948,24.248z"></path><title>Remove link.</title></g><g  event="link:options"><circle r="11" transform="translate(25)"></circle><path fill="white" transform="scale(.55) translate(29, -16)" d="M31.229,17.736c0.064-0.571,0.104-1.148,0.104-1.736s-0.04-1.166-0.104-1.737l-4.377-1.557c-0.218-0.716-0.504-1.401-0.851-2.05l1.993-4.192c-0.725-0.91-1.549-1.734-2.458-2.459l-4.193,1.994c-0.647-0.347-1.334-0.632-2.049-0.849l-1.558-4.378C17.165,0.708,16.588,0.667,16,0.667s-1.166,0.041-1.737,0.105L12.707,5.15c-0.716,0.217-1.401,0.502-2.05,0.849L6.464,4.005C5.554,4.73,4.73,5.554,4.005,6.464l1.994,4.192c-0.347,0.648-0.632,1.334-0.849,2.05l-4.378,1.557C0.708,14.834,0.667,15.412,0.667,16s0.041,1.165,0.105,1.736l4.378,1.558c0.217,0.715,0.502,1.401,0.849,2.049l-1.994,4.193c0.725,0.909,1.549,1.733,2.459,2.458l4.192-1.993c0.648,0.347,1.334,0.633,2.05,0.851l1.557,4.377c0.571,0.064,1.148,0.104,1.737,0.104c0.588,0,1.165-0.04,1.736-0.104l1.558-4.377c0.715-0.218,1.399-0.504,2.049-0.851l4.193,1.993c0.909-0.725,1.733-1.549,2.458-2.458l-1.993-4.193c0.347-0.647,0.633-1.334,0.851-2.049L31.229,17.736zM16,20.871c-2.69,0-4.872-2.182-4.872-4.871c0-2.69,2.182-4.872,4.872-4.872c2.689,0,4.871,2.182,4.871,4.872C20.871,18.689,18.689,20.871,16,20.871z"></path><title>Link options.</title></g></g></g></g><!--z-index:30--><g   id="j_309" ><path  stroke="#707070" d="M 894 1045 L 669 1045" id="v-3738" stroke-width="2" stroke-dasharray="30 30" fill="none" style="opacity: 1;"></path><path  fill="black" stroke="black" d="M 0 0 0 0" transform="matrix(-1,1.2246467991473532e-16,-1.2246467991473532e-16,-1,894,1045)"></path><path  fill="#707070" stroke="#707070" d="M 20 0 L 0 10 L 20 20 z" id="v-3740" transform="matrix(1,0,0,1,669,1035)" style="opacity: 1;"></path><path  d="M 894 1045 L 669 1045" id="v-3739" fill="none" style="cursor: default;"></path><g ><g id="v-3732"  label-idx="0" cursor="move" transform="matrix(1,0,0,1,781.5,1045)" style="cursor: default; opacity: 1;"><rect joint-selector="rect" id="v-3735" fill="#ffffff" rx="3" ry="3" pointer-events="none" width="177.27845764160156" height="32.54172134399414" transform="matrix(1,0,0,1,-88.6,-16.2)"></rect><text joint-selector="text" id="v-3734" font-size="24px" xml:space="preserve" y="0.8em" fill="#707070" text-anchor="middle" pointer-events="none" font-family="Open Sans" font-weight="normal" transform="matrix(1,0,0,1,0,-9.4)"><tspan dy="0" >Чтение/Запись</tspan></text></g><g id="v-3733"  label-idx="1" cursor="move" transform="matrix(1,0,0,1,771.5,1071.4000244140625)" style="cursor: default; opacity: 1;"><rect joint-selector="rect" id="v-3737" fill="#ffffff" rx="3" ry="3"  width="0" height="0" transform="matrix(1,0,0,1,0,0)" display="none"></rect><text joint-selector="text" id="v-3736" fill="#000000" font-size="14" text-anchor="middle" pointer-events="none"></text></g></g><g  display="none"></g><g  id="v-3742" display="none"><g  id="v-3730"><path  end="source" d="M 26 0 L 0 13 L 26 26 z"></path></g><g  id="v-3731"><path  end="target" d="M 26 0 L 0 13 L 26 26 z"></path></g></g><g  id="v-3741" display="none"><g  id="v-3729" transform="translate(854, 1045) "><g  event="remove"><circle r="11"></circle><path transform="scale(.8) translate(-16, -16)" d="M24.778,21.419 19.276,15.917 24.777,10.415 21.949,7.585 16.447,13.087 10.945,7.585 8.117,10.415 13.618,15.917 8.116,21.419 10.946,24.248 16.447,18.746 21.948,24.248z"></path><title>Remove link.</title></g><g  event="link:options"><circle r="11" transform="translate(25)"></circle><path fill="white" transform="scale(.55) translate(29, -16)" d="M31.229,17.736c0.064-0.571,0.104-1.148,0.104-1.736s-0.04-1.166-0.104-1.737l-4.377-1.557c-0.218-0.716-0.504-1.401-0.851-2.05l1.993-4.192c-0.725-0.91-1.549-1.734-2.458-2.459l-4.193,1.994c-0.647-0.347-1.334-0.632-2.049-0.849l-1.558-4.378C17.165,0.708,16.588,0.667,16,0.667s-1.166,0.041-1.737,0.105L12.707,5.15c-0.716,0.217-1.401,0.502-2.05,0.849L6.464,4.005C5.554,4.73,4.73,5.554,4.005,6.464l1.994,4.192c-0.347,0.648-0.632,1.334-0.849,2.05l-4.378,1.557C0.708,14.834,0.667,15.412,0.667,16s0.041,1.165,0.105,1.736l4.378,1.558c0.217,0.715,0.502,1.401,0.849,2.049l-1.994,4.193c0.725,0.909,1.549,1.733,2.459,2.458l4.192-1.993c0.648,0.347,1.334,0.633,2.05,0.851l1.557,4.377c0.571,0.064,1.148,0.104,1.737,0.104c0.588,0,1.165-0.04,1.736-0.104l1.558-4.377c0.715-0.218,1.399-0.504,2.049-0.851l4.193,1.993c0.909-0.725,1.733-1.549,2.458-2.458l-1.993-4.193c0.347-0.647,0.633-1.334,0.851-2.049L31.229,17.736zM16,20.871c-2.69,0-4.872-2.182-4.872-4.871c0-2.69,2.182-4.872,4.872-4.872c2.689,0,4.871,2.182,4.871,4.872C20.871,18.689,18.689,20.871,16,20.871z"></path><title>Link options.</title></g></g></g></g><!--z-index:31--><g   id="j_310" ><path  stroke="#707070" d="M 1344 1072 L 1649 1108" id="v-3755" stroke-width="2" stroke-dasharray="30 30" fill="none" style="opacity: 1;"></path><path  fill="black" stroke="black" d="M 0 0 0 0" transform="matrix(0.9929689709778495,0.11837492418240729,-0.11837492418240729,0.9929689709778495,1344,1071.8199462890625)"></path><path  fill="#707070" stroke="#707070" d="M 20 0 L 0 10 L 20 20 z" id="v-3757" transform="matrix(-0.9929689699926886,-0.11837493244627088,0.11837493244627088,-0.9929689699926886,1647.8162528754642,1118.1096548447022)" style="opacity: 1;"></path><path  d="M 1344 1072 L 1649 1108" id="v-3756" fill="none" style="cursor: default;"></path><g ><g id="v-3749"  label-idx="0" cursor="move" transform="matrix(1,0,0,1,1496.5,1090)" style="cursor: default; opacity: 1;"><rect joint-selector="rect" id="v-3752" fill="#ffffff" rx="3" ry="3" pointer-events="none" width="197.6728057861328" height="61.34172058105469" transform="matrix(1,0,0,1,-98,-30.6)"></rect><text joint-selector="text" id="v-3751" font-size="24px" xml:space="preserve" y="0.8em" fill="#707070" text-anchor="middle" pointer-events="none" font-family="Open Sans" font-weight="normal" transform="matrix(1,0,0,1,0,-23.8)"><tspan dy="0" >Перенаправляет</tspan><tspan dy="1.2em" x="0" >запросы</tspan></text></g><g id="v-3750"  label-idx="1" cursor="move" transform="matrix(1,0,0,1,1486.5,1130.800048828125)" style="cursor: default; opacity: 1;"><rect joint-selector="rect" id="v-3754" fill="#ffffff" rx="3" ry="3"  width="0" height="0" transform="matrix(1,0,0,1,0,0)" display="none"></rect><text joint-selector="text" id="v-3753" fill="#000000" font-size="14" text-anchor="middle" pointer-events="none"></text></g></g><g  display="none"></g><g  id="v-3759" display="none"><g  id="v-3747"><path  end="source" d="M 26 0 L 0 13 L 26 26 z"></path></g><g  id="v-3748"><path  end="target" d="M 26 0 L 0 13 L 26 26 z"></path></g></g><g  id="v-3758" display="none"><g  id="v-3746" transform="translate(1383.7242432307999, 1076.6887631354386) "><g  event="remove"><circle r="11"></circle><path transform="scale(.8) translate(-16, -16)" d="M24.778,21.419 19.276,15.917 24.777,10.415 21.949,7.585 16.447,13.087 10.945,7.585 8.117,10.415 13.618,15.917 8.116,21.419 10.946,24.248 16.447,18.746 21.948,24.248z"></path><title>Remove link.</title></g><g  event="link:options"><circle r="11" transform="translate(25)"></circle><path fill="white" transform="scale(.55) translate(29, -16)" d="M31.229,17.736c0.064-0.571,0.104-1.148,0.104-1.736s-0.04-1.166-0.104-1.737l-4.377-1.557c-0.218-0.716-0.504-1.401-0.851-2.05l1.993-4.192c-0.725-0.91-1.549-1.734-2.458-2.459l-4.193,1.994c-0.647-0.347-1.334-0.632-2.049-0.849l-1.558-4.378C17.165,0.708,16.588,0.667,16,0.667s-1.166,0.041-1.737,0.105L12.707,5.15c-0.716,0.217-1.401,0.502-2.05,0.849L6.464,4.005C5.554,4.73,4.73,5.554,4.005,6.464l1.994,4.192c-0.347,0.648-0.632,1.334-0.849,2.05l-4.378,1.557C0.708,14.834,0.667,15.412,0.667,16s0.041,1.165,0.105,1.736l4.378,1.558c0.217,0.715,0.502,1.401,0.849,2.049l-1.994,4.193c0.725,0.909,1.549,1.733,2.459,2.458l4.192-1.993c0.648,0.347,1.334,0.633,2.05,0.851l1.557,4.377c0.571,0.064,1.148,0.104,1.737,0.104c0.588,0,1.165-0.04,1.736-0.104l1.558-4.377c0.715-0.218,1.399-0.504,2.049-0.851l4.193,1.993c0.909-0.725,1.733-1.549,2.458-2.458l-1.993-4.193c0.347-0.647,0.633-1.334,0.851-2.049L31.229,17.736zM16,20.871c-2.69,0-4.872-2.182-4.872-4.871c0-2.69,2.182-4.872,4.872-4.872c2.689,0,4.871,2.182,4.871,4.872C20.871,18.689,18.689,20.871,16,20.871z"></path><title>Link options.</title></g></g></g></g><!--z-index:32--><g   id="j_311" ><path  stroke="#707070" d="M 1344 963 L 1649 852" id="v-3772" stroke-width="2" stroke-dasharray="30 30" fill="none" style="opacity: 1;"></path><path  fill="black" stroke="black" d="M 0 0 0 0" transform="matrix(0.9396044188233476,-0.3422623790714359,0.3422623790714359,0.9396044188233476,1344,963.0499877929688)"></path><path  fill="#707070" stroke="#707070" d="M 20 0 L 0 10 L 20 20 z" id="v-3774" transform="matrix(-0.9396044188233476,0.3422623790714358,-0.3422623790714358,-0.9396044188233476,1652.4226718851978,861.3460400264254)" style="opacity: 1;"></path><path  d="M 1344 963 L 1649 852" id="v-3773" fill="none" style="cursor: default;"></path><g ><g id="v-3766"  label-idx="0" cursor="move" transform="matrix(1,0,0,1,1496.5,907.5)" style="cursor: default; opacity: 1;"><rect joint-selector="rect" id="v-3769" fill="#ffffff" rx="3" ry="3" pointer-events="none" width="197.6728057861328" height="61.34172058105469" transform="matrix(1,0,0,1,-98,-30.6)"></rect><text joint-selector="text" id="v-3768" font-size="24px" xml:space="preserve" y="0.8em" fill="#707070" text-anchor="middle" pointer-events="none" font-family="Open Sans" font-weight="normal" transform="matrix(1,0,0,1,0,-23.8)"><tspan dy="0" >Перенаправляет</tspan><tspan dy="1.2em" x="0" >запросы</tspan></text></g><g id="v-3767"  label-idx="1" cursor="move" transform="matrix(1,0,0,1,1486.5,948.2999877929688)" style="cursor: default; opacity: 1;"><rect joint-selector="rect" id="v-3771" fill="#ffffff" rx="3" ry="3"  width="0" height="0" transform="matrix(1,0,0,1,0,0)" display="none"></rect><text joint-selector="text" id="v-3770" fill="#000000" font-size="14" text-anchor="middle" pointer-events="none"></text></g></g><g  display="none"></g><g  id="v-3776" display="none"><g  id="v-3764"><path  end="source" d="M 26 0 L 0 13 L 26 26 z"></path></g><g  id="v-3765"><path  end="target" d="M 26 0 L 0 13 L 26 26 z"></path></g></g><g  id="v-3775" display="none"><g  id="v-3763" transform="translate(1381.5881373950172, 949.3203827841086) "><g  event="remove"><circle r="11"></circle><path transform="scale(.8) translate(-16, -16)" d="M24.778,21.419 19.276,15.917 24.777,10.415 21.949,7.585 16.447,13.087 10.945,7.585 8.117,10.415 13.618,15.917 8.116,21.419 10.946,24.248 16.447,18.746 21.948,24.248z"></path><title>Remove link.</title></g><g  event="link:options"><circle r="11" transform="translate(25)"></circle><path fill="white" transform="scale(.55) translate(29, -16)" d="M31.229,17.736c0.064-0.571,0.104-1.148,0.104-1.736s-0.04-1.166-0.104-1.737l-4.377-1.557c-0.218-0.716-0.504-1.401-0.851-2.05l1.993-4.192c-0.725-0.91-1.549-1.734-2.458-2.459l-4.193,1.994c-0.647-0.347-1.334-0.632-2.049-0.849l-1.558-4.378C17.165,0.708,16.588,0.667,16,0.667s-1.166,0.041-1.737,0.105L12.707,5.15c-0.716,0.217-1.401,0.502-2.05,0.849L6.464,4.005C5.554,4.73,4.73,5.554,4.005,6.464l1.994,4.192c-0.347,0.648-0.632,1.334-0.849,2.05l-4.378,1.557C0.708,14.834,0.667,15.412,0.667,16s0.041,1.165,0.105,1.736l4.378,1.558c0.217,0.715,0.502,1.401,0.849,2.049l-1.994,4.193c0.725,0.909,1.549,1.733,2.459,2.458l4.192-1.993c0.648,0.347,1.334,0.633,2.05,0.851l1.557,4.377c0.571,0.064,1.148,0.104,1.737,0.104c0.588,0,1.165-0.04,1.736-0.104l1.558-4.377c0.715-0.218,1.399-0.504,2.049-0.851l4.193,1.993c0.909-0.725,1.733-1.549,2.458-2.458l-1.993-4.193c0.347-0.647,0.633-1.334,0.851-2.049L31.229,17.736zM16,20.871c-2.69,0-4.872-2.182-4.872-4.871c0-2.69,2.182-4.872,4.872-4.872c2.689,0,4.871,2.182,4.871,4.872C20.871,18.689,18.689,20.871,16,20.871z"></path><title>Link options.</title></g></g></g></g><!--z-index:33--><g   id="j_312" ><path  stroke="#707070" d="M 1297 895 L 1696 560" id="v-3789" stroke-width="2" stroke-dasharray="30 30" fill="none" style="opacity: 1;"></path><path  fill="black" stroke="black" d="M 0 0 0 0" transform="matrix(0.7652996186629886,-0.6436742139268004,0.6436742139268004,0.7652996186629886,1297.3499755859375,895)"></path><path  fill="#707070" stroke="#707070" d="M 20 0 L 0 10 L 20 20 z" id="v-3791" transform="matrix(-0.7652996186629887,0.6436742139268002,-0.6436742139268002,-0.7652996186629887,1702.0866865680855,567.6530216254869)" style="opacity: 1;"></path><path  d="M 1297 895 L 1696 560" id="v-3790" fill="none" style="cursor: default;"></path><g ><g id="v-3783"  label-idx="0" cursor="move" transform="matrix(1,0,0,1,1496.5,727.5)" style="cursor: default; opacity: 1;"><rect joint-selector="rect" id="v-3786" fill="#ffffff" rx="3" ry="3" pointer-events="none" width="197.6728057861328" height="61.34172058105469" transform="matrix(1,0,0,1,-98,-30.6)"></rect><text joint-selector="text" id="v-3785" font-size="24px" xml:space="preserve" y="0.8em" fill="#707070" text-anchor="middle" pointer-events="none" font-family="Open Sans" font-weight="normal" transform="matrix(1,0,0,1,0,-23.8)"><tspan dy="0" >Перенаправляет</tspan><tspan dy="1.2em" x="0" >запросы</tspan></text></g><g id="v-3784"  label-idx="1" cursor="move" transform="matrix(1,0,0,1,1486.5,768.2999877929688)" style="cursor: default; opacity: 1;"><rect joint-selector="rect" id="v-3788" fill="#ffffff" rx="3" ry="3"  width="0" height="0" transform="matrix(1,0,0,1,0,0)" display="none"></rect><text joint-selector="text" id="v-3787" fill="#000000" font-size="14" text-anchor="middle" pointer-events="none"></text></g></g><g  display="none"></g><g  id="v-3793" display="none"><g  id="v-3781"><path  end="source" d="M 26 0 L 0 13 L 26 26 z"></path></g><g  id="v-3782"><path  end="target" d="M 26 0 L 0 13 L 26 26 z"></path></g></g><g  id="v-3792" display="none"><g  id="v-3780" transform="translate(1327.634243758321, 869.279519651535) "><g  event="remove"><circle r="11"></circle><path transform="scale(.8) translate(-16, -16)" d="M24.778,21.419 19.276,15.917 24.777,10.415 21.949,7.585 16.447,13.087 10.945,7.585 8.117,10.415 13.618,15.917 8.116,21.419 10.946,24.248 16.447,18.746 21.948,24.248z"></path><title>Remove link.</title></g><g  event="link:options"><circle r="11" transform="translate(25)"></circle><path fill="white" transform="scale(.55) translate(29, -16)" d="M31.229,17.736c0.064-0.571,0.104-1.148,0.104-1.736s-0.04-1.166-0.104-1.737l-4.377-1.557c-0.218-0.716-0.504-1.401-0.851-2.05l1.993-4.192c-0.725-0.91-1.549-1.734-2.458-2.459l-4.193,1.994c-0.647-0.347-1.334-0.632-2.049-0.849l-1.558-4.378C17.165,0.708,16.588,0.667,16,0.667s-1.166,0.041-1.737,0.105L12.707,5.15c-0.716,0.217-1.401,0.502-2.05,0.849L6.464,4.005C5.554,4.73,4.73,5.554,4.005,6.464l1.994,4.192c-0.347,0.648-0.632,1.334-0.849,2.05l-4.378,1.557C0.708,14.834,0.667,15.412,0.667,16s0.041,1.165,0.105,1.736l4.378,1.558c0.217,0.715,0.502,1.401,0.849,2.049l-1.994,4.193c0.725,0.909,1.549,1.733,2.459,2.458l4.192-1.993c0.648,0.347,1.334,0.633,2.05,0.851l1.557,4.377c0.571,0.064,1.148,0.104,1.737,0.104c0.588,0,1.165-0.04,1.736-0.104l1.558-4.377c0.715-0.218,1.399-0.504,2.049-0.851l4.193,1.993c0.909-0.725,1.733-1.549,2.458-2.458l-1.993-4.193c0.347-0.647,0.633-1.334,0.851-2.049L31.229,17.736zM16,20.871c-2.69,0-4.872-2.182-4.872-4.871c0-2.69,2.182-4.872,4.872-4.872c2.689,0,4.871,2.182,4.871,4.872C20.871,18.689,18.689,20.871,16,20.871z"></path><title>Link options.</title></g></g></g></g><!--z-index:34--></g><g ></g><g ></g><g ></g></g></svg>