<svg xmlns="http://www.w3.org/2000/svg" xmlns:xlink="http://www.w3.org/1999/xlink" version="1.1" viewBox="0 0 1625 1756" style="background: #ffffff"><defs><style>@import url(https://fonts.googleapis.com/css?family=Open+Sans:400,700);</style></defs><defs joint-selector="defs"></defs><g joint-selector="layers"  transform="matrix(1,0,0,1,0,0)"><g ></g><g ><!--z-index:1--><!--z-index:2--><!--z-index:3--><!--z-index:4--><!--z-index:5--><!--z-index:6--><!--z-index:7--><!--z-index:8--><!--z-index:9--><!--z-index:10--><!--z-index:11--><!--z-index:12--><g   id="j_288"  transform="translate(20,1719.6)"><g id="v-3489"><text  id="v-3490" font-size="22px" xml:space="preserve" y="0.8em" font-weight="normal" text-anchor="start" fill="#aaaaaa" pointer-events="none" display="block" font-family="Open Sans"><tspan dy="0" >Sunday, March 30, 2025 at 5:40 AM Moscow Standard Time</tspan></text></g></g><!--z-index:13--><g   id="j_287"  transform="translate(20,1676.3999999999999)"><g id="v-3487"><text  id="v-3488" font-size="36px" xml:space="preserve" y="0.8em" font-weight="normal" text-anchor="start" fill="#000000" pointer-events="none" display="block" font-family="Open Sans"><tspan dy="0" >[Container] Управление пользователями</tspan></text></g></g><!--z-index:14--><g   id="j_289"  transform="translate(214,165)" style=""><g  id="v-3494" style="opacity: 1;"><rect  id="v-3495" rx="20" ry="20" stroke="#0f5eaa" stroke-width="2" pointer-events="visiblePainted" fill="#1168bd" width="450" height="300" style="fill: rgb(17, 104, 189); stroke: rgb(15, 94, 170);"></rect><text  id="v-3496" font-size="34" xml:space="preserve" y="0.8em" font-weight="bold" text-anchor="middle" pointer-events="visible" font-family="Open Sans" fill="#ffffff" transform="matrix(1,0,0,1,225,44.9)" style="fill: rgb(255, 255, 255);"><tspan dy="0" >Шлюз API</tspan></text><text  id="v-3497" font-size="17" xml:space="preserve" y="0.8em" text-anchor="middle" font-family="Open Sans" fill="#ffffff" transform="matrix(1,0,0,1,225,85.7)" style="fill: rgb(255, 255, 255);"><tspan dy="0" >[Software System]</tspan></text><text  id="v-3498" font-size="24" xml:space="preserve" y="0.8em" text-anchor="middle" font-family="Open Sans" fill="#ffffff" transform="matrix(1,0,0,1,225,116.1)" style="fill: rgb(255, 255, 255);"><tspan dy="0" >• Маршрутизация трафика</tspan><tspan dy="1.2em" x="0" >• Проверка JWT</tspan><tspan dy="1.2em" x="0" >• Resilience (Circuit Breaker, Rate</tspan><tspan dy="1.2em" x="0" >Limiter, e.t.c.)</tspan><tspan dy="1.2em" x="0" >• Трассировка запросов</tspan></text><g  id="v-3499" color="#ffffff" transform="matrix(1,0,0,1,222.5,268)" display="none" style="fill: rgb(255, 255, 255);"><g ></g><g ></g><g ></g><g ></g></g><image  id="v-3500"></image></g></g><!--z-index:15--><g   id="j_291"  transform="translate(199,705)" style=""><g id="v-3514"><rect  id="v-3515" width="490" height="816" rx="0" ry="0" fill="#ffffff" stroke="#0f5eaa" stroke-width="1" stroke-dasharray="20,20" pointer-events="none"></rect><text  id="v-3516" font-size="24px" xml:space="preserve" y="777" font-weight="normal" fill="#0f5eaa" text-anchor="start" pointer-events="visible" font-family="Open Sans" transform="matrix(1,0,0,1,15,0)"><tspan dy="0" >Управление пользователями</tspan></text><text  id="v-3517" font-size="17px" xml:space="preserve" y="801" font-weight="normal" fill="#0f5eaa" text-anchor="start" pointer-events="visible" font-family="Open Sans" transform="matrix(1,0,0,1,15,0)"><tspan dy="0" >[Software System]</tspan></text><image  id="v-3518" pointer-events="visible"></image></g></g><!--z-index:16--><g   id="j_290"  transform="translate(219,725)" style=""><g  id="v-3507" style="opacity: 1;"><rect  id="v-3508" rx="20" ry="20" stroke="#3c7fc0" stroke-width="2" pointer-events="visiblePainted" fill="#438dd5" width="450" height="300" style="fill: rgb(67, 141, 213); stroke: rgb(60, 127, 192);"></rect><text  id="v-3509" font-size="34" xml:space="preserve" y="0.8em" font-weight="bold" text-anchor="middle" pointer-events="visible" font-family="Open Sans" fill="#ffffff" transform="matrix(1,0,0,1,225,73.7)" style="fill: rgb(255, 255, 255);"><tspan dy="0" >user-api</tspan></text><text  id="v-3510" font-size="17" xml:space="preserve" y="0.8em" text-anchor="middle" font-family="Open Sans" fill="#ffffff" transform="matrix(1,0,0,1,225,114.5)" style="fill: rgb(255, 255, 255);"><tspan dy="0" >[Container: Spring Boot, REST, API, Stateless]</tspan></text><text  id="v-3511" font-size="24" xml:space="preserve" y="0.8em" text-anchor="middle" font-family="Open Sans" fill="#ffffff" transform="matrix(1,0,0,1,225,144.9)" style="fill: rgb(255, 255, 255);"><tspan dy="0" >• Регистрация пользователей</tspan><tspan dy="1.2em" x="0" >• Выдача JWT токенов</tspan><tspan dy="1.2em" x="0" >• Управление профилями</tspan></text><g  id="v-3512" color="#ffffff" transform="matrix(1,0,0,1,222.5,268)" display="none" style="fill: rgb(255, 255, 255);"><g ></g><g ></g><g ></g><g ></g></g><image  id="v-3513"></image></g></g><!--z-index:17--><g   id="j_292"  transform="translate(219,1130)" style=""><g  id="v-3522" style="opacity: 1;"><path  d="M 0,30 a 225,30 0,0,0 450 0 a 225,30 0,0,0 -450 0 l 0,240 a 225,30 0,0,0 450 0 l 0,-240" id="v-3523" stroke="#3c7fc0" stroke-width="2" pointer-events="visiblePainted" fill="#438dd5" style="fill: rgb(67, 141, 213); stroke: rgb(60, 127, 192);"></path><rect  id="v-3524" stroke-width="0" pointer-events="visiblePainted" fill="none" stroke="none" width="450" height="270" x="0" y="30"></rect><text  id="v-3525" font-size="34" xml:space="preserve" y="0.8em" font-weight="bold" text-anchor="middle" pointer-events="visible" font-family="Open Sans" fill="#ffffff" transform="matrix(1,0,0,1,225,110.6)" style="fill: rgb(255, 255, 255);"><tspan dy="0" >user-postgres</tspan></text><text  id="v-3526" font-size="17" xml:space="preserve" y="0.8em" text-anchor="middle" font-family="Open Sans" fill="#ffffff" transform="matrix(1,0,0,1,225,151.4)" style="fill: rgb(255, 255, 255);"><tspan dy="0" >[Container: PostgreSQL]</tspan></text><text  id="v-3527" font-size="24" xml:space="preserve" y="0.8em" text-anchor="middle" font-family="Open Sans" fill="#ffffff" transform="matrix(1,0,0,1,225,181.8)" style="fill: rgb(255, 255, 255);"><tspan dy="0" >Хранит пользователей</tspan><tspan dy="1.2em" x="0" >приложения</tspan></text><g  id="v-3528" font-weight="normal" text-anchor="middle" color="#ffffff" transform="matrix(1,0,0,1,222.5,268)" display="none" style="fill: rgb(255, 255, 255);"><g ></g><g ></g><g ></g><g ></g></g><image  id="v-3529"></image></g></g><!--z-index:18--><g   id="j_293"  transform="translate(974,715)" style=""><g  id="v-3536" style="opacity: 1;"><rect  id="v-3537" rx="20" ry="20" stroke="#0f5eaa" stroke-width="2" pointer-events="visiblePainted" fill="#1168bd" width="450" height="300" style="fill: rgb(17, 104, 189); stroke: rgb(15, 94, 170);"></rect><text  id="v-3538" font-size="34" xml:space="preserve" y="0.8em" font-weight="bold" text-anchor="middle" pointer-events="visible" font-family="Open Sans" fill="#ffffff" transform="matrix(1,0,0,1,225,73.7)" style="fill: rgb(255, 255, 255);"><tspan dy="0" >Поиск веб-новелл</tspan></text><text  id="v-3539" font-size="17" xml:space="preserve" y="0.8em" text-anchor="middle" font-family="Open Sans" fill="#ffffff" transform="matrix(1,0,0,1,225,114.5)" style="fill: rgb(255, 255, 255);"><tspan dy="0" >[Software System]</tspan></text><text  id="v-3540" font-size="24" xml:space="preserve" y="0.8em" text-anchor="middle" font-family="Open Sans" fill="#ffffff" transform="matrix(1,0,0,1,225,144.9)" style="fill: rgb(255, 255, 255);"><tspan dy="0" >Поиск веб-новелл по различным</tspan><tspan dy="1.2em" x="0" >фильтрам: автор, рейтинг,</tspan><tspan dy="1.2em" x="0" >название и т.д.</tspan></text><g  id="v-3541" color="#ffffff" transform="matrix(1,0,0,1,222.5,268)" display="none" style="fill: rgb(255, 255, 255);"><g ></g><g ></g><g ></g><g ></g></g><image  id="v-3542"></image></g></g><!--z-index:19--><g   id="j_294" ><path  stroke="#707070" d="M 974 868 L 669 872" id="v-3555" stroke-width="2" stroke-dasharray="30 30" fill="none" style="opacity: 1;"></path><path  fill="black" stroke="black" d="M 0 0 0 0" transform="matrix(-0.9999122832012544,0.013244844402803824,-0.013244844402803824,-0.9999122832012544,974,867.97998046875)"></path><path  fill="#707070" stroke="#707070" d="M 20 0 L 0 10 L 20 20 z" id="v-3557" transform="matrix(0.9999122867285344,-0.01324457811005515,0.01324457811005515,0.9999122867285344,668.8675768594265,862.0208961560028)" style="opacity: 1;"></path><path  d="M 974 868 L 669 872" id="v-3556" fill="none" style="cursor: default;"></path><g ><g id="v-3549"  label-idx="0" cursor="move" transform="matrix(1,0,0,1,821.5,870)" style="cursor: default; opacity: 1;"><rect joint-selector="rect" id="v-3552" fill="#ffffff" rx="3" ry="3" pointer-events="none" width="191.5966033935547" height="61.861188888549805" transform="matrix(1,0,0,1,-95.7,-30.9)"></rect><text joint-selector="text" id="v-3551" font-size="24px" xml:space="preserve" y="0.8em" fill="#707070" text-anchor="middle" pointer-events="none" font-family="Open Sans" font-weight="normal" transform="matrix(1,0,0,1,0,-24.6)"><tspan dy="0" >Получает</tspan><tspan dy="1.2em" x="0" >профиль автора</tspan></text></g><g id="v-3550"  label-idx="1" cursor="move" transform="matrix(1,0,0,1,811.5,910.7999877929688)" style="cursor: default; opacity: 1;"><rect joint-selector="rect" id="v-3554" fill="#ffffff" rx="3" ry="3"  width="0" height="0" transform="matrix(1,0,0,1,0,0)" display="none"></rect><text joint-selector="text" id="v-3553" fill="#000000" font-size="14" text-anchor="middle" pointer-events="none"></text></g></g><g  display="none"></g><g  id="v-3559" display="none"><g  id="v-3547"><path  end="source" d="M 26 0 L 0 13 L 26 26 z"></path></g><g  id="v-3548"><path  end="target" d="M 26 0 L 0 13 L 26 26 z"></path></g></g><g  id="v-3558" display="none"><g  id="v-3546" transform="translate(934.0034394918214, 868.5245450558449) "><g  event="remove"><circle r="11"></circle><path transform="scale(.8) translate(-16, -16)" d="M24.778,21.419 19.276,15.917 24.777,10.415 21.949,7.585 16.447,13.087 10.945,7.585 8.117,10.415 13.618,15.917 8.116,21.419 10.946,24.248 16.447,18.746 21.948,24.248z"></path><title>Remove link.</title></g><g  event="link:options"><circle r="11" transform="translate(25)"></circle><path fill="white" transform="scale(.55) translate(29, -16)" d="M31.229,17.736c0.064-0.571,0.104-1.148,0.104-1.736s-0.04-1.166-0.104-1.737l-4.377-1.557c-0.218-0.716-0.504-1.401-0.851-2.05l1.993-4.192c-0.725-0.91-1.549-1.734-2.458-2.459l-4.193,1.994c-0.647-0.347-1.334-0.632-2.049-0.849l-1.558-4.378C17.165,0.708,16.588,0.667,16,0.667s-1.166,0.041-1.737,0.105L12.707,5.15c-0.716,0.217-1.401,0.502-2.05,0.849L6.464,4.005C5.554,4.73,4.73,5.554,4.005,6.464l1.994,4.192c-0.347,0.648-0.632,1.334-0.849,2.05l-4.378,1.557C0.708,14.834,0.667,15.412,0.667,16s0.041,1.165,0.105,1.736l4.378,1.558c0.217,0.715,0.502,1.401,0.849,2.049l-1.994,4.193c0.725,0.909,1.549,1.733,2.459,2.458l4.192-1.993c0.648,0.347,1.334,0.633,2.05,0.851l1.557,4.377c0.571,0.064,1.148,0.104,1.737,0.104c0.588,0,1.165-0.04,1.736-0.104l1.558-4.377c0.715-0.218,1.399-0.504,2.049-0.851l4.193,1.993c0.909-0.725,1.733-1.549,2.458-2.458l-1.993-4.193c0.347-0.647,0.633-1.334,0.851-2.049L31.229,17.736zM16,20.871c-2.69,0-4.872-2.182-4.872-4.871c0-2.69,2.182-4.872,4.872-4.872c2.689,0,4.871,2.182,4.871,4.872C20.871,18.689,18.689,20.871,16,20.871z"></path><title>Link options.</title></g></g></g></g><!--z-index:20--><g   id="j_295" ><path  stroke="#707070" d="M 440 465 L 443 725" id="v-3572" stroke-width="2" stroke-dasharray="30 30" fill="none" style="opacity: 1;"></path><path  fill="black" stroke="black" d="M 0 0 0 0" transform="matrix(0.008922669675059482,0.9999601921906041,-0.9999601921906041,0.008922669675059482,440.3399963378906,465)"></path><path  fill="#707070" stroke="#707070" d="M 20 0 L 0 10 L 20 20 z" id="v-3574" transform="matrix(-0.008922536522305673,-0.9999601933787206,0.9999601933787206,-0.008922536522305673,432.66039369510776,725.089254545104)" style="opacity: 1;"></path><path  d="M 440 465 L 443 725" id="v-3573" fill="none" style="cursor: default;"></path><g ><g id="v-3566"  label-idx="0" cursor="move" transform="matrix(1,0,0,1,441.5,595)" style="cursor: default; opacity: 1;"><rect joint-selector="rect" id="v-3569" fill="#ffffff" rx="3" ry="3" pointer-events="none" width="198.32247924804688" height="177.06119537353516" transform="matrix(1,0,0,1,-98.1,-88.5)"></rect><text joint-selector="text" id="v-3568" font-size="24px" xml:space="preserve" y="0.8em" fill="#707070" text-anchor="middle" pointer-events="none" font-family="Open Sans" font-weight="normal" transform="matrix(1,0,0,1,0,-82.2)"><tspan dy="0" >Перенаправляет</tspan><tspan dy="1.2em" x="0" >запросы;</tspan><tspan dy="1.2em" x="0" >Получает</tspan><tspan dy="1.2em" x="0" >публичный</tspan><tspan dy="1.2em" x="0" >ключ для</tspan><tspan dy="1.2em" x="0" >проверки JWT</tspan></text></g><g id="v-3567"  label-idx="1" cursor="move" transform="matrix(1,0,0,1,431.5,693.4000244140625)" style="cursor: default; opacity: 1;"><rect joint-selector="rect" id="v-3571" fill="#ffffff" rx="3" ry="3"  width="0" height="0" transform="matrix(1,0,0,1,0,0)" display="none"></rect><text joint-selector="text" id="v-3570" fill="#000000" font-size="14" text-anchor="middle" pointer-events="none"></text></g></g><g  display="none"></g><g  id="v-3576" display="none"><g  id="v-3564"><path  end="source" d="M 26 0 L 0 13 L 26 26 z"></path></g><g  id="v-3565"><path  end="target" d="M 26 0 L 0 13 L 26 26 z"></path></g></g><g  id="v-3575" display="none"><g  id="v-3563" transform="translate(440.46150774089176, 504.99733754395527) "><g  event="remove"><circle r="11"></circle><path transform="scale(.8) translate(-16, -16)" d="M24.778,21.419 19.276,15.917 24.777,10.415 21.949,7.585 16.447,13.087 10.945,7.585 8.117,10.415 13.618,15.917 8.116,21.419 10.946,24.248 16.447,18.746 21.948,24.248z"></path><title>Remove link.</title></g><g  event="link:options"><circle r="11" transform="translate(25)"></circle><path fill="white" transform="scale(.55) translate(29, -16)" d="M31.229,17.736c0.064-0.571,0.104-1.148,0.104-1.736s-0.04-1.166-0.104-1.737l-4.377-1.557c-0.218-0.716-0.504-1.401-0.851-2.05l1.993-4.192c-0.725-0.91-1.549-1.734-2.458-2.459l-4.193,1.994c-0.647-0.347-1.334-0.632-2.049-0.849l-1.558-4.378C17.165,0.708,16.588,0.667,16,0.667s-1.166,0.041-1.737,0.105L12.707,5.15c-0.716,0.217-1.401,0.502-2.05,0.849L6.464,4.005C5.554,4.73,4.73,5.554,4.005,6.464l1.994,4.192c-0.347,0.648-0.632,1.334-0.849,2.05l-4.378,1.557C0.708,14.834,0.667,15.412,0.667,16s0.041,1.165,0.105,1.736l4.378,1.558c0.217,0.715,0.502,1.401,0.849,2.049l-1.994,4.193c0.725,0.909,1.549,1.733,2.459,2.458l4.192-1.993c0.648,0.347,1.334,0.633,2.05,0.851l1.557,4.377c0.571,0.064,1.148,0.104,1.737,0.104c0.588,0,1.165-0.04,1.736-0.104l1.558-4.377c0.715-0.218,1.399-0.504,2.049-0.851l4.193,1.993c0.909-0.725,1.733-1.549,2.458-2.458l-1.993-4.193c0.347-0.647,0.633-1.334,0.851-2.049L31.229,17.736zM16,20.871c-2.69,0-4.872-2.182-4.872-4.871c0-2.69,2.182-4.872,4.872-4.872c2.689,0,4.871,2.182,4.871,4.872C20.871,18.689,18.689,20.871,16,20.871z"></path><title>Link options.</title></g></g></g></g><!--z-index:21--><g   id="j_296" ><path  stroke="#707070" d="M 444 1025 L 444 1130" id="v-3589" stroke-width="2" stroke-dasharray="30 30" fill="none" style="opacity: 1;"></path><path  fill="black" stroke="black" d="M 0 0 0 0" transform="matrix(6.123233995736766e-17,1,-1,6.123233995736766e-17,444,1025)"></path><path  fill="#707070" stroke="#707070" d="M 20 0 L 0 10 L 20 20 z" id="v-3591" transform="matrix(-1.8369701987210297e-16,-1,1,-1.8369701987210297e-16,434.00000000000006,1130)" style="opacity: 1;"></path><path  d="M 444 1025 L 444 1130" id="v-3590" fill="none" style="cursor: default;"></path><g ><g id="v-3583"  label-idx="0" cursor="move" transform="matrix(1,0,0,1,444,1077.5)" style="cursor: default; opacity: 1;"><rect joint-selector="rect" id="v-3586" fill="#ffffff" rx="3" ry="3" pointer-events="none" width="178.2887420654297" height="61.861188888549805" transform="matrix(1,0,0,1,-88.8,-30.9)"></rect><text joint-selector="text" id="v-3585" font-size="24px" xml:space="preserve" y="0.8em" fill="#707070" text-anchor="middle" pointer-events="none" font-family="Open Sans" font-weight="normal" transform="matrix(1,0,0,1,0,-24.6)"><tspan dy="0" >Чтение/Запись</tspan><tspan dy="1.2em" x="0" >пользователей</tspan></text></g><g id="v-3584"  label-idx="1" cursor="move" transform="matrix(1,0,0,1,434,1118.300048828125)" style="cursor: default; opacity: 1;"><rect joint-selector="rect" id="v-3588" fill="#ffffff" rx="3" ry="3"  width="0" height="0" transform="matrix(1,0,0,1,0,0)" display="none"></rect><text joint-selector="text" id="v-3587" fill="#000000" font-size="14" text-anchor="middle" pointer-events="none"></text></g></g><g  display="none"></g><g  id="v-3593" display="none"><g  id="v-3581"><path  end="source" d="M 26 0 L 0 13 L 26 26 z"></path></g><g  id="v-3582"><path  end="target" d="M 26 0 L 0 13 L 26 26 z"></path></g></g><g  id="v-3592" display="none"><g  id="v-3580" transform="translate(444, 1065) "><g  event="remove"><circle r="11"></circle><path transform="scale(.8) translate(-16, -16)" d="M24.778,21.419 19.276,15.917 24.777,10.415 21.949,7.585 16.447,13.087 10.945,7.585 8.117,10.415 13.618,15.917 8.116,21.419 10.946,24.248 16.447,18.746 21.948,24.248z"></path><title>Remove link.</title></g><g  event="link:options"><circle r="11" transform="translate(25)"></circle><path fill="white" transform="scale(.55) translate(29, -16)" d="M31.229,17.736c0.064-0.571,0.104-1.148,0.104-1.736s-0.04-1.166-0.104-1.737l-4.377-1.557c-0.218-0.716-0.504-1.401-0.851-2.05l1.993-4.192c-0.725-0.91-1.549-1.734-2.458-2.459l-4.193,1.994c-0.647-0.347-1.334-0.632-2.049-0.849l-1.558-4.378C17.165,0.708,16.588,0.667,16,0.667s-1.166,0.041-1.737,0.105L12.707,5.15c-0.716,0.217-1.401,0.502-2.05,0.849L6.464,4.005C5.554,4.73,4.73,5.554,4.005,6.464l1.994,4.192c-0.347,0.648-0.632,1.334-0.849,2.05l-4.378,1.557C0.708,14.834,0.667,15.412,0.667,16s0.041,1.165,0.105,1.736l4.378,1.558c0.217,0.715,0.502,1.401,0.849,2.049l-1.994,4.193c0.725,0.909,1.549,1.733,2.459,2.458l4.192-1.993c0.648,0.347,1.334,0.633,2.05,0.851l1.557,4.377c0.571,0.064,1.148,0.104,1.737,0.104c0.588,0,1.165-0.04,1.736-0.104l1.558-4.377c0.715-0.218,1.399-0.504,2.049-0.851l4.193,1.993c0.909-0.725,1.733-1.549,2.458-2.458l-1.993-4.193c0.347-0.647,0.633-1.334,0.851-2.049L31.229,17.736zM16,20.871c-2.69,0-4.872-2.182-4.872-4.871c0-2.69,2.182-4.872,4.872-4.872c2.689,0,4.871,2.182,4.871,4.872C20.871,18.689,18.689,20.871,16,20.871z"></path><title>Link options.</title></g></g></g></g><!--z-index:22--><!--z-index:23--><!--z-index:24--><!--z-index:25--><!--z-index:26--><!--z-index:27--><!--z-index:28--><!--z-index:29--><!--z-index:30--><!--z-index:31--><!--z-index:32--><!--z-index:33--><!--z-index:34--></g><g ></g><g ></g><g ></g></g></svg>