<svg xmlns="http://www.w3.org/2000/svg" xmlns:xlink="http://www.w3.org/1999/xlink" version="1.1" viewBox="0 0 2170 1781" style="background: #ffffff"><defs><style>@import url(https://fonts.googleapis.com/css?family=Open+Sans:400,700);</style></defs><defs joint-selector="defs"></defs><g joint-selector="layers"  transform="matrix(1,0,0,1,0,0)"><g ></g><g ><!--z-index:1--><!--z-index:2--><!--z-index:3--><!--z-index:4--><!--z-index:5--><!--z-index:6--><!--z-index:7--><!--z-index:8--><!--z-index:9--><!--z-index:10--><!--z-index:11--><!--z-index:12--><!--z-index:13--><!--z-index:14--><!--z-index:15--><!--z-index:16--><g   id="j_260"  transform="translate(20,1744.6)"><g id="v-3151"><text  id="v-3152" font-size="22px" xml:space="preserve" y="0.8em" font-weight="normal" text-anchor="start" fill="#aaaaaa" pointer-events="none" display="block" font-family="Open Sans"><tspan dy="0" >Sunday, March 30, 2025 at 5:40 AM Moscow Standard Time</tspan></text></g></g><!--z-index:17--><g   id="j_259"  transform="translate(20,1701.3999999999999)"><g id="v-3149"><text  id="v-3150" font-size="36px" xml:space="preserve" y="0.8em" font-weight="normal" text-anchor="start" fill="#000000" pointer-events="none" display="block" font-family="Open Sans"><tspan dy="0" >[Container] Поиск веб-новелл</tspan></text></g></g><!--z-index:18--><g   id="j_261"  transform="translate(219,165)" style=""><g  id="v-3156" style="opacity: 1;"><rect  id="v-3157" rx="20" ry="20" stroke="#0f5eaa" stroke-width="2" pointer-events="visiblePainted" fill="#1168bd" width="450" height="300" style="fill: rgb(17, 104, 189); stroke: rgb(15, 94, 170);"></rect><text  id="v-3158" font-size="34" xml:space="preserve" y="0.8em" font-weight="bold" text-anchor="middle" pointer-events="visible" font-family="Open Sans" fill="#ffffff" transform="matrix(1,0,0,1,225,44.9)" style="fill: rgb(255, 255, 255);"><tspan dy="0" >Шлюз API</tspan></text><text  id="v-3159" font-size="17" xml:space="preserve" y="0.8em" text-anchor="middle" font-family="Open Sans" fill="#ffffff" transform="matrix(1,0,0,1,225,85.7)" style="fill: rgb(255, 255, 255);"><tspan dy="0" >[Software System]</tspan></text><text  id="v-3160" font-size="24" xml:space="preserve" y="0.8em" text-anchor="middle" font-family="Open Sans" fill="#ffffff" transform="matrix(1,0,0,1,225,116.1)" style="fill: rgb(255, 255, 255);"><tspan dy="0" >• Маршрутизация трафика</tspan><tspan dy="1.2em" x="0" >• Проверка JWT</tspan><tspan dy="1.2em" x="0" >• Resilience (Circuit Breaker, Rate</tspan><tspan dy="1.2em" x="0" >Limiter, e.t.c.)</tspan><tspan dy="1.2em" x="0" >• Трассировка запросов</tspan></text><g  id="v-3161" color="#ffffff" transform="matrix(1,0,0,1,222.5,268)" display="none" style="fill: rgb(255, 255, 255);"><g ></g><g ></g><g ></g><g ></g></g><image  id="v-3162"></image></g></g><!--z-index:19--><g   id="j_262"  transform="translate(1519,610)" style=""><g  id="v-3169" style="opacity: 1;"><rect  id="v-3170" rx="20" ry="20" stroke="#0f5eaa" stroke-width="2" pointer-events="visiblePainted" fill="#1168bd" width="450" height="300" style="fill: rgb(17, 104, 189); stroke: rgb(15, 94, 170);"></rect><text  id="v-3171" font-size="34" xml:space="preserve" y="0.8em" font-weight="bold" text-anchor="middle" pointer-events="visible" font-family="Open Sans" fill="#ffffff" transform="matrix(1,0,0,1,225,53.3)" style="fill: rgb(255, 255, 255);"><tspan dy="0" >Управление</tspan><tspan dy="1.2em" x="0" >пользователями</tspan></text><text  id="v-3172" font-size="17" xml:space="preserve" y="0.8em" text-anchor="middle" font-family="Open Sans" fill="#ffffff" transform="matrix(1,0,0,1,225,134.9)" style="fill: rgb(255, 255, 255);"><tspan dy="0" >[Software System]</tspan></text><text  id="v-3173" font-size="24" xml:space="preserve" y="0.8em" text-anchor="middle" font-family="Open Sans" fill="#ffffff" transform="matrix(1,0,0,1,225,165.3)" style="fill: rgb(255, 255, 255);"><tspan dy="0" >• Регистрация пользователей</tspan><tspan dy="1.2em" x="0" >• Выдача JWT токенов</tspan><tspan dy="1.2em" x="0" >• Управление профилями</tspan></text><g  id="v-3174" color="#ffffff" transform="matrix(1,0,0,1,222.5,268)" display="none" style="fill: rgb(255, 255, 255);"><g ></g><g ></g><g ></g><g ></g></g><image  id="v-3175"></image></g></g><!--z-index:20--><g   id="j_263"  transform="translate(1519,1230)" style=""><g  id="v-3182" style="opacity: 1;"><rect  id="v-3183" rx="20" ry="20" stroke="#0f5eaa" stroke-width="2" pointer-events="visiblePainted" fill="#1168bd" width="450" height="300" style="fill: rgb(17, 104, 189); stroke: rgb(15, 94, 170);"></rect><text  id="v-3184" font-size="34" xml:space="preserve" y="0.8em" font-weight="bold" text-anchor="middle" pointer-events="visible" font-family="Open Sans" fill="#ffffff" transform="matrix(1,0,0,1,225,53.3)" style="fill: rgb(255, 255, 255);"><tspan dy="0" >Управление контентом</tspan><tspan dy="1.2em" x="0" >веб-новелл</tspan></text><text  id="v-3185" font-size="17" xml:space="preserve" y="0.8em" text-anchor="middle" font-family="Open Sans" fill="#ffffff" transform="matrix(1,0,0,1,225,134.9)" style="fill: rgb(255, 255, 255);"><tspan dy="0" >[Software System]</tspan></text><text  id="v-3186" font-size="24" xml:space="preserve" y="0.8em" text-anchor="middle" font-family="Open Sans" fill="#ffffff" transform="matrix(1,0,0,1,225,165.3)" style="fill: rgb(255, 255, 255);"><tspan dy="0" >• Загрузка и редактирование</tspan><tspan dy="1.2em" x="0" >произведений</tspan><tspan dy="1.2em" x="0" >• Структурирование по главам</tspan></text><g  id="v-3187" color="#ffffff" transform="matrix(1,0,0,1,222.5,268)" display="none" style="fill: rgb(255, 255, 255);"><g ></g><g ></g><g ></g><g ></g></g><image  id="v-3188"></image></g></g><!--z-index:21--><g   id="j_265"  transform="translate(199,595)" style=""><g id="v-3202"><rect  id="v-3203" width="1040" height="951" rx="0" ry="0" fill="#ffffff" stroke="#0f5eaa" stroke-width="1" stroke-dasharray="20,20" pointer-events="none"></rect><text  id="v-3204" font-size="24px" xml:space="preserve" y="912" font-weight="normal" fill="#0f5eaa" text-anchor="start" pointer-events="visible" font-family="Open Sans" transform="matrix(1,0,0,1,15,0)"><tspan dy="0" >Поиск веб-новелл</tspan></text><text  id="v-3205" font-size="17px" xml:space="preserve" y="936" font-weight="normal" fill="#0f5eaa" text-anchor="start" pointer-events="visible" font-family="Open Sans" transform="matrix(1,0,0,1,15,0)"><tspan dy="0" >[Software System]</tspan></text><image  id="v-3206" pointer-events="visible"></image></g></g><!--z-index:22--><g   id="j_264"  transform="translate(219,615)" style=""><g  id="v-3195" style="opacity: 1;"><rect  id="v-3196" rx="20" ry="20" stroke="#3c7fc0" stroke-width="2" pointer-events="visiblePainted" fill="#438dd5" width="450" height="300" style="fill: rgb(67, 141, 213); stroke: rgb(60, 127, 192);"></rect><text  id="v-3197" font-size="34" xml:space="preserve" y="0.8em" font-weight="bold" text-anchor="middle" pointer-events="visible" font-family="Open Sans" fill="#ffffff" transform="matrix(1,0,0,1,225,73.7)" style="fill: rgb(255, 255, 255);"><tspan dy="0" >search-api</tspan></text><text  id="v-3198" font-size="17" xml:space="preserve" y="0.8em" text-anchor="middle" font-family="Open Sans" fill="#ffffff" transform="matrix(1,0,0,1,225,114.5)" style="fill: rgb(255, 255, 255);"><tspan dy="0" >[Container: Spring Boot, REST, API, Stateless]</tspan></text><text  id="v-3199" font-size="24" xml:space="preserve" y="0.8em" text-anchor="middle" font-family="Open Sans" fill="#ffffff" transform="matrix(1,0,0,1,225,144.9)" style="fill: rgb(255, 255, 255);"><tspan dy="0" >Поиск веб-новелл по различным</tspan><tspan dy="1.2em" x="0" >фильтрам: автор, рейтинг,</tspan><tspan dy="1.2em" x="0" >название и т.д.</tspan></text><g  id="v-3200" color="#ffffff" transform="matrix(1,0,0,1,222.5,268)" display="none" style="fill: rgb(255, 255, 255);"><g ></g><g ></g><g ></g><g ></g></g><image  id="v-3201"></image></g></g><!--z-index:23--><g   id="j_266"  transform="translate(469,1155)" style=""><g  id="v-3213" style="opacity: 1;"><path  d="M 0,30 a 225,30 0,0,0 450 0 a 225,30 0,0,0 -450 0 l 0,240 a 225,30 0,0,0 450 0 l 0,-240" id="v-3214" stroke="#3c7fc0" stroke-width="2" pointer-events="visiblePainted" fill="#438dd5" style="fill: rgb(67, 141, 213); stroke: rgb(60, 127, 192);"></path><rect  id="v-3215" stroke-width="0" pointer-events="visiblePainted" fill="none" stroke="none" width="450" height="270" x="0" y="30"></rect><text  id="v-3216" font-size="34" xml:space="preserve" y="0.8em" font-weight="bold" text-anchor="middle" pointer-events="visible" font-family="Open Sans" fill="#ffffff" transform="matrix(1,0,0,1,225,110.6)" style="fill: rgb(255, 255, 255);"><tspan dy="0" >search-elasticsearch</tspan></text><text  id="v-3217" font-size="17" xml:space="preserve" y="0.8em" text-anchor="middle" font-family="Open Sans" fill="#ffffff" transform="matrix(1,0,0,1,225,151.4)" style="fill: rgb(255, 255, 255);"><tspan dy="0" >[Container: ElasticSearch]</tspan></text><text  id="v-3218" font-size="24" xml:space="preserve" y="0.8em" text-anchor="middle" font-family="Open Sans" fill="#ffffff" transform="matrix(1,0,0,1,225,181.8)" style="fill: rgb(255, 255, 255);"><tspan dy="0" >Хранит веб-новеллы в формате,</tspan><tspan dy="1.2em" x="0" >удобном для поиска</tspan></text><g  id="v-3219" font-weight="normal" text-anchor="middle" color="#ffffff" transform="matrix(1,0,0,1,222.5,268)" display="none" style="fill: rgb(255, 255, 255);"><g ></g><g ></g><g ></g><g ></g></g><image  id="v-3220"></image></g></g><!--z-index:24--><g   id="j_267"  transform="translate(769,615)" style=""><g  id="v-3224" style="opacity: 1;"><rect  id="v-3225" rx="20" ry="20" stroke="#3c7fc0" stroke-width="2" pointer-events="visiblePainted" fill="#438dd5" width="450" height="300" style="fill: rgb(67, 141, 213); stroke: rgb(60, 127, 192);"></rect><text  id="v-3226" font-size="34" xml:space="preserve" y="0.8em" font-weight="bold" text-anchor="middle" pointer-events="visible" font-family="Open Sans" fill="#ffffff" transform="matrix(1,0,0,1,225,102.5)" style="fill: rgb(255, 255, 255);"><tspan dy="0" >search-indexer</tspan></text><text  id="v-3227" font-size="17" xml:space="preserve" y="0.8em" text-anchor="middle" font-family="Open Sans" fill="#ffffff" transform="matrix(1,0,0,1,225,143.3)" style="fill: rgb(255, 255, 255);"><tspan dy="0" >[Container: Spring Boot]</tspan></text><text  id="v-3228" font-size="24" xml:space="preserve" y="0.8em" text-anchor="middle" font-family="Open Sans" fill="#ffffff" transform="matrix(1,0,0,1,225,173.7)" style="fill: rgb(255, 255, 255);"><tspan dy="0" >Индексирует веб-новеллы</tspan></text><g  id="v-3229" color="#ffffff" transform="matrix(1,0,0,1,222.5,268)" display="none" style="fill: rgb(255, 255, 255);"><g ></g><g ></g><g ></g><g ></g></g><image  id="v-3230"></image></g></g><!--z-index:25--><g   id="j_268" ><path  stroke="#707070" d="M 1177 915 L 1561 1230" id="v-3243" stroke-width="2" stroke-dasharray="30 30" fill="none" style="opacity: 1;"></path><path  fill="black" stroke="black" d="M 0 0 0 0" transform="matrix(0.7732626755513515,0.6340858258935973,-0.6340858258935973,0.7732626755513515,1176.9300537109375,915)"></path><path  fill="#707070" stroke="#707070" d="M 20 0 L 0 10 L 20 20 z" id="v-3245" transform="matrix(-0.7732626333345323,-0.6340858773766727,0.6340858773766727,-0.7732626333345323,1554.7291699033285,1237.732664794612)" style="opacity: 1;"></path><path  d="M 1177 915 L 1561 1230" id="v-3244" fill="none" style="cursor: default;"></path><g ><g id="v-3237"  label-idx="0" cursor="move" transform="matrix(1,0,0,1,1369,1072.5)" style="cursor: default; opacity: 1;"><rect joint-selector="rect" id="v-3240" fill="#ffffff" rx="3" ry="3" pointer-events="none" width="186.3221435546875" height="91.13187789916992" transform="matrix(1,0,0,1,-93,-45.6)"></rect><text joint-selector="text" id="v-3239" font-size="24px" xml:space="preserve" y="0.8em" fill="#707070" text-anchor="middle" pointer-events="none" font-family="Open Sans" font-weight="normal" transform="matrix(1,0,0,1,0,-38.9)"><tspan dy="0" >Читает события</tspan><tspan dy="1.2em" x="0" >об изменении</tspan><tspan dy="1.2em" x="0" >веб-новелл</tspan></text></g><g id="v-3238"  label-idx="1" cursor="move" transform="matrix(1,0,0,1,1359,1127.699951171875)" style="cursor: default; opacity: 1;"><rect joint-selector="rect" id="v-3242" fill="#ffffff" rx="3" ry="3"  width="0" height="0" transform="matrix(1,0,0,1,0,0)" display="none"></rect><text joint-selector="text" id="v-3241" fill="#000000" font-size="14" text-anchor="middle" pointer-events="none"></text></g></g><g  display="none"></g><g  id="v-3247" display="none"><g  id="v-3235"><path  end="source" d="M 26 0 L 0 13 L 26 26 z"></path></g><g  id="v-3236"><path  end="target" d="M 26 0 L 0 13 L 26 26 z"></path></g></g><g  id="v-3246" display="none"><g  id="v-3234" transform="translate(1207.9259725124377, 940.3689618266092) "><g  event="remove"><circle r="11"></circle><path transform="scale(.8) translate(-16, -16)" d="M24.778,21.419 19.276,15.917 24.777,10.415 21.949,7.585 16.447,13.087 10.945,7.585 8.117,10.415 13.618,15.917 8.116,21.419 10.946,24.248 16.447,18.746 21.948,24.248z"></path><title>Remove link.</title></g><g  event="link:options"><circle r="11" transform="translate(25)"></circle><path fill="white" transform="scale(.55) translate(29, -16)" d="M31.229,17.736c0.064-0.571,0.104-1.148,0.104-1.736s-0.04-1.166-0.104-1.737l-4.377-1.557c-0.218-0.716-0.504-1.401-0.851-2.05l1.993-4.192c-0.725-0.91-1.549-1.734-2.458-2.459l-4.193,1.994c-0.647-0.347-1.334-0.632-2.049-0.849l-1.558-4.378C17.165,0.708,16.588,0.667,16,0.667s-1.166,0.041-1.737,0.105L12.707,5.15c-0.716,0.217-1.401,0.502-2.05,0.849L6.464,4.005C5.554,4.73,4.73,5.554,4.005,6.464l1.994,4.192c-0.347,0.648-0.632,1.334-0.849,2.05l-4.378,1.557C0.708,14.834,0.667,15.412,0.667,16s0.041,1.165,0.105,1.736l4.378,1.558c0.217,0.715,0.502,1.401,0.849,2.049l-1.994,4.193c0.725,0.909,1.549,1.733,2.459,2.458l4.192-1.993c0.648,0.347,1.334,0.633,2.05,0.851l1.557,4.377c0.571,0.064,1.148,0.104,1.737,0.104c0.588,0,1.165-0.04,1.736-0.104l1.558-4.377c0.715-0.218,1.399-0.504,2.049-0.851l4.193,1.993c0.909-0.725,1.733-1.549,2.458-2.458l-1.993-4.193c0.347-0.647,0.633-1.334,0.851-2.049L31.229,17.736zM16,20.871c-2.69,0-4.872-2.182-4.872-4.871c0-2.69,2.182-4.872,4.872-4.872c2.689,0,4.871,2.182,4.871,4.872C20.871,18.689,18.689,20.871,16,20.871z"></path><title>Link options.</title></g></g></g></g><!--z-index:26--><g   id="j_269" ><path  stroke="#707070" d="M 1219 764 L 1519 762" id="v-3260" stroke-width="2" stroke-dasharray="30 30" fill="none" style="opacity: 1;"></path><path  fill="black" stroke="black" d="M 0 0 0 0" transform="matrix(0.9999777794722142,-0.006666375463453877,0.006666375463453877,0.9999777794722142,1219,763.5)"></path><path  fill="#707070" stroke="#707070" d="M 20 0 L 0 10 L 20 20 z" id="v-3262" transform="matrix(-0.9999777776968156,0.006666641773645,-0.006666641773645,-0.9999777776968156,1519.0666883353297,771.4997617498567)" style="opacity: 1;"></path><path  d="M 1219 764 L 1519 762" id="v-3261" fill="none" style="cursor: default;"></path><g ><g id="v-3254"  label-idx="0" cursor="move" transform="matrix(1,0,0,1,1369,763)" style="cursor: default; opacity: 1;"><rect joint-selector="rect" id="v-3257" fill="#ffffff" rx="3" ry="3" pointer-events="none" width="191.67359924316406" height="62.33187484741211" transform="matrix(1,0,0,1,-95.6,-31.2)"></rect><text joint-selector="text" id="v-3256" font-size="24px" xml:space="preserve" y="0.8em" fill="#707070" text-anchor="middle" pointer-events="none" font-family="Open Sans" font-weight="normal" transform="matrix(1,0,0,1,0,-24.5)"><tspan dy="0" >Получает</tspan><tspan dy="1.2em" x="0" >профиль автора</tspan></text></g><g id="v-3255"  label-idx="1" cursor="move" transform="matrix(1,0,0,1,1359,803.7999877929688)" style="cursor: default; opacity: 1;"><rect joint-selector="rect" id="v-3259" fill="#ffffff" rx="3" ry="3"  width="0" height="0" transform="matrix(1,0,0,1,0,0)" display="none"></rect><text joint-selector="text" id="v-3258" fill="#000000" font-size="14" text-anchor="middle" pointer-events="none"></text></g></g><g  display="none"></g><g  id="v-3264" display="none"><g  id="v-3252"><path  end="source" d="M 26 0 L 0 13 L 26 26 z"></path></g><g  id="v-3253"><path  end="target" d="M 26 0 L 0 13 L 26 26 z"></path></g></g><g  id="v-3263" display="none"><g  id="v-3251" transform="translate(1258.9991111407396, 763.7333392590617) "><g  event="remove"><circle r="11"></circle><path transform="scale(.8) translate(-16, -16)" d="M24.778,21.419 19.276,15.917 24.777,10.415 21.949,7.585 16.447,13.087 10.945,7.585 8.117,10.415 13.618,15.917 8.116,21.419 10.946,24.248 16.447,18.746 21.948,24.248z"></path><title>Remove link.</title></g><g  event="link:options"><circle r="11" transform="translate(25)"></circle><path fill="white" transform="scale(.55) translate(29, -16)" d="M31.229,17.736c0.064-0.571,0.104-1.148,0.104-1.736s-0.04-1.166-0.104-1.737l-4.377-1.557c-0.218-0.716-0.504-1.401-0.851-2.05l1.993-4.192c-0.725-0.91-1.549-1.734-2.458-2.459l-4.193,1.994c-0.647-0.347-1.334-0.632-2.049-0.849l-1.558-4.378C17.165,0.708,16.588,0.667,16,0.667s-1.166,0.041-1.737,0.105L12.707,5.15c-0.716,0.217-1.401,0.502-2.05,0.849L6.464,4.005C5.554,4.73,4.73,5.554,4.005,6.464l1.994,4.192c-0.347,0.648-0.632,1.334-0.849,2.05l-4.378,1.557C0.708,14.834,0.667,15.412,0.667,16s0.041,1.165,0.105,1.736l4.378,1.558c0.217,0.715,0.502,1.401,0.849,2.049l-1.994,4.193c0.725,0.909,1.549,1.733,2.459,2.458l4.192-1.993c0.648,0.347,1.334,0.633,2.05,0.851l1.557,4.377c0.571,0.064,1.148,0.104,1.737,0.104c0.588,0,1.165-0.04,1.736-0.104l1.558-4.377c0.715-0.218,1.399-0.504,2.049-0.851l4.193,1.993c0.909-0.725,1.733-1.549,2.458-2.458l-1.993-4.193c0.347-0.647,0.633-1.334,0.851-2.049L31.229,17.736zM16,20.871c-2.69,0-4.872-2.182-4.872-4.871c0-2.69,2.182-4.872,4.872-4.872c2.689,0,4.871,2.182,4.871,4.872C20.871,18.689,18.689,20.871,16,20.871z"></path><title>Link options.</title></g></g></g></g><!--z-index:27--><g   id="j_270" ><path  stroke="#707070" d="M 911 915 L 777 1155" id="v-3277" stroke-width="2" stroke-dasharray="30 30" fill="none" style="opacity: 1;"></path><path  fill="black" stroke="black" d="M 0 0 0 0" transform="matrix(-0.4856614308714747,0.8741469982582287,-0.8741469982582287,-0.4856614308714747,910.6699829101562,915)"></path><path  fill="#707070" stroke="#707070" d="M 20 0 L 0 10 L 20 20 z" id="v-3279" transform="matrix(0.48566143087147456,-0.8741469982582288,0.8741469982582288,0.48566143087147456,768.5885001813592,1150.1434005957426)" style="opacity: 1;"></path><path  d="M 911 915 L 777 1155" id="v-3278" fill="none" style="cursor: default;"></path><g ><g id="v-3271"  label-idx="0" cursor="move" transform="matrix(1,0,0,1,844,1035)" style="cursor: default; opacity: 1;"><rect joint-selector="rect" id="v-3274" fill="#ffffff" rx="3" ry="3" pointer-events="none" width="173.39625549316406" height="91.13187789916992" transform="matrix(1,0,0,1,-86,-45.6)"></rect><text joint-selector="text" id="v-3273" font-size="24px" xml:space="preserve" y="0.8em" fill="#707070" text-anchor="middle" pointer-events="none" font-family="Open Sans" font-weight="normal" transform="matrix(1,0,0,1,0,-38.9)"><tspan dy="0" >Записывает</tspan><tspan dy="1.2em" x="0" >веб-новеллы в</tspan><tspan dy="1.2em" x="0" >индекс</tspan></text></g><g id="v-3272"  label-idx="1" cursor="move" transform="matrix(1,0,0,1,834,1090.199951171875)" style="cursor: default; opacity: 1;"><rect joint-selector="rect" id="v-3276" fill="#ffffff" rx="3" ry="3"  width="0" height="0" transform="matrix(1,0,0,1,0,0)" display="none"></rect><text joint-selector="text" id="v-3275" fill="#000000" font-size="14" text-anchor="middle" pointer-events="none"></text></g></g><g  display="none"></g><g  id="v-3281" display="none"><g  id="v-3269"><path  end="source" d="M 26 0 L 0 13 L 26 26 z"></path></g><g  id="v-3270"><path  end="target" d="M 26 0 L 0 13 L 26 26 z"></path></g></g><g  id="v-3280" display="none"><g  id="v-3268" transform="translate(891.5001930993677, 949.9250272847145) "><g  event="remove"><circle r="11"></circle><path transform="scale(.8) translate(-16, -16)" d="M24.778,21.419 19.276,15.917 24.777,10.415 21.949,7.585 16.447,13.087 10.945,7.585 8.117,10.415 13.618,15.917 8.116,21.419 10.946,24.248 16.447,18.746 21.948,24.248z"></path><title>Remove link.</title></g><g  event="link:options"><circle r="11" transform="translate(25)"></circle><path fill="white" transform="scale(.55) translate(29, -16)" d="M31.229,17.736c0.064-0.571,0.104-1.148,0.104-1.736s-0.04-1.166-0.104-1.737l-4.377-1.557c-0.218-0.716-0.504-1.401-0.851-2.05l1.993-4.192c-0.725-0.91-1.549-1.734-2.458-2.459l-4.193,1.994c-0.647-0.347-1.334-0.632-2.049-0.849l-1.558-4.378C17.165,0.708,16.588,0.667,16,0.667s-1.166,0.041-1.737,0.105L12.707,5.15c-0.716,0.217-1.401,0.502-2.05,0.849L6.464,4.005C5.554,4.73,4.73,5.554,4.005,6.464l1.994,4.192c-0.347,0.648-0.632,1.334-0.849,2.05l-4.378,1.557C0.708,14.834,0.667,15.412,0.667,16s0.041,1.165,0.105,1.736l4.378,1.558c0.217,0.715,0.502,1.401,0.849,2.049l-1.994,4.193c0.725,0.909,1.549,1.733,2.459,2.458l4.192-1.993c0.648,0.347,1.334,0.633,2.05,0.851l1.557,4.377c0.571,0.064,1.148,0.104,1.737,0.104c0.588,0,1.165-0.04,1.736-0.104l1.558-4.377c0.715-0.218,1.399-0.504,2.049-0.851l4.193,1.993c0.909-0.725,1.733-1.549,2.458-2.458l-1.993-4.193c0.347-0.647,0.633-1.334,0.851-2.049L31.229,17.736zM16,20.871c-2.69,0-4.872-2.182-4.872-4.871c0-2.69,2.182-4.872,4.872-4.872c2.689,0,4.871,2.182,4.871,4.872C20.871,18.689,18.689,20.871,16,20.871z"></path><title>Link options.</title></g></g></g></g><!--z-index:28--><g   id="j_271" ><path  stroke="#707070" d="M 513 915 L 625 1155" id="v-3294" stroke-width="2" stroke-dasharray="30 30" fill="none" style="opacity: 1;"></path><path  fill="black" stroke="black" d="M 0 0 0 0" transform="matrix(0.4201512848141676,0.907454074798832,-0.907454074798832,0.4201512848141676,513.4400024414062,915)"></path><path  fill="#707070" stroke="#707070" d="M 20 0 L 0 10 L 20 20 z" id="v-3296" transform="matrix(-0.42015116397934477,-0.9074541307453516,0.9074541307453516,-0.42015116397934477,615.4854298049962,1159.2014679863094)" style="opacity: 1;"></path><path  d="M 513 915 L 625 1155" id="v-3295" fill="none" style="cursor: default;"></path><g ><g id="v-3288"  label-idx="0" cursor="move" transform="matrix(1,0,0,1,569,1035)" style="cursor: default; opacity: 1;"><rect joint-selector="rect" id="v-3291" fill="#ffffff" rx="3" ry="3" pointer-events="none" width="188.26788330078125" height="119.9318733215332" transform="matrix(1,0,0,1,-93.7,-60)"></rect><text joint-selector="text" id="v-3290" font-size="24px" xml:space="preserve" y="0.8em" fill="#707070" text-anchor="middle" pointer-events="none" font-family="Open Sans" font-weight="normal" transform="matrix(1,0,0,1,0,-53.3)"><tspan dy="0" >Выполняет</tspan><tspan dy="1.2em" x="0" >поиск</tspan><tspan dy="1.2em" x="0" >веб-новеллы по</tspan><tspan dy="1.2em" x="0" >критериям</tspan></text></g><g id="v-3289"  label-idx="1" cursor="move" transform="matrix(1,0,0,1,559,1104.5999755859375)" style="cursor: default; opacity: 1;"><rect joint-selector="rect" id="v-3293" fill="#ffffff" rx="3" ry="3"  width="0" height="0" transform="matrix(1,0,0,1,0,0)" display="none"></rect><text joint-selector="text" id="v-3292" fill="#000000" font-size="14" text-anchor="middle" pointer-events="none"></text></g></g><g  display="none"></g><g  id="v-3298" display="none"><g  id="v-3286"><path  end="source" d="M 26 0 L 0 13 L 26 26 z"></path></g><g  id="v-3287"><path  end="target" d="M 26 0 L 0 13 L 26 26 z"></path></g></g><g  id="v-3297" display="none"><g  id="v-3285" transform="translate(529.9154186132449, 951.2473255998107) "><g  event="remove"><circle r="11"></circle><path transform="scale(.8) translate(-16, -16)" d="M24.778,21.419 19.276,15.917 24.777,10.415 21.949,7.585 16.447,13.087 10.945,7.585 8.117,10.415 13.618,15.917 8.116,21.419 10.946,24.248 16.447,18.746 21.948,24.248z"></path><title>Remove link.</title></g><g  event="link:options"><circle r="11" transform="translate(25)"></circle><path fill="white" transform="scale(.55) translate(29, -16)" d="M31.229,17.736c0.064-0.571,0.104-1.148,0.104-1.736s-0.04-1.166-0.104-1.737l-4.377-1.557c-0.218-0.716-0.504-1.401-0.851-2.05l1.993-4.192c-0.725-0.91-1.549-1.734-2.458-2.459l-4.193,1.994c-0.647-0.347-1.334-0.632-2.049-0.849l-1.558-4.378C17.165,0.708,16.588,0.667,16,0.667s-1.166,0.041-1.737,0.105L12.707,5.15c-0.716,0.217-1.401,0.502-2.05,0.849L6.464,4.005C5.554,4.73,4.73,5.554,4.005,6.464l1.994,4.192c-0.347,0.648-0.632,1.334-0.849,2.05l-4.378,1.557C0.708,14.834,0.667,15.412,0.667,16s0.041,1.165,0.105,1.736l4.378,1.558c0.217,0.715,0.502,1.401,0.849,2.049l-1.994,4.193c0.725,0.909,1.549,1.733,2.459,2.458l4.192-1.993c0.648,0.347,1.334,0.633,2.05,0.851l1.557,4.377c0.571,0.064,1.148,0.104,1.737,0.104c0.588,0,1.165-0.04,1.736-0.104l1.558-4.377c0.715-0.218,1.399-0.504,2.049-0.851l4.193,1.993c0.909-0.725,1.733-1.549,2.458-2.458l-1.993-4.193c0.347-0.647,0.633-1.334,0.851-2.049L31.229,17.736zM16,20.871c-2.69,0-4.872-2.182-4.872-4.871c0-2.69,2.182-4.872,4.872-4.872c2.689,0,4.871,2.182,4.871,4.872C20.871,18.689,18.689,20.871,16,20.871z"></path><title>Link options.</title></g></g></g></g><!--z-index:29--><g   id="j_272" ><path  stroke="#707070" d="M 444 465 L 444 615" id="v-3311" stroke-width="2" stroke-dasharray="30 30" fill="none" style="opacity: 1;"></path><path  fill="black" stroke="black" d="M 0 0 0 0" transform="matrix(6.123233995736766e-17,1,-1,6.123233995736766e-17,444,465)"></path><path  fill="#707070" stroke="#707070" d="M 20 0 L 0 10 L 20 20 z" id="v-3313" transform="matrix(-1.8369701987210297e-16,-1,1,-1.8369701987210297e-16,434,615)" style="opacity: 1;"></path><path  d="M 444 465 L 444 615" id="v-3312" fill="none" style="cursor: default;"></path><g ><g id="v-3305"  label-idx="0" cursor="move" transform="matrix(1,0,0,1,444,540)" style="cursor: default; opacity: 1;"><rect joint-selector="rect" id="v-3308" fill="#ffffff" rx="3" ry="3" pointer-events="none" width="198.39511108398438" height="62.33187484741211" transform="matrix(1,0,0,1,-98,-31.2)"></rect><text joint-selector="text" id="v-3307" font-size="24px" xml:space="preserve" y="0.8em" fill="#707070" text-anchor="middle" pointer-events="none" font-family="Open Sans" font-weight="normal" transform="matrix(1,0,0,1,0,-24.5)"><tspan dy="0" >Перенаправляет</tspan><tspan dy="1.2em" x="0" >запросы</tspan></text></g><g id="v-3306"  label-idx="1" cursor="move" transform="matrix(1,0,0,1,434,580.7999877929688)" style="cursor: default; opacity: 1;"><rect joint-selector="rect" id="v-3310" fill="#ffffff" rx="3" ry="3"  width="0" height="0" transform="matrix(1,0,0,1,0,0)" display="none"></rect><text joint-selector="text" id="v-3309" fill="#000000" font-size="14" text-anchor="middle" pointer-events="none"></text></g></g><g  display="none"></g><g  id="v-3315" display="none"><g  id="v-3303"><path  end="source" d="M 26 0 L 0 13 L 26 26 z"></path></g><g  id="v-3304"><path  end="target" d="M 26 0 L 0 13 L 26 26 z"></path></g></g><g  id="v-3314" display="none"><g  id="v-3302" transform="translate(444, 505) "><g  event="remove"><circle r="11"></circle><path transform="scale(.8) translate(-16, -16)" d="M24.778,21.419 19.276,15.917 24.777,10.415 21.949,7.585 16.447,13.087 10.945,7.585 8.117,10.415 13.618,15.917 8.116,21.419 10.946,24.248 16.447,18.746 21.948,24.248z"></path><title>Remove link.</title></g><g  event="link:options"><circle r="11" transform="translate(25)"></circle><path fill="white" transform="scale(.55) translate(29, -16)" d="M31.229,17.736c0.064-0.571,0.104-1.148,0.104-1.736s-0.04-1.166-0.104-1.737l-4.377-1.557c-0.218-0.716-0.504-1.401-0.851-2.05l1.993-4.192c-0.725-0.91-1.549-1.734-2.458-2.459l-4.193,1.994c-0.647-0.347-1.334-0.632-2.049-0.849l-1.558-4.378C17.165,0.708,16.588,0.667,16,0.667s-1.166,0.041-1.737,0.105L12.707,5.15c-0.716,0.217-1.401,0.502-2.05,0.849L6.464,4.005C5.554,4.73,4.73,5.554,4.005,6.464l1.994,4.192c-0.347,0.648-0.632,1.334-0.849,2.05l-4.378,1.557C0.708,14.834,0.667,15.412,0.667,16s0.041,1.165,0.105,1.736l4.378,1.558c0.217,0.715,0.502,1.401,0.849,2.049l-1.994,4.193c0.725,0.909,1.549,1.733,2.459,2.458l4.192-1.993c0.648,0.347,1.334,0.633,2.05,0.851l1.557,4.377c0.571,0.064,1.148,0.104,1.737,0.104c0.588,0,1.165-0.04,1.736-0.104l1.558-4.377c0.715-0.218,1.399-0.504,2.049-0.851l4.193,1.993c0.909-0.725,1.733-1.549,2.458-2.458l-1.993-4.193c0.347-0.647,0.633-1.334,0.851-2.049L31.229,17.736zM16,20.871c-2.69,0-4.872-2.182-4.872-4.871c0-2.69,2.182-4.872,4.872-4.872c2.689,0,4.871,2.182,4.871,4.872C20.871,18.689,18.689,20.871,16,20.871z"></path><title>Link options.</title></g></g></g></g><!--z-index:30--><!--z-index:31--><!--z-index:32--><!--z-index:33--><!--z-index:34--></g><g ></g><g ></g><g ></g></g></svg>