<svg xmlns="http://www.w3.org/2000/svg" xmlns:xlink="http://www.w3.org/1999/xlink" version="1.1" viewBox="0 0 2364 1806" style="background: #ffffff"><defs><style>@import url(https://fonts.googleapis.com/css?family=Open+Sans:400,700);</style></defs><defs joint-selector="defs"></defs><g joint-selector="layers"  transform="matrix(1,0,0,1,0,0)"><g ></g><g ><!--z-index:1--><!--z-index:2--><!--z-index:3--><!--z-index:4--><!--z-index:5--><!--z-index:6--><!--z-index:7--><!--z-index:8--><!--z-index:9--><!--z-index:10--><!--z-index:11--><!--z-index:12--><!--z-index:13--><!--z-index:14--><!--z-index:15--><!--z-index:16--><!--z-index:17--><g   id="j_245"  transform="translate(20,1769.6)"><g id="v-2971"><text  id="v-2972" font-size="22px" xml:space="preserve" y="0.8em" font-weight="normal" text-anchor="start" fill="#aaaaaa" pointer-events="none" display="block" font-family="Open Sans"><tspan dy="0" >Sunday, March 30, 2025 at 5:40 AM Moscow Standard Time</tspan></text></g></g><!--z-index:18--><g   id="j_244"  transform="translate(20,1726.3999999999999)"><g id="v-2969"><text  id="v-2970" font-size="36px" xml:space="preserve" y="0.8em" font-weight="normal" text-anchor="start" fill="#000000" pointer-events="none" display="block" font-family="Open Sans"><tspan dy="0" >[Container] Оценка веб-новелл</tspan></text></g></g><!--z-index:19--><g   id="j_246"  transform="translate(1699,165)" style=""><g  id="v-2976" style="opacity: 1;"><rect  id="v-2977" rx="20" ry="20" stroke="#0f5eaa" stroke-width="2" pointer-events="visiblePainted" fill="#1168bd" width="450" height="300" style="fill: rgb(17, 104, 189); stroke: rgb(15, 94, 170);"></rect><text  id="v-2978" font-size="34" xml:space="preserve" y="0.8em" font-weight="bold" text-anchor="middle" pointer-events="visible" font-family="Open Sans" fill="#ffffff" transform="matrix(1,0,0,1,225,44.9)" style="fill: rgb(255, 255, 255);"><tspan dy="0" >Шлюз API</tspan></text><text  id="v-2979" font-size="17" xml:space="preserve" y="0.8em" text-anchor="middle" font-family="Open Sans" fill="#ffffff" transform="matrix(1,0,0,1,225,85.7)" style="fill: rgb(255, 255, 255);"><tspan dy="0" >[Software System]</tspan></text><text  id="v-2980" font-size="24" xml:space="preserve" y="0.8em" text-anchor="middle" font-family="Open Sans" fill="#ffffff" transform="matrix(1,0,0,1,225,116.1)" style="fill: rgb(255, 255, 255);"><tspan dy="0" >• Маршрутизация трафика</tspan><tspan dy="1.2em" x="0" >• Проверка JWT</tspan><tspan dy="1.2em" x="0" >• Resilience (Circuit Breaker, Rate</tspan><tspan dy="1.2em" x="0" >Limiter, e.t.c.)</tspan><tspan dy="1.2em" x="0" >• Трассировка запросов</tspan></text><g  id="v-2981" color="#ffffff" transform="matrix(1,0,0,1,222.5,268)" display="none" style="fill: rgb(255, 255, 255);"><g ></g><g ></g><g ></g><g ></g></g><image  id="v-2982"></image></g></g><!--z-index:20--><g   id="j_248"  transform="translate(200,590)" style=""><g id="v-2996"><rect  id="v-2997" width="1964" height="981" rx="0" ry="0" fill="#ffffff" stroke="#0f5eaa" stroke-width="1" stroke-dasharray="20,20" pointer-events="none"></rect><text  id="v-2998" font-size="24px" xml:space="preserve" y="942" font-weight="normal" fill="#0f5eaa" text-anchor="start" pointer-events="visible" font-family="Open Sans" transform="matrix(1,0,0,1,15,0)"><tspan dy="0" >Оценка веб-новелл</tspan></text><text  id="v-2999" font-size="17px" xml:space="preserve" y="966" font-weight="normal" fill="#0f5eaa" text-anchor="start" pointer-events="visible" font-family="Open Sans" transform="matrix(1,0,0,1,15,0)"><tspan dy="0" >[Software System]</tspan></text><image  id="v-3000" pointer-events="visible"></image></g></g><!--z-index:21--><g   id="j_247"  transform="translate(1694,610)" style=""><g  id="v-2989" style="opacity: 1;"><rect  id="v-2990" rx="20" ry="20" stroke="#3c7fc0" stroke-width="2" pointer-events="visiblePainted" fill="#438dd5" width="450" height="300" style="fill: rgb(67, 141, 213); stroke: rgb(60, 127, 192);"></rect><text  id="v-2991" font-size="34" xml:space="preserve" y="0.8em" font-weight="bold" text-anchor="middle" pointer-events="visible" font-family="Open Sans" fill="#ffffff" transform="matrix(1,0,0,1,225,88.1)" style="fill: rgb(255, 255, 255);"><tspan dy="0" >rating-api</tspan></text><text  id="v-2992" font-size="17" xml:space="preserve" y="0.8em" text-anchor="middle" font-family="Open Sans" fill="#ffffff" transform="matrix(1,0,0,1,225,128.9)" style="fill: rgb(255, 255, 255);"><tspan dy="0" >[Container: Spring Boot, REST, API, Stateless]</tspan></text><text  id="v-2993" font-size="24" xml:space="preserve" y="0.8em" text-anchor="middle" font-family="Open Sans" fill="#ffffff" transform="matrix(1,0,0,1,225,159.3)" style="fill: rgb(255, 255, 255);"><tspan dy="0" >Позволяет ставить оценки к</tspan><tspan dy="1.2em" x="0" >произведениям</tspan></text><g  id="v-2994" color="#ffffff" transform="matrix(1,0,0,1,222.5,268)" display="none" style="fill: rgb(255, 255, 255);"><g ></g><g ></g><g ></g><g ></g></g><image  id="v-2995"></image></g></g><!--z-index:22--><g   id="j_249"  transform="translate(945,620)" style=""><g  id="v-3004" style="opacity: 1;"><path  d="M 30,0 a 30,150 0,0,1 0 300 a 30,150 0,0,1 0 -300 l 390,0 a 30,150 0,0,1 0 300 l -390,0" id="v-3005" stroke="#3c7fc0" stroke-width="2" pointer-events="visiblePainted" fill="#438dd5" style="fill: rgb(67, 141, 213); stroke: rgb(60, 127, 192);"></path><rect  id="v-3006" stroke-width="0" pointer-events="visiblePainted" fill="none" stroke="none" width="420" height="300" x="30" y="0"></rect><text  id="v-3007" font-size="34" xml:space="preserve" y="0.8em" font-weight="bold" text-anchor="middle" pointer-events="visible" font-family="Open Sans" fill="#ffffff" transform="matrix(1,0,0,1,240,88.1)" style="fill: rgb(255, 255, 255);"><tspan dy="0" >rating-command</tspan></text><text  id="v-3008" font-size="17" xml:space="preserve" y="0.8em" text-anchor="middle" font-family="Open Sans" fill="#ffffff" transform="matrix(1,0,0,1,240,128.9)" style="fill: rgb(255, 255, 255);"><tspan dy="0" >[Container: Kafka]</tspan></text><text  id="v-3009" font-size="24" xml:space="preserve" y="0.8em" text-anchor="middle" font-family="Open Sans" fill="#ffffff" transform="matrix(1,0,0,1,240,159.3)" style="fill: rgb(255, 255, 255);"><tspan dy="0" >Команды на добавление оценки</tspan><tspan dy="1.2em" x="0" >произведения</tspan></text><g  id="v-3010" font-weight="normal" text-anchor="middle" color="#ffffff" transform="matrix(1,0,0,1,237.5,268)" display="none" style="fill: rgb(255, 255, 255);"><g ></g><g ></g><g ></g><g ></g></g><image  id="v-3011"></image></g></g><!--z-index:23--><g   id="j_250"  transform="translate(220,620)" style=""><g  id="v-3015" style="opacity: 1;"><rect  id="v-3016" rx="20" ry="20" stroke="#3c7fc0" stroke-width="2" pointer-events="visiblePainted" fill="#438dd5" width="450" height="300" style="fill: rgb(67, 141, 213); stroke: rgb(60, 127, 192);"></rect><text  id="v-3017" font-size="34" xml:space="preserve" y="0.8em" font-weight="bold" text-anchor="middle" pointer-events="visible" font-family="Open Sans" fill="#ffffff" transform="matrix(1,0,0,1,225,73.7)" style="fill: rgb(255, 255, 255);"><tspan dy="0" >rating-consumer</tspan></text><text  id="v-3018" font-size="17" xml:space="preserve" y="0.8em" text-anchor="middle" font-family="Open Sans" fill="#ffffff" transform="matrix(1,0,0,1,225,114.5)" style="fill: rgb(255, 255, 255);"><tspan dy="0" >[Container: Spring Boot]</tspan></text><text  id="v-3019" font-size="24" xml:space="preserve" y="0.8em" text-anchor="middle" font-family="Open Sans" fill="#ffffff" transform="matrix(1,0,0,1,225,144.9)" style="fill: rgb(255, 255, 255);"><tspan dy="0" >Транзакционно и идемпотентно</tspan><tspan dy="1.2em" x="0" >меняет текущую среднюю оценку</tspan><tspan dy="1.2em" x="0" >веб-новеллы</tspan></text><g  id="v-3020" color="#ffffff" transform="matrix(1,0,0,1,222.5,268)" display="none" style="fill: rgb(255, 255, 255);"><g ></g><g ></g><g ></g><g ></g></g><image  id="v-3021"></image></g></g><!--z-index:24--><g   id="j_251"  transform="translate(230,1170)" style=""><g  id="v-3025" style="opacity: 1;"><path  d="M 30,0 a 30,150 0,0,1 0 300 a 30,150 0,0,1 0 -300 l 390,0 a 30,150 0,0,1 0 300 l -390,0" id="v-3026" stroke="#3c7fc0" stroke-width="2" pointer-events="visiblePainted" fill="#438dd5" style="fill: rgb(67, 141, 213); stroke: rgb(60, 127, 192);"></path><rect  id="v-3027" stroke-width="0" pointer-events="visiblePainted" fill="none" stroke="none" width="420" height="300" x="30" y="0"></rect><text  id="v-3028" font-size="34" xml:space="preserve" y="0.8em" font-weight="bold" text-anchor="middle" pointer-events="visible" font-family="Open Sans" fill="#ffffff" transform="matrix(1,0,0,1,240,88.1)" style="fill: rgb(255, 255, 255);"><tspan dy="0" >rating-event</tspan></text><text  id="v-3029" font-size="17" xml:space="preserve" y="0.8em" text-anchor="middle" font-family="Open Sans" fill="#ffffff" transform="matrix(1,0,0,1,240,128.9)" style="fill: rgb(255, 255, 255);"><tspan dy="0" >[Container: Kafka]</tspan></text><text  id="v-3030" font-size="24" xml:space="preserve" y="0.8em" text-anchor="middle" font-family="Open Sans" fill="#ffffff" transform="matrix(1,0,0,1,240,159.3)" style="fill: rgb(255, 255, 255);"><tspan dy="0" >События об изменении средней</tspan><tspan dy="1.2em" x="0" >оценки произведения</tspan></text><g  id="v-3031" font-weight="normal" text-anchor="middle" color="#ffffff" transform="matrix(1,0,0,1,237.5,268)" display="none" style="fill: rgb(255, 255, 255);"><g ></g><g ></g><g ></g><g ></g></g><image  id="v-3032"></image></g></g><!--z-index:25--><g   id="j_252"  transform="translate(1185,1180)" style=""><g  id="v-3036" style="opacity: 1;"><path  d="M 0,30 a 225,30 0,0,0 450 0 a 225,30 0,0,0 -450 0 l 0,240 a 225,30 0,0,0 450 0 l 0,-240" id="v-3037" stroke="#3c7fc0" stroke-width="2" pointer-events="visiblePainted" fill="#438dd5" style="fill: rgb(67, 141, 213); stroke: rgb(60, 127, 192);"></path><rect  id="v-3038" stroke-width="0" pointer-events="visiblePainted" fill="none" stroke="none" width="450" height="270" x="0" y="30"></rect><text  id="v-3039" font-size="34" xml:space="preserve" y="0.8em" font-weight="bold" text-anchor="middle" pointer-events="visible" font-family="Open Sans" fill="#ffffff" transform="matrix(1,0,0,1,225,96.2)" style="fill: rgb(255, 255, 255);"><tspan dy="0" >rating-redis</tspan></text><text  id="v-3040" font-size="17" xml:space="preserve" y="0.8em" text-anchor="middle" font-family="Open Sans" fill="#ffffff" transform="matrix(1,0,0,1,225,137)" style="fill: rgb(255, 255, 255);"><tspan dy="0" >[Container: Redis]</tspan></text><text  id="v-3041" font-size="24" xml:space="preserve" y="0.8em" text-anchor="middle" font-family="Open Sans" fill="#ffffff" transform="matrix(1,0,0,1,225,167.4)" style="fill: rgb(255, 255, 255);"><tspan dy="0" >• Хранит счетчик и сумму</tspan><tspan dy="1.2em" x="0" >рейтинга</tspan><tspan dy="1.2em" x="0" >• Хранит ключи идемпотентности</tspan></text><g  id="v-3042" font-weight="normal" text-anchor="middle" color="#ffffff" transform="matrix(1,0,0,1,222.5,268)" display="none" style="fill: rgb(255, 255, 255);"><g ></g><g ></g><g ></g><g ></g></g><image  id="v-3043"></image></g></g><!--z-index:26--><g   id="j_253" ><path  stroke="#707070" d="M 1694 763 L 1395 767" id="v-3056" stroke-width="2" stroke-dasharray="30 30" fill="none" style="opacity: 1;"></path><path  fill="black" stroke="black" d="M 0 0 0 0" transform="matrix(-0.9999105284917762,0.013376659197898554,-0.013376659197898554,-0.9999105284917762,1694,763)"></path><path  fill="#707070" stroke="#707070" d="M 20 0 L 0 10 L 20 20 z" id="v-3058" transform="matrix(0.9999105284917762,-0.013376659197899122,0.013376659197899122,0.9999105284917762,1394.8662736309157,757.0008722445613)" style="opacity: 1;"></path><path  d="M 1694 763 L 1395 767" id="v-3057" fill="none" style="cursor: default;"></path><g ><g id="v-3050"  label-idx="0" cursor="move" transform="matrix(1,0,0,1,1544.5,765)" style="cursor: default; opacity: 1;"><rect joint-selector="rect" id="v-3053" fill="#ffffff" rx="3" ry="3" pointer-events="none" width="175.80177307128906" height="149.20257568359375" transform="matrix(1,0,0,1,-87.8,-74.6)"></rect><text joint-selector="text" id="v-3052" font-size="24px" xml:space="preserve" y="0.8em" fill="#707070" text-anchor="middle" pointer-events="none" font-family="Open Sans" font-weight="normal" transform="matrix(1,0,0,1,0,-67.5)"><tspan dy="0" >Отправляет</tspan><tspan dy="1.2em" x="0" >команду на</tspan><tspan dy="1.2em" x="0" >добавление</tspan><tspan dy="1.2em" x="0" >оценки</tspan><tspan dy="1.2em" x="0" >произведению</tspan></text></g><g id="v-3051"  label-idx="1" cursor="move" transform="matrix(1,0,0,1,1534.5,849)" style="cursor: default; opacity: 1;"><rect joint-selector="rect" id="v-3055" fill="#ffffff" rx="3" ry="3"  width="0" height="0" transform="matrix(1,0,0,1,0,0)" display="none"></rect><text joint-selector="text" id="v-3054" fill="#000000" font-size="14" text-anchor="middle" pointer-events="none"></text></g></g><g  display="none"></g><g  id="v-3060" display="none"><g  id="v-3048"><path  end="source" d="M 26 0 L 0 13 L 26 26 z"></path></g><g  id="v-3049"><path  end="target" d="M 26 0 L 0 13 L 26 26 z"></path></g></g><g  id="v-3059" display="none"><g  id="v-3047" transform="translate(1654.0035788979303, 763.535069178623) "><g  event="remove"><circle r="11"></circle><path transform="scale(.8) translate(-16, -16)" d="M24.778,21.419 19.276,15.917 24.777,10.415 21.949,7.585 16.447,13.087 10.945,7.585 8.117,10.415 13.618,15.917 8.116,21.419 10.946,24.248 16.447,18.746 21.948,24.248z"></path><title>Remove link.</title></g><g  event="link:options"><circle r="11" transform="translate(25)"></circle><path fill="white" transform="scale(.55) translate(29, -16)" d="M31.229,17.736c0.064-0.571,0.104-1.148,0.104-1.736s-0.04-1.166-0.104-1.737l-4.377-1.557c-0.218-0.716-0.504-1.401-0.851-2.05l1.993-4.192c-0.725-0.91-1.549-1.734-2.458-2.459l-4.193,1.994c-0.647-0.347-1.334-0.632-2.049-0.849l-1.558-4.378C17.165,0.708,16.588,0.667,16,0.667s-1.166,0.041-1.737,0.105L12.707,5.15c-0.716,0.217-1.401,0.502-2.05,0.849L6.464,4.005C5.554,4.73,4.73,5.554,4.005,6.464l1.994,4.192c-0.347,0.648-0.632,1.334-0.849,2.05l-4.378,1.557C0.708,14.834,0.667,15.412,0.667,16s0.041,1.165,0.105,1.736l4.378,1.558c0.217,0.715,0.502,1.401,0.849,2.049l-1.994,4.193c0.725,0.909,1.549,1.733,2.459,2.458l4.192-1.993c0.648,0.347,1.334,0.633,2.05,0.851l1.557,4.377c0.571,0.064,1.148,0.104,1.737,0.104c0.588,0,1.165-0.04,1.736-0.104l1.558-4.377c0.715-0.218,1.399-0.504,2.049-0.851l4.193,1.993c0.909-0.725,1.733-1.549,2.458-2.458l-1.993-4.193c0.347-0.647,0.633-1.334,0.851-2.049L31.229,17.736zM16,20.871c-2.69,0-4.872-2.182-4.872-4.871c0-2.69,2.182-4.872,4.872-4.872c2.689,0,4.871,2.182,4.871,4.872C20.871,18.689,18.689,20.871,16,20.871z"></path><title>Link options.</title></g></g></g></g><!--z-index:27--><g   id="j_254" ><path  stroke="#707070" d="M 1785 910 L 1544 1180" id="v-3073" stroke-width="2" stroke-dasharray="30 30" fill="none" style="opacity: 1;"></path><path  fill="black" stroke="black" d="M 0 0 0 0" transform="matrix(-0.6660596706808924,0.7458984616504187,-0.7458984616504187,-0.6660596706808924,1785.050048828125,910)"></path><path  fill="#707070" stroke="#707070" d="M 20 0 L 0 10 L 20 20 z" id="v-3075" transform="matrix(0.6660596706808923,-0.7458984616504188,0.7458984616504188,0.6660596706808923,1536.491014379812,1173.3394035346953)" style="opacity: 1;"></path><path  d="M 1785 910 L 1544 1180" id="v-3074" fill="none" style="cursor: default;"></path><g ><g id="v-3067"  label-idx="0" cursor="move" transform="matrix(1,0,0,1,1664.5,1045)" style="cursor: default; opacity: 1;"><rect joint-selector="rect" id="v-3070" fill="#ffffff" rx="3" ry="3" pointer-events="none" width="200.49668884277344" height="149.20257568359375" transform="matrix(1,0,0,1,-100.1,-74.6)"></rect><text joint-selector="text" id="v-3069" font-size="24px" xml:space="preserve" y="0.8em" fill="#707070" text-anchor="middle" pointer-events="none" font-family="Open Sans" font-weight="normal" transform="matrix(1,0,0,1,0,-67.5)"><tspan dy="0" >Получает</tspan><tspan dy="1.2em" x="0" >среднюю оценку</tspan><tspan dy="1.2em" x="0" >произведения</tspan><tspan dy="1.2em" x="0" >по счетчику и</tspan><tspan dy="1.2em" x="0" >сумме рейтинга</tspan></text></g><g id="v-3068"  label-idx="1" cursor="move" transform="matrix(1,0,0,1,1654.5,1129)" style="cursor: default; opacity: 1;"><rect joint-selector="rect" id="v-3072" fill="#ffffff" rx="3" ry="3"  width="0" height="0" transform="matrix(1,0,0,1,0,0)" display="none"></rect><text joint-selector="text" id="v-3071" fill="#000000" font-size="14" text-anchor="middle" pointer-events="none"></text></g></g><g  display="none"></g><g  id="v-3077" display="none"><g  id="v-3065"><path  end="source" d="M 26 0 L 0 13 L 26 26 z"></path></g><g  id="v-3066"><path  end="target" d="M 26 0 L 0 13 L 26 26 z"></path></g></g><g  id="v-3076" display="none"><g  id="v-3064" transform="translate(1758.3637622298063, 939.8414282072711) "><g  event="remove"><circle r="11"></circle><path transform="scale(.8) translate(-16, -16)" d="M24.778,21.419 19.276,15.917 24.777,10.415 21.949,7.585 16.447,13.087 10.945,7.585 8.117,10.415 13.618,15.917 8.116,21.419 10.946,24.248 16.447,18.746 21.948,24.248z"></path><title>Remove link.</title></g><g  event="link:options"><circle r="11" transform="translate(25)"></circle><path fill="white" transform="scale(.55) translate(29, -16)" d="M31.229,17.736c0.064-0.571,0.104-1.148,0.104-1.736s-0.04-1.166-0.104-1.737l-4.377-1.557c-0.218-0.716-0.504-1.401-0.851-2.05l1.993-4.192c-0.725-0.91-1.549-1.734-2.458-2.459l-4.193,1.994c-0.647-0.347-1.334-0.632-2.049-0.849l-1.558-4.378C17.165,0.708,16.588,0.667,16,0.667s-1.166,0.041-1.737,0.105L12.707,5.15c-0.716,0.217-1.401,0.502-2.05,0.849L6.464,4.005C5.554,4.73,4.73,5.554,4.005,6.464l1.994,4.192c-0.347,0.648-0.632,1.334-0.849,2.05l-4.378,1.557C0.708,14.834,0.667,15.412,0.667,16s0.041,1.165,0.105,1.736l4.378,1.558c0.217,0.715,0.502,1.401,0.849,2.049l-1.994,4.193c0.725,0.909,1.549,1.733,2.459,2.458l4.192-1.993c0.648,0.347,1.334,0.633,2.05,0.851l1.557,4.377c0.571,0.064,1.148,0.104,1.737,0.104c0.588,0,1.165-0.04,1.736-0.104l1.558-4.377c0.715-0.218,1.399-0.504,2.049-0.851l4.193,1.993c0.909-0.725,1.733-1.549,2.458-2.458l-1.993-4.193c0.347-0.647,0.633-1.334,0.851-2.049L31.229,17.736zM16,20.871c-2.69,0-4.872-2.182-4.872-4.871c0-2.69,2.182-4.872,4.872-4.872c2.689,0,4.871,2.182,4.871,4.872C20.871,18.689,18.689,20.871,16,20.871z"></path><title>Link options.</title></g></g></g></g><!--z-index:28--><g   id="j_255" ><path  stroke="#707070" d="M 670 770 L 945 770" id="v-3090" stroke-width="2" stroke-dasharray="30 30" fill="none" style="opacity: 1;"></path><path  fill="black" stroke="black" d="M 0 0 0 0" transform="matrix(1,0,0,1,670,770)"></path><path  fill="#707070" stroke="#707070" d="M 20 0 L 0 10 L 20 20 z" id="v-3092" transform="matrix(-1,1.2246467991473532e-16,-1.2246467991473532e-16,-1,945,780)" style="opacity: 1;"></path><path  d="M 670 770 L 945 770" id="v-3091" fill="none" style="cursor: default;"></path><g ><g id="v-3084"  label-idx="0" cursor="move" transform="matrix(1,0,0,1,807.5,770)" style="cursor: default; opacity: 1;"><rect joint-selector="rect" id="v-3087" fill="#ffffff" rx="3" ry="3" pointer-events="none" width="188.0615234375" height="120.40257263183594" transform="matrix(1,0,0,1,-93.1,-60.2)"></rect><text joint-selector="text" id="v-3086" font-size="24px" xml:space="preserve" y="0.8em" fill="#707070" text-anchor="middle" pointer-events="none" font-family="Open Sans" font-weight="normal" transform="matrix(1,0,0,1,0,-53.1)"><tspan dy="0" >Читает команду</tspan><tspan dy="1.2em" x="0" >на добавление</tspan><tspan dy="1.2em" x="0" >оценки</tspan><tspan dy="1.2em" x="0" >произведению</tspan></text></g><g id="v-3085"  label-idx="1" cursor="move" transform="matrix(1,0,0,1,797.5,839.5999755859375)" style="cursor: default; opacity: 1;"><rect joint-selector="rect" id="v-3089" fill="#ffffff" rx="3" ry="3"  width="0" height="0" transform="matrix(1,0,0,1,0,0)" display="none"></rect><text joint-selector="text" id="v-3088" fill="#000000" font-size="14" text-anchor="middle" pointer-events="none"></text></g></g><g  display="none"></g><g  id="v-3094" display="none"><g  id="v-3082"><path  end="source" d="M 26 0 L 0 13 L 26 26 z"></path></g><g  id="v-3083"><path  end="target" d="M 26 0 L 0 13 L 26 26 z"></path></g></g><g  id="v-3093" display="none"><g  id="v-3081" transform="translate(710, 770) "><g  event="remove"><circle r="11"></circle><path transform="scale(.8) translate(-16, -16)" d="M24.778,21.419 19.276,15.917 24.777,10.415 21.949,7.585 16.447,13.087 10.945,7.585 8.117,10.415 13.618,15.917 8.116,21.419 10.946,24.248 16.447,18.746 21.948,24.248z"></path><title>Remove link.</title></g><g  event="link:options"><circle r="11" transform="translate(25)"></circle><path fill="white" transform="scale(.55) translate(29, -16)" d="M31.229,17.736c0.064-0.571,0.104-1.148,0.104-1.736s-0.04-1.166-0.104-1.737l-4.377-1.557c-0.218-0.716-0.504-1.401-0.851-2.05l1.993-4.192c-0.725-0.91-1.549-1.734-2.458-2.459l-4.193,1.994c-0.647-0.347-1.334-0.632-2.049-0.849l-1.558-4.378C17.165,0.708,16.588,0.667,16,0.667s-1.166,0.041-1.737,0.105L12.707,5.15c-0.716,0.217-1.401,0.502-2.05,0.849L6.464,4.005C5.554,4.73,4.73,5.554,4.005,6.464l1.994,4.192c-0.347,0.648-0.632,1.334-0.849,2.05l-4.378,1.557C0.708,14.834,0.667,15.412,0.667,16s0.041,1.165,0.105,1.736l4.378,1.558c0.217,0.715,0.502,1.401,0.849,2.049l-1.994,4.193c0.725,0.909,1.549,1.733,2.459,2.458l4.192-1.993c0.648,0.347,1.334,0.633,2.05,0.851l1.557,4.377c0.571,0.064,1.148,0.104,1.737,0.104c0.588,0,1.165-0.04,1.736-0.104l1.558-4.377c0.715-0.218,1.399-0.504,2.049-0.851l4.193,1.993c0.909-0.725,1.733-1.549,2.458-2.458l-1.993-4.193c0.347-0.647,0.633-1.334,0.851-2.049L31.229,17.736zM16,20.871c-2.69,0-4.872-2.182-4.872-4.871c0-2.69,2.182-4.872,4.872-4.872c2.689,0,4.871,2.182,4.871,4.872C20.871,18.689,18.689,20.871,16,20.871z"></path><title>Link options.</title></g></g></g></g><!--z-index:29--><g   id="j_256" ><path  stroke="#707070" d="M 670 901 L 1185 1199" id="v-3107" stroke-width="2" stroke-dasharray="30 30" fill="none" style="opacity: 1;"></path><path  fill="black" stroke="black" d="M 0 0 0 0" transform="matrix(0.8649145516420474,0.5019191352776221,-0.5019191352776221,0.8649145516420474,670,900.5700073242188)"></path><path  fill="#707070" stroke="#707070" d="M 20 0 L 0 10 L 20 20 z" id="v-3109" transform="matrix(-0.864914601767975,-0.5019190488998652,0.5019190488998652,-0.864914601767975,1179.9807856068062,1208.0791031082408)" style="opacity: 1;"></path><path  d="M 670 901 L 1185 1199" id="v-3108" fill="none" style="cursor: default;"></path><g ><g id="v-3101"  label-idx="0" cursor="move" transform="matrix(1,0,0,1,927.5,1050)" style="cursor: default; opacity: 1;"><rect joint-selector="rect" id="v-3104" fill="#ffffff" rx="3" ry="3" pointer-events="none" width="194.81773376464844" height="149.20257568359375" transform="matrix(1,0,0,1,-97.2,-74.6)"></rect><text joint-selector="text" id="v-3103" font-size="24px" xml:space="preserve" y="0.8em" fill="#707070" text-anchor="middle" pointer-events="none" font-family="Open Sans" font-weight="normal" transform="matrix(1,0,0,1,0,-67.5)"><tspan dy="0" >Транзакционно</tspan><tspan dy="1.2em" x="0" >и идемпотентно</tspan><tspan dy="1.2em" x="0" >увеличивает</tspan><tspan dy="1.2em" x="0" >счетчик и сумму</tspan><tspan dy="1.2em" x="0" >рейтинга</tspan></text></g><g id="v-3102"  label-idx="1" cursor="move" transform="matrix(1,0,0,1,917.5,1134)" style="cursor: default; opacity: 1;"><rect joint-selector="rect" id="v-3106" fill="#ffffff" rx="3" ry="3"  width="0" height="0" transform="matrix(1,0,0,1,0,0)" display="none"></rect><text joint-selector="text" id="v-3105" fill="#000000" font-size="14" text-anchor="middle" pointer-events="none"></text></g></g><g  display="none"></g><g  id="v-3111" display="none"><g  id="v-3099"><path  end="source" d="M 26 0 L 0 13 L 26 26 z"></path></g><g  id="v-3100"><path  end="target" d="M 26 0 L 0 13 L 26 26 z"></path></g></g><g  id="v-3110" display="none"><g  id="v-3098" transform="translate(704.6216531513008, 921.0335002700731) "><g  event="remove"><circle r="11"></circle><path transform="scale(.8) translate(-16, -16)" d="M24.778,21.419 19.276,15.917 24.777,10.415 21.949,7.585 16.447,13.087 10.945,7.585 8.117,10.415 13.618,15.917 8.116,21.419 10.946,24.248 16.447,18.746 21.948,24.248z"></path><title>Remove link.</title></g><g  event="link:options"><circle r="11" transform="translate(25)"></circle><path fill="white" transform="scale(.55) translate(29, -16)" d="M31.229,17.736c0.064-0.571,0.104-1.148,0.104-1.736s-0.04-1.166-0.104-1.737l-4.377-1.557c-0.218-0.716-0.504-1.401-0.851-2.05l1.993-4.192c-0.725-0.91-1.549-1.734-2.458-2.459l-4.193,1.994c-0.647-0.347-1.334-0.632-2.049-0.849l-1.558-4.378C17.165,0.708,16.588,0.667,16,0.667s-1.166,0.041-1.737,0.105L12.707,5.15c-0.716,0.217-1.401,0.502-2.05,0.849L6.464,4.005C5.554,4.73,4.73,5.554,4.005,6.464l1.994,4.192c-0.347,0.648-0.632,1.334-0.849,2.05l-4.378,1.557C0.708,14.834,0.667,15.412,0.667,16s0.041,1.165,0.105,1.736l4.378,1.558c0.217,0.715,0.502,1.401,0.849,2.049l-1.994,4.193c0.725,0.909,1.549,1.733,2.459,2.458l4.192-1.993c0.648,0.347,1.334,0.633,2.05,0.851l1.557,4.377c0.571,0.064,1.148,0.104,1.737,0.104c0.588,0,1.165-0.04,1.736-0.104l1.558-4.377c0.715-0.218,1.399-0.504,2.049-0.851l4.193,1.993c0.909-0.725,1.733-1.549,2.458-2.458l-1.993-4.193c0.347-0.647,0.633-1.334,0.851-2.049L31.229,17.736zM16,20.871c-2.69,0-4.872-2.182-4.872-4.871c0-2.69,2.182-4.872,4.872-4.872c2.689,0,4.871,2.182,4.871,4.872C20.871,18.689,18.689,20.871,16,20.871z"></path><title>Link options.</title></g></g></g></g><!--z-index:30--><g   id="j_257" ><path  stroke="#707070" d="M 448 920 L 452 1170" id="v-3124" stroke-width="2" stroke-dasharray="30 30" fill="none" style="opacity: 1;"></path><path  fill="black" stroke="black" d="M 0 0 0 0" transform="matrix(0.01815696714527341,0.9998351486840645,-0.9998351486840645,0.01815696714527341,447.7300109863281,920)"></path><path  fill="#707070" stroke="#707070" d="M 20 0 L 0 10 L 20 20 z" id="v-3126" transform="matrix(-0.018156967145273536,-0.9998351486840645,0.9998351486840645,-0.018156967145273536,442.27165812601834,1170.1816301426684)" style="opacity: 1;"></path><path  d="M 448 920 L 452 1170" id="v-3125" fill="none" style="cursor: default;"></path><g ><g id="v-3118"  label-idx="0" cursor="move" transform="matrix(1,0,0,1,450,1045)" style="cursor: default; opacity: 1;"><rect joint-selector="rect" id="v-3121" fill="#ffffff" rx="3" ry="3" pointer-events="none" width="190.98875427246094" height="149.20257568359375" transform="matrix(1,0,0,1,-96.2,-74.6)"></rect><text joint-selector="text" id="v-3120" font-size="24px" xml:space="preserve" y="0.8em" fill="#707070" text-anchor="middle" pointer-events="none" font-family="Open Sans" font-weight="normal" transform="matrix(1,0,0,1,0,-67.5)"><tspan dy="0" >Публикует</tspan><tspan dy="1.2em" x="0" >событие об</tspan><tspan dy="1.2em" x="0" >изменении</tspan><tspan dy="1.2em" x="0" >средней оценки</tspan><tspan dy="1.2em" x="0" >произведения</tspan></text></g><g id="v-3119"  label-idx="1" cursor="move" transform="matrix(1,0,0,1,440,1129)" style="cursor: default; opacity: 1;"><rect joint-selector="rect" id="v-3123" fill="#ffffff" rx="3" ry="3"  width="0" height="0" transform="matrix(1,0,0,1,0,0)" display="none"></rect><text joint-selector="text" id="v-3122" fill="#000000" font-size="14" text-anchor="middle" pointer-events="none"></text></g></g><g  display="none"></g><g  id="v-3128" display="none"><g  id="v-3116"><path  end="source" d="M 26 0 L 0 13 L 26 26 z"></path></g><g  id="v-3117"><path  end="target" d="M 26 0 L 0 13 L 26 26 z"></path></g></g><g  id="v-3127" display="none"><g  id="v-3115" transform="translate(448.6399180957253, 959.9948809828304) "><g  event="remove"><circle r="11"></circle><path transform="scale(.8) translate(-16, -16)" d="M24.778,21.419 19.276,15.917 24.777,10.415 21.949,7.585 16.447,13.087 10.945,7.585 8.117,10.415 13.618,15.917 8.116,21.419 10.946,24.248 16.447,18.746 21.948,24.248z"></path><title>Remove link.</title></g><g  event="link:options"><circle r="11" transform="translate(25)"></circle><path fill="white" transform="scale(.55) translate(29, -16)" d="M31.229,17.736c0.064-0.571,0.104-1.148,0.104-1.736s-0.04-1.166-0.104-1.737l-4.377-1.557c-0.218-0.716-0.504-1.401-0.851-2.05l1.993-4.192c-0.725-0.91-1.549-1.734-2.458-2.459l-4.193,1.994c-0.647-0.347-1.334-0.632-2.049-0.849l-1.558-4.378C17.165,0.708,16.588,0.667,16,0.667s-1.166,0.041-1.737,0.105L12.707,5.15c-0.716,0.217-1.401,0.502-2.05,0.849L6.464,4.005C5.554,4.73,4.73,5.554,4.005,6.464l1.994,4.192c-0.347,0.648-0.632,1.334-0.849,2.05l-4.378,1.557C0.708,14.834,0.667,15.412,0.667,16s0.041,1.165,0.105,1.736l4.378,1.558c0.217,0.715,0.502,1.401,0.849,2.049l-1.994,4.193c0.725,0.909,1.549,1.733,2.459,2.458l4.192-1.993c0.648,0.347,1.334,0.633,2.05,0.851l1.557,4.377c0.571,0.064,1.148,0.104,1.737,0.104c0.588,0,1.165-0.04,1.736-0.104l1.558-4.377c0.715-0.218,1.399-0.504,2.049-0.851l4.193,1.993c0.909-0.725,1.733-1.549,2.458-2.458l-1.993-4.193c0.347-0.647,0.633-1.334,0.851-2.049L31.229,17.736zM16,20.871c-2.69,0-4.872-2.182-4.872-4.871c0-2.69,2.182-4.872,4.872-4.872c2.689,0,4.871,2.182,4.871,4.872C20.871,18.689,18.689,20.871,16,20.871z"></path><title>Link options.</title></g></g></g></g><!--z-index:31--><g   id="j_258" ><path  stroke="#707070" d="M 1922 465 L 1921 610" id="v-3141" stroke-width="2" stroke-dasharray="30 30" fill="none" style="opacity: 1;"></path><path  fill="black" stroke="black" d="M 0 0 0 0" transform="matrix(-0.011171728373887288,0.999937594295334,-0.999937594295334,-0.011171728373887288,1922.31005859375,465)"></path><path  fill="#707070" stroke="#707070" d="M 20 0 L 0 10 L 20 20 z" id="v-3143" transform="matrix(0.011171728373887389,-0.999937594295334,0.999937594295334,0.011171728373887389,1910.6906645858078,609.888269010777)" style="opacity: 1;"></path><path  d="M 1922 465 L 1921 610" id="v-3142" fill="none" style="cursor: default;"></path><g ><g id="v-3135"  label-idx="0" cursor="move" transform="matrix(1,0,0,1,1921.5,537.5)" style="cursor: default; opacity: 1;"><rect joint-selector="rect" id="v-3138" fill="#ffffff" rx="3" ry="3" pointer-events="none" width="197.03085327148438" height="62.80256652832031" transform="matrix(1,0,0,1,-98,-31.4)"></rect><text joint-selector="text" id="v-3137" font-size="24px" xml:space="preserve" y="0.8em" fill="#707070" text-anchor="middle" pointer-events="none" font-family="Open Sans" font-weight="normal" transform="matrix(1,0,0,1,0,-24.3)"><tspan dy="0" >Перенаправляет</tspan><tspan dy="1.2em" x="0" >запросы</tspan></text></g><g id="v-3136"  label-idx="1" cursor="move" transform="matrix(1,0,0,1,1911.5,578.2999877929688)" style="cursor: default; opacity: 1;"><rect joint-selector="rect" id="v-3140" fill="#ffffff" rx="3" ry="3"  width="0" height="0" transform="matrix(1,0,0,1,0,0)" display="none"></rect><text joint-selector="text" id="v-3139" fill="#000000" font-size="14" text-anchor="middle" pointer-events="none"></text></g></g><g  display="none"></g><g  id="v-3145" display="none"><g  id="v-3133"><path  end="source" d="M 26 0 L 0 13 L 26 26 z"></path></g><g  id="v-3134"><path  end="target" d="M 26 0 L 0 13 L 26 26 z"></path></g></g><g  id="v-3144" display="none"><g  id="v-3132" transform="translate(1921.7241444911351, 504.9990487854178) "><g  event="remove"><circle r="11"></circle><path transform="scale(.8) translate(-16, -16)" d="M24.778,21.419 19.276,15.917 24.777,10.415 21.949,7.585 16.447,13.087 10.945,7.585 8.117,10.415 13.618,15.917 8.116,21.419 10.946,24.248 16.447,18.746 21.948,24.248z"></path><title>Remove link.</title></g><g  event="link:options"><circle r="11" transform="translate(25)"></circle><path fill="white" transform="scale(.55) translate(29, -16)" d="M31.229,17.736c0.064-0.571,0.104-1.148,0.104-1.736s-0.04-1.166-0.104-1.737l-4.377-1.557c-0.218-0.716-0.504-1.401-0.851-2.05l1.993-4.192c-0.725-0.91-1.549-1.734-2.458-2.459l-4.193,1.994c-0.647-0.347-1.334-0.632-2.049-0.849l-1.558-4.378C17.165,0.708,16.588,0.667,16,0.667s-1.166,0.041-1.737,0.105L12.707,5.15c-0.716,0.217-1.401,0.502-2.05,0.849L6.464,4.005C5.554,4.73,4.73,5.554,4.005,6.464l1.994,4.192c-0.347,0.648-0.632,1.334-0.849,2.05l-4.378,1.557C0.708,14.834,0.667,15.412,0.667,16s0.041,1.165,0.105,1.736l4.378,1.558c0.217,0.715,0.502,1.401,0.849,2.049l-1.994,4.193c0.725,0.909,1.549,1.733,2.459,2.458l4.192-1.993c0.648,0.347,1.334,0.633,2.05,0.851l1.557,4.377c0.571,0.064,1.148,0.104,1.737,0.104c0.588,0,1.165-0.04,1.736-0.104l1.558-4.377c0.715-0.218,1.399-0.504,2.049-0.851l4.193,1.993c0.909-0.725,1.733-1.549,2.458-2.458l-1.993-4.193c0.347-0.647,0.633-1.334,0.851-2.049L31.229,17.736zM16,20.871c-2.69,0-4.872-2.182-4.872-4.871c0-2.69,2.182-4.872,4.872-4.872c2.689,0,4.871,2.182,4.871,4.872C20.871,18.689,18.689,20.871,16,20.871z"></path><title>Link options.</title></g></g></g></g><!--z-index:32--><!--z-index:33--><!--z-index:34--></g><g ></g><g ></g><g ></g></g></svg>